<?xml version="1.0" encoding="utf-8"?>
<!-- Svg Vector Icons : http://www.onlinewebfonts.com/icon -->
<!DOCTYPE svg PUBLIC "-//W3C//DTD SVG 1.1//EN" "http://www.w3.org/Graphics/SVG/1.1/DTD/svg11.dtd">
<svg version="1.1" xmlns="http://www.w3.org/2000/svg" xmlns:xlink="http://www.w3.org/1999/xlink" x="0px" y="0px" viewBox="0 0 256 256" enable-background="new 0 0 256 256" xml:space="preserve">
<metadata> Svg Vector Icons : http://www.onlinewebfonts.com/icon </metadata>
<g><g><g><path fill="#000000" d="M81.3,10.5c-26.1,4.6-43.9,29.4-39.6,55.4c3.1,19.3,17.1,34.5,36.1,39.5c4.6,1.2,13.5,1.7,18.6,0.9c9.9-1.5,18.9-5.9,26.2-12.7c7.7-7.3,12.3-15.5,14.3-25.5c5.2-25.4-10.4-50.3-35.4-56.8C95.8,9.9,86.8,9.5,81.3,10.5z"/><path fill="#000000" d="M59.2,115.5c-23.8,3.6-42.4,21-48.1,45.2c-0.7,3.1-0.8,7.2-1,44.4L10,246h16.4h16.4v-39v-39h4.8h4.8v39v39h39.7h39.7v-3.8v-3.8l-3.5-3.4c-10.6-10.5-18-24.6-20.8-39.7c-1-5.5-1.3-16.8-0.6-22.7c0.6-5.9,2.6-13.7,4.8-19.2c4.6-11.3,13.6-23.4,23.3-31l3.7-3l-1.2-0.6c-0.7-0.4-3.6-1.3-6.6-2.1l-5.4-1.4l-31.8-0.1C76.3,115.1,60.8,115.3,59.2,115.5z"/><path fill="#000000" d="M173.7,115.5c-38.1,4.4-64.3,40-57.1,77.6c3.8,19.7,16.8,36.9,34.9,46c4.8,2.4,10.7,4.5,16.5,5.7c6.6,1.4,19.2,1.4,25.8,0c13.5-3,23.4-8.4,33.1-18c9.6-9.7,15.1-19.7,18-33.2c0.8-3.6,1-6,1-12.8c0-9.3-0.8-14.2-3.5-21.8c-7.8-22-26.5-38.2-49.4-42.6C187.8,115.3,178.7,114.9,173.7,115.5z M192.8,153.8v15.7h15.9h15.9v12.2v12.2h-15.9h-15.9v15.7v15.7h-12h-12v-15.7v-15.7l-15.8-0.1l-15.8-0.1l-0.1-12.1l-0.1-12.1h15.9h15.9v-15.7v-15.7h12h12V153.8z"/></g></g></g>
</svg>