<?xml version="1.0" encoding="utf-8"?>
<!-- Svg Vector Icons : http://www.onlinewebfonts.com/icon -->
<!DOCTYPE svg PUBLIC "-//W3C//DTD SVG 1.1//EN" "http://www.w3.org/Graphics/SVG/1.1/DTD/svg11.dtd">
<svg version="1.1" xmlns="http://www.w3.org/2000/svg" xmlns:xlink="http://www.w3.org/1999/xlink" x="0px" y="0px" viewBox="0 0 256 256" enable-background="new 0 0 256 256" xml:space="preserve">
<metadata> Svg Vector Icons : http://www.onlinewebfonts.com/icon </metadata>
<g><g><g><path fill="#000000" d="M13.1,25.4c-3.1,2.1-4,5.9-2.1,8.8c0.5,0.8,4.5,3.1,12.7,7.2c10.3,5.2,12.4,6.5,15,8.9c3.5,3.2,6.6,7.4,8.2,11c0.6,1.4,7.4,27.2,15,57.4c10.4,41,14.3,55.7,15.4,57.9c2.1,4.2,7.3,9.4,11.9,11.7c7,3.5,2.9,3.3,58.3,3.5c27.4,0.1,51.2,0,52.8-0.1c2.4-0.3,3.2-0.6,4.5-1.8c2.7-2.5,2.6-6.6-0.3-9.3c-1-0.9-1.8-0.9-53.5-1.2l-52.4-0.2l-2.5-1.3c-4.3-2.2-7.5-6-8.5-10.1l-0.3-1.2l57.1-0.2c63.7-0.1,58.8,0.1,65.8-3.4c6.2-3.1,10.8-7.5,13.5-12.6c1.2-2.3,22.3-61.1,22.3-62c0-1.2-2.1-3-5-4.1c-3.6-1.4-5.3-1.5-6.4-0.4c-0.5,0.4-5.7,14.3-11.6,30.8c-6.6,18.4-11.3,30.7-12.1,31.9c-1.7,2.4-4.2,4.5-7.7,6.1l-2.7,1.2l-58.2,0.1L84.2,154l-0.9-3.6c-0.6-2-6-23.2-12.1-47.2C60.8,62.5,60,59.4,57.9,55.1c-1.3-2.7-3.6-6.2-5.4-8.5c-5.2-6.4-9-9.1-22.6-16C16.9,23.9,15.8,23.6,13.1,25.4z"/><path fill="#000000" d="M139.9,41.8c-9.7,1.9-17.8,6-24.6,12.6c-4.5,4.4-7.1,8-9.7,13.5c-3.4,7.1-4.2,10.9-4.2,19.6c0,9,0.8,12.6,4.6,20.3c6,12.3,16.7,21,30,24.5c6.3,1.7,15.5,1.8,21.6,0.3c13.3-3.3,24.5-12,30.7-24c11.8-22.7,2.5-50.7-20.5-62.3c-6.8-3.4-10.8-4.3-19.3-4.5C144.4,41.6,140.6,41.7,139.9,41.8z M154.1,58.1c2.6,0.9,2.9,1.8,2.9,11v8.3h8.3h8.3l1.5,1.3l1.5,1.3v7.2v7.2l-1.5,1.3l-1.5,1.3h-8.3H157v8.5v8.4l-1.2,1.2c-1.4,1.5-3.3,1.8-10.1,1.6c-8.2-0.2-8.5-0.7-8.5-12.1v-7.6h-7.8c-11.4,0-11.5-0.1-11.5-9.9s0.1-9.9,11.5-9.9h7.8v-7.6c0-11.7,0.4-12.2,10-12.2C150.2,57.6,153.3,57.9,154.1,58.1z"/><path fill="#000000" d="M100.8,194.9c-9.7,2.6-15.9,12-14,21.3c1.8,8.9,9.9,15.3,19.4,15.4c11.8,0,21.4-10.4,19.5-21.2C123.7,198.8,112.3,191.8,100.8,194.9z M109.5,207c4.8,2.5,4.8,8.9,0,11.4c-1.1,0.6-2.5,1.1-3.2,1.1c-2,0-5-1.7-6-3.3C96.8,210.5,103.5,203.8,109.5,207z"/><path fill="#000000" d="M184.1,194.7c-7.4,1.8-13.4,8.1-14.6,15.4c-1.8,11.3,7.6,21.5,19.7,21.4c12.4-0.1,21.8-11.6,18.8-23.1c-2.2-8.5-10.1-14.4-19.1-14.3C187.2,194.3,185,194.4,184.1,194.7z M192,207c4.9,2.5,4.9,9.4-0.1,11.6c-2.5,1.2-3.7,1.2-6,0c-2.7-1.3-3.7-3-3.7-5.9C182.1,207.7,187.4,204.6,192,207z"/></g></g></g>
</svg>