<?xml version="1.0" encoding="utf-8"?>
<!-- Svg Vector Icons : http://www.onlinewebfonts.com/icon -->
<!DOCTYPE svg PUBLIC "-//W3C//DTD SVG 1.1//EN" "http://www.w3.org/Graphics/SVG/1.1/DTD/svg11.dtd">
<svg version="1.1" xmlns="http://www.w3.org/2000/svg" xmlns:xlink="http://www.w3.org/1999/xlink" x="0px" y="0px" viewBox="0 0 256 256" enable-background="new 0 0 256 256" xml:space="preserve">
<metadata> Svg Vector Icons : http://www.onlinewebfonts.com/icon </metadata>
<g><g><path fill="#000000" d="M42,60.7V10H25.2v50.7C16.7,61,10,68.3,10,77.4v33.7c0,9.1,6.7,16.4,15.2,16.7V246H42V127.9c8.4-0.3,15.2-7.6,15.2-16.7V77.4C57.2,68.3,50.5,61,42,60.7z M136.4,145V10h-16.9v135c-8.4,0.3-15.2,7.6-15.2,16.7v33.7c0,9.1,6.7,16.4,15.2,16.7V246h16.9v-33.8c8.4-0.3,15.1-7.6,15.1-16.7v-33.7C151.6,152.6,144.9,145.3,136.4,145z M230.8,60.7V10H214v50.7c-8.4,0.3-15.2,7.6-15.2,16.7v33.7c0,9.1,6.8,16.4,15.1,16.7V246h16.9V127.9c8.4-0.3,15.2-7.6,15.2-16.7V77.4C246,68.3,239.2,61,230.8,60.7L230.8,60.7z"/></g></g>
</svg>