<?xml version="1.0" standalone="no"?>
<!DOCTYPE svg PUBLIC "-//W3C//DTD SVG 20010904//EN"
 "http://www.w3.org/TR/2001/REC-SVG-20010904/DTD/svg10.dtd">
<svg version="1.0" xmlns="http://www.w3.org/2000/svg"
 width="492.000000pt" height="503.000000pt" viewBox="0 0 492.000000 503.000000"
 preserveAspectRatio="xMidYMid meet">
<metadata>
Created by potrace 1.10, written by Peter Selinger 2001-2011
</metadata>
<g transform="translate(0.000000,503.000000) scale(0.100000,-0.100000)"
fill="#000000" stroke="none">
<path d="M1040 4869 c-60 -24 -70 -70 -135 -584 -14 -115 -36 -286 -50 -380
-13 -93 -26 -199 -30 -235 -3 -36 -12 -103 -20 -150 -7 -47 -18 -128 -25 -180
-6 -52 -25 -187 -40 -300 -16 -113 -36 -261 -45 -330 -9 -69 -22 -165 -30
-215 -14 -89 -44 -300 -85 -605 -11 -85 -25 -182 -30 -215 -5 -33 -21 -152
-36 -265 -14 -113 -30 -230 -34 -260 -49 -357 -62 -493 -51 -529 20 -67 44
-75 306 -106 77 -9 174 -23 215 -30 65 -12 342 -48 465 -61 34 -3 311 -40 555
-74 123 -17 225 -31 340 -45 63 -8 160 -21 215 -30 55 -9 133 -20 173 -25 326
-44 345 -46 462 -64 58 -8 123 -17 145 -20 22 -3 72 -9 110 -14 323 -45 324
-45 354 -32 47 19 79 75 91 160 13 90 31 277 36 380 2 41 6 84 9 95 7 24 33
192 46 295 5 41 25 188 44 325 41 298 43 309 61 450 7 61 18 139 24 175 18
114 19 122 39 280 12 85 25 189 31 230 6 41 17 131 26 200 8 69 17 136 18 150
25 179 36 263 41 305 3 28 10 73 15 100 5 28 14 93 20 145 17 155 29 247 49
400 11 80 23 172 26 205 4 33 13 106 21 161 23 162 20 196 -18 237 -30 31 -42
35 -118 47 -47 7 -101 14 -120 16 -19 2 -80 11 -135 19 -55 8 -113 17 -130 20
-16 2 -68 9 -115 15 -47 6 -112 15 -145 20 -70 10 -205 29 -255 35 -94 10
-435 57 -620 84 -74 11 -243 34 -375 51 -132 17 -267 35 -300 41 -33 5 -179
25 -325 44 -146 19 -314 41 -375 49 -161 21 -266 27 -295 15z m315 -269 c114
-16 300 -39 352 -44 28 -3 80 -10 115 -16 34 -6 140 -20 233 -31 237 -28 380
-47 450 -58 33 -6 80 -11 105 -12 25 -1 49 -4 54 -7 4 -2 27 -6 50 -9 22 -2
55 -5 71 -8 17 -2 66 -9 110 -15 44 -6 94 -14 110 -16 72 -11 103 -15 155 -20
79 -7 94 -9 105 -16 6 -3 42 -9 80 -12 39 -4 84 -9 100 -11 17 -3 50 -7 75
-10 25 -3 90 -12 145 -20 55 -9 120 -18 145 -21 25 -2 70 -9 100 -15 30 -6 64
-12 75 -14 78 -10 121 -19 127 -29 5 -6 6 -29 3 -51 -16 -136 -27 -228 -45
-367 -53 -416 -61 -475 -65 -503 -3 -16 -14 -104 -25 -195 -22 -181 -64 -498
-80 -600 -5 -36 -14 -101 -20 -145 -10 -89 -35 -266 -50 -365 -5 -36 -17 -121
-25 -190 -9 -69 -25 -188 -36 -265 -18 -134 -26 -193 -49 -378 -6 -45 -15
-113 -21 -152 -9 -68 -38 -288 -60 -450 -23 -180 -20 -170 -59 -168 -19 1
-120 14 -225 28 -104 15 -305 41 -445 60 -140 18 -309 41 -375 50 -66 9 -140
18 -165 20 -25 3 -56 7 -70 10 -14 3 -45 7 -70 10 -25 3 -103 14 -175 24 -71
11 -204 29 -295 41 -91 12 -239 32 -330 45 -91 13 -194 27 -229 30 -35 3 -67
7 -70 10 -4 2 -36 6 -71 10 -36 4 -132 16 -215 28 l-150 22 -3 45 c-2 25 2 79
8 120 7 41 14 93 17 115 2 22 6 51 8 65 2 14 15 108 28 210 14 102 44 313 66
470 39 272 61 428 116 820 14 96 30 204 35 240 6 36 15 101 20 145 5 44 12 96
15 115 3 19 10 73 16 120 5 47 18 144 29 215 10 72 26 195 35 275 9 80 23 183
30 230 8 47 23 166 35 265 11 99 25 216 32 260 6 44 13 91 14 105 1 14 2 27 3
29 0 2 22 1 49 -3 26 -4 74 -11 107 -16z"/>
<path d="M1284 4264 c-17 -25 -17 -26 19 -59 31 -29 37 -41 37 -75 0 -82 -59
-421 -80 -461 -6 -10 -24 -26 -40 -34 -34 -18 -39 -44 -12 -68 17 -16 48 -22
257 -48 50 -6 131 -17 180 -23 73 -10 100 -9 145 2 30 8 60 18 67 24 7 5 17 6
24 2 7 -4 10 -2 7 7 -3 8 4 18 15 24 24 12 71 99 75 138 5 40 -32 109 -78 146
-22 18 -40 39 -40 48 0 9 20 38 45 64 25 26 46 56 46 66 1 10 3 29 5 43 5 42
-16 88 -49 112 -18 12 -38 28 -45 34 -16 16 -91 31 -217 44 -55 5 -138 16
-185 25 -125 22 -156 20 -176 -11z m391 -127 c32 -27 43 -88 25 -141 -16 -49
-35 -66 -74 -66 -58 0 -61 14 -40 170 9 65 41 79 89 37z m-36 -311 c33 -18 51
-54 51 -106 0 -77 -30 -119 -86 -120 -54 0 -67 26 -61 122 2 46 8 91 12 101 9
21 46 22 84 3z"/>
<path d="M2180 4169 c-30 -3 -63 -9 -72 -13 -23 -10 -24 -64 -3 -73 9 -3 23
-19 31 -36 17 -32 15 -146 -6 -267 -5 -30 -11 -75 -14 -100 -10 -80 -38 -142
-68 -152 -22 -8 -28 -16 -28 -39 0 -25 6 -33 35 -44 76 -33 281 -47 333 -25
41 19 41 42 0 83 -39 39 -39 60 -9 297 6 47 15 103 20 125 5 22 12 55 16 72 6
28 35 68 35 49 0 -4 13 0 29 9 35 18 32 44 -8 68 -55 32 -202 56 -291 46z"/>
<path d="M2588 4099 c-46 -17 -47 -62 -1 -80 44 -16 50 -53 37 -208 -16 -173
-41 -323 -57 -334 -7 -5 -27 -15 -44 -23 -24 -10 -33 -21 -33 -38 0 -30 4 -32
165 -51 203 -23 373 -52 391 -66 16 -12 89 53 104 93 6 18 17 43 22 54 11 24
3 60 -20 87 -24 27 -37 21 -66 -33 -31 -57 -50 -70 -115 -77 -57 -5 -117 18
-127 49 -7 23 -7 104 0 148 2 14 7 54 10 90 11 106 37 254 47 265 6 5 15 10
22 11 33 3 57 18 57 36 0 53 -297 111 -392 77z"/>
<path d="M3298 3997 c-40 -16 -37 -50 7 -75 19 -12 37 -32 41 -47 3 -14 -1
-98 -10 -188 -30 -284 -40 -320 -95 -332 -32 -7 -51 -39 -33 -57 10 -10 142
-29 153 -22 4 2 10 0 14 -6 3 -5 31 -10 61 -10 30 0 54 -4 54 -10 0 -5 20 -10
45 -10 25 0 86 -9 136 -20 50 -11 101 -18 112 -14 44 14 107 115 107 172 0 31
-29 72 -50 72 -6 0 -22 -22 -38 -50 -33 -61 -59 -75 -132 -74 -65 1 -105 22
-115 61 -7 31 2 142 24 288 6 39 12 93 14 121 3 57 16 75 70 95 50 18 49 43
-4 69 -80 41 -295 63 -361 37z"/>
<path d="M1371 3092 c-19 -35 19 -54 54 -28 16 12 17 16 6 30 -18 21 -48 20
-60 -2z"/>
<path d="M1521 3077 c-15 -18 -4 -47 18 -47 26 0 43 16 39 36 -4 23 -40 30
-57 11z"/>
<path d="M1667 3056 c-9 -23 2 -46 22 -46 26 0 43 16 39 36 -4 24 -53 32 -61
10z"/>
<path d="M1814 3028 c-9 -30 20 -52 47 -35 22 14 24 28 7 45 -19 19 -46 14
-54 -10z"/>
<path d="M1964 3015 c-9 -23 3 -45 25 -45 26 0 45 32 29 48 -17 17 -48 15 -54
-3z"/>
<path d="M2117 3003 c-4 -3 -7 -17 -7 -30 0 -18 6 -23 24 -23 25 0 43 30 31
50 -7 11 -38 13 -48 3z"/>
<path d="M2262 2977 c-18 -22 11 -56 35 -41 25 15 23 48 -3 52 -11 2 -26 -3
-32 -11z"/>
<path d="M2410 2955 c-15 -18 -6 -45 13 -45 20 0 40 27 33 45 -7 19 -30 19
-46 0z"/>
<path d="M2550 2920 c0 -23 5 -30 19 -30 24 0 45 25 37 45 -3 8 -17 15 -31 15
-21 0 -25 -5 -25 -30z"/>
<path d="M2704 2915 c-8 -21 2 -45 19 -45 8 0 20 7 27 15 10 12 10 18 0 30 -7
8 -19 15 -27 15 -7 0 -16 -7 -19 -15z"/>
<path d="M2845 2890 c-8 -25 1 -40 23 -40 33 0 45 15 33 39 -15 27 -48 27 -56
1z"/>
<path d="M2995 2869 c-5 -14 -2 -25 6 -30 24 -15 44 -5 44 21 0 34 -40 41 -50
9z"/>
<path d="M3141 2852 c-13 -24 3 -42 37 -42 20 0 23 4 20 28 -4 34 -41 43 -57
14z"/>
<path d="M3286 2834 c-7 -19 10 -44 29 -44 19 0 36 25 29 44 -3 9 -16 16 -29
16 -13 0 -26 -7 -29 -16z"/>
<path d="M3437 2824 c-10 -11 -9 -42 3 -49 20 -12 51 6 48 28 -3 22 -36 35
-51 21z"/>
<path d="M1344 2806 c-10 -26 4 -46 31 -46 23 0 26 4 23 28 -3 31 -44 45 -54
18z"/>
<path d="M1496 2787 c-25 -19 -10 -49 23 -45 29 3 42 35 19 49 -17 12 -21 11
-42 -4z"/>
<path d="M1641 2766 c-6 -7 -9 -21 -5 -30 9 -23 56 -16 60 9 5 32 -34 47 -55
21z"/>
<path d="M1784 2745 c-9 -23 3 -45 24 -45 29 0 48 26 32 45 -7 8 -21 15 -32
15 -10 0 -21 -7 -24 -15z"/>
<path d="M1934 2725 c-4 -8 -3 -22 0 -31 8 -21 50 -14 54 10 6 31 -43 50 -54
21z"/>
<path d="M2092 2711 c-20 -12 -10 -46 12 -46 27 0 46 33 26 45 -18 12 -21 12
-38 1z"/>
<path d="M2231 2678 c-11 -28 -6 -38 18 -38 28 0 46 26 31 45 -18 22 -39 18
-49 -7z"/>
<path d="M2382 2671 c-20 -12 -10 -45 14 -49 29 -4 51 23 34 43 -14 17 -29 19
-48 6z"/>
<path d="M2525 2640 c-8 -26 6 -43 31 -38 13 2 19 12 19 28 0 34 -40 41 -50
10z"/>
<path d="M2671 2622 c-14 -27 2 -46 33 -38 28 7 33 25 14 44 -17 17 -36 15
-47 -6z"/>
<path d="M2820 2605 c-7 -8 -10 -22 -6 -30 7 -20 40 -19 57 1 11 14 10 18 -6
30 -24 18 -30 18 -45 -1z"/>
<path d="M2972 2591 c-21 -13 -10 -46 16 -47 12 -1 22 5 22 12 0 8 5 14 11 14
8 0 8 5 -1 15 -14 17 -29 19 -48 6z"/>
<path d="M3117 2573 c-4 -3 -7 -17 -7 -30 0 -18 5 -23 25 -23 33 0 45 28 20
46 -21 16 -29 17 -38 7z"/>
<path d="M3260 2545 c-15 -18 -6 -45 14 -45 45 0 61 31 27 50 -25 13 -26 13
-41 -5z"/>
<path d="M3410 2530 c-7 -4 -10 -16 -8 -26 5 -28 52 -26 56 2 3 23 -26 38 -48
24z"/>
<path d="M1312 2513 c-13 -26 -4 -43 23 -43 32 0 52 25 35 45 -17 20 -47 19
-58 -2z"/>
<path d="M1461 2497 c-15 -18 -4 -47 18 -47 26 0 43 16 39 36 -4 23 -40 30
-57 11z"/>
<path d="M1612 2478 c-21 -21 -14 -48 12 -48 29 0 49 22 40 44 -7 19 -35 21
-52 4z"/>
<path d="M1754 2455 c-9 -23 3 -45 24 -45 29 0 48 26 32 45 -7 8 -21 15 -32
15 -10 0 -21 -7 -24 -15z"/>
<path d="M1912 2441 c-23 -14 -10 -46 18 -46 20 0 25 5 25 25 0 26 -20 36 -43
21z"/>
<path d="M2052 2413 c-12 -24 -4 -43 18 -43 23 0 44 26 36 45 -7 21 -43 19
-54 -2z"/>
<path d="M2200 2395 c-16 -19 -6 -45 18 -45 29 0 48 26 32 45 -16 19 -34 19
-50 0z"/>
<path d="M2352 2381 c-23 -14 -10 -46 18 -46 20 0 25 5 25 25 0 26 -20 36 -43
21z"/>
<path d="M2497 2363 c-10 -10 -8 -41 3 -48 17 -11 50 5 50 25 0 23 -37 40 -53
23z"/>
<path d="M2636 2334 c-7 -19 10 -44 29 -44 7 0 18 7 25 15 10 12 10 18 0 30
-16 20 -46 19 -54 -1z"/>
<path d="M2790 2315 c-15 -18 -6 -45 14 -45 8 0 22 7 31 16 12 12 13 19 4 30
-15 18 -33 18 -49 -1z"/>
<path d="M2936 2294 c-12 -31 -7 -45 15 -42 31 4 49 35 29 48 -22 14 -37 12
-44 -6z"/>
<path d="M3084 2275 c-7 -17 2 -45 13 -45 4 0 17 7 27 15 16 12 17 17 6 30
-16 19 -39 19 -46 0z"/>
<path d="M3226 2255 c-9 -25 5 -46 28 -43 15 2 22 11 24 31 3 23 0 27 -21 27
-14 0 -27 -7 -31 -15z"/>
<path d="M3375 2230 c-8 -25 1 -40 25 -40 10 0 22 5 25 10 11 17 -6 50 -25 50
-10 0 -21 -9 -25 -20z"/>
<path d="M1277 2226 c-11 -28 4 -47 32 -44 20 2 26 8 26 28 0 20 -6 26 -26 28
-17 2 -29 -3 -32 -12z"/>
<path d="M1427 2214 c-13 -13 -7 -43 11 -53 26 -14 60 13 46 37 -12 18 -45 28
-57 16z"/>
<path d="M1574 2185 c-9 -23 3 -45 24 -45 29 0 48 26 32 45 -7 8 -21 15 -32
15 -10 0 -21 -7 -24 -15z"/>
<path d="M1724 2166 c-10 -26 4 -48 28 -44 17 2 23 10 23 28 0 18 -6 26 -23
28 -13 2 -25 -3 -28 -12z"/>
<path d="M1871 2142 c-12 -22 3 -42 30 -42 23 0 32 15 24 40 -8 25 -41 26 -54
2z"/>
<path d="M2022 2131 c-20 -12 -10 -45 14 -49 29 -4 51 23 34 43 -14 17 -29 19
-48 6z"/>
<path d="M2165 2100 c-8 -26 1 -40 26 -37 31 5 44 23 29 42 -18 21 -47 19 -55
-5z"/>
<path d="M2314 2086 c-10 -26 4 -48 28 -44 17 2 23 10 23 28 0 18 -6 26 -23
28 -13 2 -25 -3 -28 -12z"/>
<path d="M2461 2061 c-13 -23 10 -47 34 -37 22 8 30 36 14 47 -22 14 -37 11
-48 -10z"/>
<path d="M2606 2045 c-8 -22 4 -45 24 -45 10 0 23 7 30 15 15 18 -2 45 -30 45
-10 0 -20 -7 -24 -15z"/>
<path d="M2755 2020 c-8 -25 1 -40 24 -40 28 0 46 26 31 45 -18 21 -48 19 -55
-5z"/>
<path d="M2904 2005 c-8 -21 2 -45 19 -45 20 0 40 27 33 45 -7 19 -45 20 -52
0z"/>
<path d="M3057 1987 c-37 -26 4 -62 43 -37 11 7 12 14 4 27 -14 23 -27 26 -47
10z"/>
<path d="M3200 1965 c-28 -34 15 -61 47 -30 12 12 13 19 3 30 -16 19 -34 19
-50 0z"/>
<path d="M3344 1945 c-9 -23 3 -45 25 -45 24 0 39 39 20 51 -21 13 -39 11 -45
-6z"/>
<path d="M1247 1944 c-11 -12 -8 -41 6 -52 7 -6 21 -6 35 -1 33 12 27 53 -8
57 -14 2 -29 0 -33 -4z"/>
<path d="M1395 1910 c-9 -27 1 -40 30 -40 30 0 39 14 25 40 -14 26 -47 26 -55
0z"/>
<path d="M1544 1895 c-9 -23 3 -45 24 -45 28 0 43 20 31 42 -12 22 -47 24 -55
3z"/>
<path d="M1687 1876 c-9 -23 2 -46 22 -46 26 0 43 16 39 36 -4 24 -53 32 -61
10z"/>
<path d="M1836 1855 c-7 -20 3 -45 19 -45 26 0 45 13 45 30 0 29 -53 42 -64
15z"/>
<path d="M1987 1843 c-13 -13 -7 -42 12 -52 25 -14 54 16 40 42 -10 17 -40 23
-52 10z"/>
<path d="M2137 1823 c-13 -12 -7 -44 8 -50 23 -8 58 26 44 44 -12 14 -41 18
-52 6z"/>
<path d="M2280 1785 c0 -31 26 -43 47 -22 21 21 9 47 -22 47 -20 0 -25 -5 -25
-25z"/>
<path d="M2430 1775 c-10 -12 -10 -18 0 -30 7 -8 17 -15 22 -15 18 0 38 28 32
44 -8 20 -38 21 -54 1z"/>
<path d="M2575 1750 c-8 -25 1 -40 24 -40 28 0 46 26 31 45 -18 21 -48 19 -55
-5z"/>
<path d="M2727 1744 c-10 -10 -9 -42 1 -48 5 -3 19 -2 31 1 15 4 21 12 19 27
-3 21 -37 34 -51 20z"/>
<path d="M2872 1713 c-13 -26 -4 -43 23 -43 24 0 42 30 30 50 -10 16 -44 12
-53 -7z"/>
<path d="M3020 1695 c-16 -19 -6 -45 18 -45 29 0 48 26 32 45 -16 19 -34 19
-50 0z"/>
<path d="M3164 1675 c-10 -25 4 -45 30 -45 26 0 36 14 28 43 -5 21 -50 23 -58
2z"/>
<path d="M3312 1658 c-14 -14 2 -48 22 -48 20 0 37 25 30 44 -7 19 -35 21 -52
4z"/>
<path d="M2294 1236 c-3 -8 -23 -17 -43 -21 -40 -7 -72 -39 -84 -84 -8 -32 16
-87 45 -101 12 -7 33 -22 46 -33 12 -11 22 -17 22 -13 0 4 9 2 20 -4 25 -13
28 -68 4 -77 -19 -7 -36 15 -30 39 2 10 1 20 -3 22 -4 3 -8 -7 -9 -22 -3 -36
-19 -43 -65 -25 -34 14 -40 14 -53 1 -8 -8 -12 -22 -8 -31 7 -20 88 -52 104
-42 9 5 10 1 6 -16 l-6 -24 11 23 c7 12 17 22 23 23 44 3 59 8 80 28 29 28 41
84 26 121 -6 15 -27 36 -46 46 -19 10 -37 27 -40 37 -4 14 -9 15 -19 7 -11 -9
-17 -6 -30 14 -25 37 -12 46 58 42 98 -6 125 25 51 60 -19 9 -34 23 -34 30 0
18 -19 18 -26 0z"/>
<path d="M2485 1171 c-4 -12 3 -35 17 -58 13 -21 31 -55 41 -76 l17 -37 -37
-43 c-21 -23 -53 -57 -71 -74 -21 -20 -32 -39 -28 -48 6 -17 26 -21 26 -5 0 5
4 9 9 7 5 -1 30 19 55 46 25 26 54 47 65 47 13 0 32 -22 60 -70 39 -65 44 -70
69 -64 37 9 37 9 13 40 -11 15 -21 30 -21 35 0 4 -13 30 -28 56 -33 56 -45 93
-29 90 6 -1 16 8 22 21 5 12 13 22 16 22 4 0 22 15 41 34 25 25 32 39 26 50
-15 26 -34 19 -79 -29 -23 -25 -47 -45 -53 -45 -10 0 -26 21 -70 93 -19 31
-52 36 -61 8z"/>
<path d="M2837 1139 c-22 -13 -14 -46 25 -110 36 -59 35 -82 -2 -122 -16 -18
-30 -39 -30 -47 0 -13 -1 -13 -10 0 -8 12 -12 9 -22 -17 -6 -17 -20 -34 -31
-37 -23 -6 -13 -26 12 -26 21 0 74 53 64 65 -5 4 -1 6 9 2 11 -4 18 1 22 16 8
35 50 33 75 -2 12 -16 21 -33 21 -38 0 -4 11 -25 25 -46 20 -28 32 -37 55 -37
29 0 48 14 31 24 -10 7 -69 106 -89 150 -17 40 -6 83 26 104 50 31 75 60 69
76 -12 31 -50 17 -86 -30 -19 -25 -41 -44 -49 -42 -9 2 -27 24 -42 51 -35 64
-51 78 -73 66z"/>
<path d="M3164 1083 c-8 -13 -2 -32 28 -89 21 -39 38 -79 38 -87 0 -8 -18 -34
-40 -56 -22 -22 -40 -44 -40 -48 0 -5 -10 -13 -22 -18 -26 -11 -36 -44 -17
-55 16 -10 48 10 42 26 -2 7 14 25 36 40 23 15 41 33 41 41 0 10 6 13 17 9 9
-4 20 -1 24 6 5 8 10 2 15 -18 5 -22 53 -119 70 -142 1 -2 11 -1 21 2 29 9 22
49 -20 122 -7 12 -18 29 -25 37 -18 21 -23 109 -6 103 7 -3 15 2 18 10 3 8 11
14 17 14 18 0 59 49 59 71 0 34 -32 21 -82 -33 -41 -47 -49 -51 -61 -38 -11
11 -60 96 -62 106 0 1 -9 4 -20 8 -13 4 -24 0 -31 -11z"/>
</g>
</svg>
