<?xml version="1.0" encoding="utf-8"?>
<!-- Svg Vector Icons : http://www.onlinewebfonts.com/icon -->
<!DOCTYPE svg PUBLIC "-//W3C//DTD SVG 1.1//EN" "http://www.w3.org/Graphics/SVG/1.1/DTD/svg11.dtd">
<svg version="1.1" xmlns="http://www.w3.org/2000/svg" xmlns:xlink="http://www.w3.org/1999/xlink" x="0px" y="0px" viewBox="0 0 256 256" enable-background="new 0 0 256 256" xml:space="preserve">
<metadata> Svg Vector Icons : http://www.onlinewebfonts.com/icon </metadata>
<g><g><g><path fill="#000000" d="M33.3,10.3c-1.2,0.2-3,1.3-4,2.5c-1.8,1.9-1.9,6.2-1.9,106.5v104.4l2.8,5.8c3.2,6.5,8.1,11.2,14.8,14.4c4.6,2.1,5.9,2.1,62.4,2.1c56.5,0,57.8,0,62.4-2.1c6.7-3.1,11.5-7.9,14.8-14.4c2.8-5.8,2.8-5.9,3.1-29.9l0.4-24h17.5c17.1,0,17.7-0.1,20.4-2.4l2.8-2.4V141v-29.8l-3-6c-3.4-6.7-10.2-12.7-16.7-14.6c-2.4-0.7-14.3-1.1-33.2-1.1h-29.5L146,52.2c-0.3-37.4-0.3-37.4-2.6-39.7l-2.3-2.3L88.2,10C59.2,9.9,34.4,10,33.3,10.3z M130,122.7c0,89,0.3,100.5,2.5,105.9c0.7,1.7-1.3,1.8-40.9,1.5l-41.6-0.3l-3.2-3.3l-3.3-3.2l-0.3-98.7L43,25.8h43.5H130V122.7L130,122.7z M174.6,105.4c0,0.3-0.6,1.5-1.2,2.7c-1,1.7-1.4,16.2-1.8,58.6l-0.5,56.5l-3.1,3.1c-6,5.9-15.9,4.9-19.9-2.1c-1.5-2.5-1.7-8.4-1.7-61.1v-58.3h14.2C168.2,104.8,174.6,105.1,174.6,105.4z M206,106.3c1.6,0.9,4,3,5,4.9c1.8,2.9,2,5.2,2,25.7v22.6h-12.7h-12.7v-23.2v-23.2l2.7-3.2C194.8,104.7,200.4,103.5,206,106.3z"/><path fill="#000000" d="M84.5,49.5V55l-3.9,0.7c-5.5,0.9-12.8,5.8-14.9,9.8c-2.6,5-3.4,10.8-2.2,16.5c1.5,7.4,6.9,12.1,19.9,17.7c8.1,3.3,10.9,5.1,12.5,7.5c4.1,6.7-0.4,14.8-8.3,14.8c-7.2,0-12.1-4.2-12.1-10.1c0-1.8-0.6-2-7.6-2h-7.6v2.9c0,10,7.9,18.1,20.5,20.8c2.5,0.6,2.7,1,2.7,5.7v5.1h3.9h4l0.3-5.2l0.3-5.3l4.8-1.2c5.7-1.4,11.3-5.6,13.6-9.7c3.6-7.2,2.7-18.3-2.1-24c-2.5-3-13.4-9.2-19.9-11.2c-2.1-0.7-5.2-2.5-6.9-4.1c-2.5-2.3-3-3.6-3-7.3c0-5.9,2.9-8.9,8.7-8.9c5.3,0,8.2,2.1,9.6,7.1l1.2,4h7.5h7.6l-0.7-4.4c-1.4-8.9-8.3-16.3-16.9-18.3c-2.6-0.6-2.8-1-2.8-6.2v-5.6h-4h-4L84.5,49.5L84.5,49.5z"/><path fill="#000000" d="M62.7,166c-2.6,2.5-3.2,6.4-1.5,9.6c1.7,3.2,6.8,4,25.3,4c18.5,0,23.6-0.8,25.3-4c1.7-3.2,1.1-7.1-1.5-9.6c-2.4-2.5-2.4-2.5-23.8-2.5C65.1,163.5,65.1,163.5,62.7,166z"/><path fill="#000000" d="M62.4,195.2c-2.9,3.1-2.9,7.8,0.1,10.6c2.2,2.1,3.1,2.2,24.1,2.2c21.5,0,21.9,0,24-2.3c2.9-3.1,2.9-7.8-0.1-10.6c-2.2-2.1-3.1-2.2-24.1-2.2C64.9,192.9,64.5,192.9,62.4,195.2z"/></g></g></g>
</svg>