<?xml version="1.0" encoding="utf-8"?>
<!-- Svg Vector Icons : http://www.onlinewebfonts.com/icon -->
<!DOCTYPE svg PUBLIC "-//W3C//DTD SVG 1.1//EN" "http://www.w3.org/Graphics/SVG/1.1/DTD/svg11.dtd">
<svg version="1.1" xmlns="http://www.w3.org/2000/svg" xmlns:xlink="http://www.w3.org/1999/xlink" x="0px" y="0px" viewBox="0 0 256 256" enable-background="new 0 0 256 256" xml:space="preserve">
<metadata> Svg Vector Icons : http://www.onlinewebfonts.com/icon </metadata>
<g><g><g><path fill="#000000" d="M128.3,10.5c-0.1,0.3-0.2,8.5-0.1,18.3l0.1,17.8l14.7,0.1l14.6,0.1v11.1V69h-30.5H96.7V58.2c0-9.9-0.1-10.8-0.9-12.2c-1.8-2.9-1.8-2.9-25.7-2.9c-23.7,0-22.9-0.1-24.4,2.8c-0.6,1.1-0.7,3.5-0.7,12.2V69h-7.5c-8.2,0-10.1,0.5-12.2,2.8c-2.4,2.7-2.4,2.7-2.4,28.5v23.9l-1.6,10.3c-0.9,5.7-3.8,24.1-6.5,41L10,206.2v15.9c0,9.8,0.2,16.6,0.5,17.7c0.6,2.1,3.1,5.1,4.9,5.8c0.9,0.4,30.8,0.5,112.7,0.4l111.4-0.1l1.9-1.3c1.1-0.7,2.5-2.1,3.2-3.2l1.3-1.9l0-15.5v-15.5l-6.3-40.8l-6.3-40.8v-25c0-21.7-0.1-25.3-0.7-26.8c-1-2.4-2.4-3.8-5.1-5l-2.3-1.1h-23.6h-23.7V57.9V46.8h14.7c12.5,0,14.8-0.1,15.7-0.7l1-0.7v-17c0-15.9,0-17-0.8-17.7c-0.8-0.7-4.2-0.8-40.4-0.8C136.8,9.9,128.5,10.1,128.3,10.5z M200.1,28.4v9.2h-32.3h-32.3v-9.2v-9.2h32.3h32.3L200.1,28.4L200.1,28.4z M85.7,73.6V93H70.9H56.1V73.6V54.2h14.8h14.8V73.6z M223.5,78.8c0.8,0.8,0.8,36.9,0,37.7s-108.8,0.8-109.6,0c-0.8-0.8-0.8-36.9,0-37.7C114.7,78,222.7,78,223.5,78.8z M53.7,139.7c0.8,0.8,0.8,11,0,11.8s-11,0.8-11.8,0s-0.8-11,0-11.8c0.4-0.4,2.4-0.6,5.9-0.6C51.4,139.1,53.4,139.3,53.7,139.7z M72.2,139.7c0.8,0.8,0.8,11,0,11.8s-11,0.8-11.8,0s-0.8-11,0-11.8c0.4-0.4,2.4-0.6,5.9-0.6C69.8,139.1,71.8,139.3,72.2,139.7z M90.6,139.7c0.8,0.8,0.8,11,0,11.8s-11,0.8-11.8,0c-0.4-0.4-0.6-2.4-0.6-5.9c0-3.6,0.2-5.5,0.6-5.9c0.4-0.4,2.4-0.6,5.9-0.6C88.3,139.1,90.3,139.3,90.6,139.7z M120.2,139.7c0.8,0.8,0.8,11,0,11.8c-0.8,0.8-11,0.8-11.8,0c-0.4-0.4-0.6-2.4-0.6-5.9c0-3.6,0.2-5.5,0.6-5.9s2.4-0.6,5.9-0.6C117.8,139.1,119.8,139.3,120.2,139.7z M138.6,139.7c0.8,0.8,0.8,11,0,11.8s-11,0.8-11.8,0c-0.4-0.4-0.6-2.4-0.6-5.9c0-3.6,0.2-5.5,0.6-5.9c0.4-0.4,2.4-0.6,5.9-0.6C136.3,139.1,138.3,139.3,138.6,139.7z M157.1,139.7c0.8,0.8,0.8,11,0,11.8s-11,0.8-11.8,0s-0.8-11,0-11.8c0.4-0.4,2.4-0.6,5.9-0.6C154.7,139.1,156.7,139.3,157.1,139.7z M175.5,139.7c0.8,0.8,0.8,11,0,11.8s-11,0.8-11.8,0s-0.8-11,0-11.8c0.4-0.4,2.4-0.6,5.9-0.6S175.2,139.3,175.5,139.7z M194,139.7c0.8,0.8,0.8,11,0,11.8c-0.8,0.8-11,0.8-11.8,0s-0.8-11,0-11.8c0.4-0.4,2.4-0.6,5.9-0.6C191.6,139.1,193.6,139.3,194,139.7z M212.5,139.7c0.8,0.8,0.8,11,0,11.8c-0.8,0.8-11,0.8-11.8,0s-0.8-11,0-11.8c0.4-0.4,2.4-0.6,5.9-0.6C210.1,139.1,212.1,139.3,212.5,139.7z M53.7,158.1c0.8,0.8,0.8,11,0,11.8s-11,0.8-11.8,0s-0.8-11,0-11.8c0.4-0.4,2.4-0.6,5.9-0.6C51.4,157.6,53.4,157.7,53.7,158.1z M72.2,158.1c0.8,0.8,0.8,11,0,11.8s-11,0.8-11.8,0s-0.8-11,0-11.8c0.4-0.4,2.4-0.6,5.9-0.6C69.8,157.6,71.8,157.7,72.2,158.1z M90.6,158.1c0.8,0.8,0.8,11,0,11.8s-11,0.8-11.8,0c-0.4-0.4-0.6-2.4-0.6-5.9s0.2-5.5,0.6-5.9c0.4-0.4,2.4-0.6,5.9-0.6C88.3,157.6,90.3,157.7,90.6,158.1z M120.2,158.1c0.8,0.8,0.8,11,0,11.8c-0.8,0.8-11,0.8-11.8,0c-0.4-0.4-0.6-2.4-0.6-5.9s0.2-5.5,0.6-5.9c0.4-0.4,2.4-0.6,5.9-0.6C117.8,157.6,119.8,157.7,120.2,158.1z M138.6,158.1c0.8,0.8,0.8,11,0,11.8s-11,0.8-11.8,0c-0.4-0.4-0.6-2.4-0.6-5.9s0.2-5.5,0.6-5.9c0.4-0.4,2.4-0.6,5.9-0.6C136.3,157.6,138.3,157.7,138.6,158.1z M157.1,158.1c0.8,0.8,0.8,11,0,11.8s-11,0.8-11.8,0s-0.8-11,0-11.8c0.4-0.4,2.4-0.6,5.9-0.6C154.7,157.6,156.7,157.7,157.1,158.1z M175.5,158.1c0.8,0.8,0.8,11,0,11.8s-11,0.8-11.8,0s-0.8-11,0-11.8c0.4-0.4,2.4-0.6,5.9-0.6S175.2,157.7,175.5,158.1z M194,158.1c0.8,0.8,0.8,11,0,11.8c-0.8,0.8-11,0.8-11.8,0s-0.8-11,0-11.8c0.4-0.4,2.4-0.6,5.9-0.6C191.6,157.6,193.6,157.7,194,158.1z M212.5,158.1c0.8,0.8,0.8,11,0,11.8c-0.8,0.8-11,0.8-11.8,0s-0.8-11,0-11.8c0.4-0.4,2.4-0.6,5.9-0.6C210.1,157.6,212.1,157.7,212.5,158.1z M53.7,176.6c0.8,0.8,0.8,11,0,11.8s-11,0.8-11.8,0s-0.8-11,0-11.8c0.4-0.4,2.4-0.6,5.9-0.6C51.4,176,53.4,176.2,53.7,176.6z M72.2,176.6c0.8,0.8,0.8,11,0,11.8s-11,0.8-11.8,0s-0.8-11,0-11.8c0.4-0.4,2.4-0.6,5.9-0.6C69.8,176,71.8,176.2,72.2,176.6z M90.6,176.6c0.8,0.8,0.8,11,0,11.8s-11,0.8-11.8,0c-0.4-0.4-0.6-2.4-0.6-5.9s0.2-5.5,0.6-5.9c0.4-0.4,2.4-0.6,5.9-0.6C88.3,176,90.3,176.2,90.6,176.6z M120.2,176.6c0.8,0.8,0.8,11,0,11.8c-0.8,0.8-11,0.8-11.8,0c-0.4-0.4-0.6-2.4-0.6-5.9s0.2-5.5,0.6-5.9c0.4-0.4,2.4-0.6,5.9-0.6C117.8,176,119.8,176.2,120.2,176.6z M138.6,176.6c0.8,0.8,0.8,11,0,11.8s-11,0.8-11.8,0c-0.4-0.4-0.6-2.4-0.6-5.9s0.2-5.5,0.6-5.9c0.4-0.4,2.4-0.6,5.9-0.6C136.3,176,138.3,176.2,138.6,176.6z M157.1,176.6c0.8,0.8,0.8,11,0,11.8s-11,0.8-11.8,0s-0.8-11,0-11.8c0.4-0.4,2.4-0.6,5.9-0.6C154.7,176,156.7,176.2,157.1,176.6z M175.5,176.6c0.8,0.8,0.8,11,0,11.8s-11,0.8-11.8,0s-0.8-11,0-11.8c0.4-0.4,2.4-0.6,5.9-0.6S175.2,176.2,175.5,176.6z M194,176.6c0.8,0.8,0.8,11,0,11.8c-0.8,0.8-11,0.8-11.8,0s-0.8-11,0-11.8c0.4-0.4,2.4-0.6,5.9-0.6C191.6,176,193.6,176.2,194,176.6z M212.5,176.6c0.8,0.8,0.8,11,0,11.8c-0.8,0.8-11,0.8-11.8,0s-0.8-11,0-11.8c0.4-0.4,2.4-0.6,5.9-0.6C210.1,176,212.1,176.2,212.5,176.6z M156.3,214c1.1,0.6,2.7,2,3.4,3c1.3,1.8,1.4,2.3,1.4,6c0,3.6-0.1,4.2-1.2,5.9c-0.7,1-2,2.4-3,3l-1.8,1.1H128h-27l-2-1.4c-3.6-2.5-5-7.3-3.6-12.4c0.6-2.2,3.6-5.2,5.6-5.8c0.9-0.2,12.6-0.5,27.4-0.5l25.9,0L156.3,214z"/></g></g></g>
</svg>