<?xml version="1.0" encoding="utf-8"?>
<!-- Svg Vector Icons : http://www.onlinewebfonts.com/icon -->
<!DOCTYPE svg PUBLIC "-//W3C//DTD SVG 1.1//EN" "http://www.w3.org/Graphics/SVG/1.1/DTD/svg11.dtd">
<svg version="1.1" xmlns="http://www.w3.org/2000/svg" xmlns:xlink="http://www.w3.org/1999/xlink" x="0px" y="0px" viewBox="0 0 256 256" enable-background="new 0 0 256 256" xml:space="preserve">
<metadata> Svg Vector Icons : http://www.onlinewebfonts.com/icon </metadata>
<g><g><path fill="#000000" d="M228.8,236.3v-80.6c0-12.3-10-22.3-22.3-22.3h-5.1V85.5c0-12.3-10-22.3-22.3-22.3h-48.6V40.7h24.7v-8.9h-24.7v-21h-8.9v21h-25v8.9h25v22.5H77.4c-12.3,0-22.3,10-22.3,22.3v47.9h-5.5c-12.3,0-22.3,10-22.3,22.3v80.5H10v8.9h236v-8.9L228.8,236.3L228.8,236.3z M206.5,142.4c7.4,0,13.4,6,13.4,13.4v80.5h-18.5v-93.9H206.5z M155.8,93.7h14.9v14.9h-14.9V93.7z M155.8,128.9h14.9v14.9h-14.9V128.9z M155.8,164.6h14.9v14.9h-14.9V164.6z M120.6,93.7h14.9v14.9h-14.9V93.7z M120.6,128.9h14.9v14.9h-14.9V128.9z M120.6,164.6h14.9v14.9h-14.9V164.6z M85.1,93.7H100v14.9H85.1V93.7z M85.1,128.9H100v14.9H85.1V128.9z M85.1,164.6H100v14.9H85.1V164.6z M36.1,155.8c0-7.4,6-13.4,13.4-13.4H55v93.9H36.1V155.8z"/></g></g>
</svg>