<?xml version="1.0" encoding="utf-8"?>
<!-- Svg Vector Icons : http://www.onlinewebfonts.com/icon -->
<!DOCTYPE svg PUBLIC "-//W3C//DTD SVG 1.1//EN" "http://www.w3.org/Graphics/SVG/1.1/DTD/svg11.dtd">
<svg version="1.1" xmlns="http://www.w3.org/2000/svg" xmlns:xlink="http://www.w3.org/1999/xlink" x="0px" y="0px" viewBox="0 0 256 256" enable-background="new 0 0 256 256" xml:space="preserve">
<metadata> Svg Vector Icons : http://www.onlinewebfonts.com/icon </metadata>
<g><g><g><path fill="#000000" d="M84.5,10.4c-20.3,3.2-36.4,18.4-40.6,38.5c-1.1,5-1.1,14.4,0,19.4c4,18.6,17.4,32.6,35.9,37.7c3.2,0.9,4.9,1,11.8,1.1c7.3,0,8.5-0.1,12.4-1.2c5.7-1.6,9.9-3.5,14.6-6.6c16.8-11.1,25-31.7,20.5-51.2c-2.1-8.9-5.9-16-12.2-22.7c-9.2-9.6-20.4-14.7-33.6-15C89.9,10,86,10.1,84.5,10.4z"/><path fill="#000000" d="M62.1,114.6c-22.6,2-41.8,17.4-49.1,39.2c-3,8.8-3,9.6-3,53v39.1h16.4h16.4v-39V168h5.1h5.1V207v39h39.6h39.6v-9.6v-9.6l-24-23.6l-24-23.7l29.5-29.5l29.6-29.6l-3.6-1.5c-4.9-2-11.3-3.6-17.1-4.1C116.8,114,68.4,114,62.1,114.6z"/><path fill="#000000" d="M128.3,147.6l-31.7,31.7l31.9,31.5l31.8,31.5v-18.7v-18.7h42.9H246v-25.8v-25.8h-42.9h-42.9l-0.1-18.7l-0.1-18.7L128.3,147.6z"/></g></g></g>
</svg>