<?xml version="1.0" encoding="utf-8"?>
<!-- Svg Vector Icons : http://www.onlinewebfonts.com/icon -->
<!DOCTYPE svg PUBLIC "-//W3C//DTD SVG 1.1//EN" "http://www.w3.org/Graphics/SVG/1.1/DTD/svg11.dtd">
<svg version="1.1" xmlns="http://www.w3.org/2000/svg" xmlns:xlink="http://www.w3.org/1999/xlink" x="0px" y="0px" viewBox="0 0 256 256" enable-background="new 0 0 256 256" xml:space="preserve">
<metadata> Svg Vector Icons : http://www.onlinewebfonts.com/icon </metadata>
<g><g><path fill="#000000" d="M227.1,10H28.9C18.5,10,10,18.5,10,28.9v198.2c0,10.4,8.5,18.9,18.9,18.9h198.2c10.4,0,18.9-8.5,18.9-18.9V28.9C246,18.5,237.5,10,227.1,10z M61.9,57.2h70.8v7.1H61.9V57.2z M38.3,73.7h94.4v7.1H38.3V73.7L38.3,73.7z M38.3,89.8h94.4v7.1H38.3V89.8L38.3,89.8z M38.3,126.1h94.4v7.1H38.3V126.1L38.3,126.1z M38.3,142.6h94.4v7.1H38.3V142.6L38.3,142.6z M38.3,158.7h94.4v7.1H38.3V158.7L38.3,158.7z M156.3,198.8h-118v-7.1h118V198.8z M217.7,147.4c-1.1,15.4-10.4,23.6-27.8,24.7v8.3h-9v-8.5c-15.3-1.8-24.4-10.5-27.4-26.1l13.4-3.8c1.1,12.3,8,18.3,20.5,18c10.9,0,16.4-4.3,16.4-13c1.4-6.1-4.9-10.8-18.9-13.8c-20.1-4.2-29.6-12.4-28.5-24.8c0.8-14.4,8.9-22.4,24.4-24.1V76h9v8.3c14.4,1.4,23,9.3,25.7,23.7l-13.4,3.8c-2-10.3-7.5-15.4-16.8-15.1c-10.1,0.3-15.2,4.2-15.5,11.8c-0.6,5,5.2,9,17.2,11.8C208,124.4,218.2,133.5,217.7,147.4z"/></g></g>
</svg>