<?xml version="1.0" encoding="utf-8"?>
<!-- Svg Vector Icons : http://www.onlinewebfonts.com/icon -->
<!DOCTYPE svg PUBLIC "-//W3C//DTD SVG 1.1//EN" "http://www.w3.org/Graphics/SVG/1.1/DTD/svg11.dtd">
<svg version="1.1" xmlns="http://www.w3.org/2000/svg" xmlns:xlink="http://www.w3.org/1999/xlink" x="0px" y="0px" viewBox="0 0 256 256" enable-background="new 0 0 256 256" xml:space="preserve">
<metadata> Svg Vector Icons : http://www.onlinewebfonts.com/icon </metadata>
<g><g><g><path fill="#000000" d="M76.4,10.2c-2.4,0.6-4.8,2.3-6.1,4.6L69.1,17l-0.1,40.7l-0.1,40.7h4.9h4.8V59V19.5h78.9h78.9v83.7v83.7l-19,0.1l-19.1,0.1l-2.6,1.3c-3,1.5-6.1,4.6-7.5,7.6c-1,2.1-1,2.8-1.2,21.2l-0.1,19.1h-59H68.8l0.3,1.5c0.6,2.7,2.4,5.3,4.8,6.6l2.2,1.3l60.2,0.1l60.2,0.1l24.8-24.8l24.8-24.8l-0.1-89.7L245.8,17l-1.3-2.2c-0.8-1.4-2-2.6-3.5-3.5l-2.2-1.3L158.4,10C114.1,10,77.2,10.1,76.4,10.2z"/><path fill="#000000" d="M216.5,68.9v29.5h4.8h4.8V68.9V39.4h-4.8h-4.8V68.9z"/><path fill="#000000" d="M110.1,40.7c-10.3,3-18.3,11.3-20.7,21.8l-0.3,1.3h12h12v-12c0-6.6,0-12-0.1-11.9C113,39.9,111.7,40.2,110.1,40.7z"/><path fill="#000000" d="M123.3,53.6v13.2l9.4,9.4l9.4,9.4l1.3-2c3.5-5.4,4.8-14.6,3.2-21.4c-2.3-9.5-9.7-17.8-19-21C122.9,39.5,123.3,38.4,123.3,53.6z"/><path fill="#000000" d="M197.1,74v24.4h4.6h4.6V74V49.5h-4.6h-4.6L197.1,74L197.1,74z"/><path fill="#000000" d="M177.3,83.6v14.8h4.8h4.8V83.6V68.9h-4.8h-4.8L177.3,83.6L177.3,83.6z"/><path fill="#000000" d="M89.2,74.1c0,0.1,0.5,1.9,1.2,3.9c1.3,4.2,4.7,9.6,7.7,12.3c9.5,8.6,23.2,10.3,34.1,4.3c1.4-0.8,2.6-1.5,2.8-1.6c0.1-0.1-4.1-4.4-9.2-9.6l-9.5-9.5h-13.5C95.2,74,89.2,74,89.2,74.1z"/><path fill="#000000" d="M157.4,88.7v9.7h4.8h4.8v-9.7V79h-4.8h-4.8V88.7z"/><path fill="#000000" d="M58.5,109.3c-13.5,2.4-26.2,9.8-34.8,20.3c-13.2,16-17.2,37-10.6,56.6c3,8.9,7.2,15.6,14.4,22.7c8.8,8.7,17.8,13.6,29.9,16.2c5.4,1.2,17.5,1.2,23,0c7.7-1.7,15.1-4.8,21.7-9.2c4.9-3.3,13.5-12.1,16.6-17.1c13.6-22.1,11.8-49.5-4.6-69.2c-8.9-10.7-21.4-17.9-35.2-20.3C73.7,108.4,63.5,108.4,58.5,109.3z M81.1,179.1l-21,21l-12.2-12.2l-12.2-12.2l7-7l7.1-7.1l5.2,5.2l5.2,5.2l14-14L88,144.1l7,7l7.1,7.1L81.1,179.1z"/><path fill="#000000" d="M147.7,132.8v4.8H187h39.2v-4.8v-4.8H187h-39.2V132.8z"/><path fill="#000000" d="M147.7,152.6v4.8H187h39.2v-4.8v-4.8H187h-39.2V152.6z"/><path fill="#000000" d="M147.7,172.2v4.6H187h39.2v-4.6v-4.6H187h-39.2V172.2z"/></g></g></g>
</svg>