<?xml version="1.0" encoding="utf-8"?>
<!-- Svg Vector Icons : http://www.onlinewebfonts.com/icon -->
<!DOCTYPE svg PUBLIC "-//W3C//DTD SVG 1.1//EN" "http://www.w3.org/Graphics/SVG/1.1/DTD/svg11.dtd">
<svg version="1.1" xmlns="http://www.w3.org/2000/svg" xmlns:xlink="http://www.w3.org/1999/xlink" x="0px" y="0px" viewBox="0 0 256 256" enable-background="new 0 0 256 256" xml:space="preserve">
<metadata> Svg Vector Icons : http://www.onlinewebfonts.com/icon </metadata>
<g><g><g><path fill="#000000" d="M104.1,10.5c-5,0.8-9,3.3-11.1,6.8l-1.4,2.3l-0.1,36.6l-0.1,36.6h-3.8c-2,0-4.2-0.2-4.7-0.5c-1.7-0.9-2-3.2-2-16.8V62.3l-5,0.2c-4.3,0.2-5.4,0.4-8.1,1.8c-4,1.9-7.7,5.9-9.3,9.9l-1.1,2.8v77.6c0,73.8,0.1,77.8,0.9,80.2c1.3,3.6,4.6,7.2,8.7,9.2l3.3,1.6l56.3,0.1c55.3,0.1,56.4,0.1,59.5-0.9c3.8-1.1,7.3-3.6,9.4-6.5c3.2-4.4,3,0.5,2.9-84.5l-0.1-77.3l-1.6-3.3c-3.2-6.4-9.2-10.3-16.8-10.8l-4.2-0.2v13.7v13.8l-1.4,1.4c-1.3,1.3-1.8,1.4-4.5,1.4h-3v-36c0-25.6-0.1-36.6-0.5-38c-1.3-4.4-5.7-7.5-11.7-8.4C150.6,9.9,107.6,9.9,104.1,10.5z M155.1,16.3c1.7,0.3,2.8,0.8,3.6,1.7l1.1,1.3v36.7v36.7h-19.3h-19.4V54.7c0-21,0.1-38.3,0.3-38.4C122,15.7,152.2,15.9,155.1,16.3z M107.3,54.6v38.2h-4.5h-4.5V56.6c0-32.4,0.1-36.2,0.8-37.3c1.3-1.8,3.7-3,6.1-3h2.1V54.6L107.3,54.6z M183.1,110.7c0.8,0.8,0.8,14.8,0,15.7c-0.4,0.4-13.4,0.6-55.4,0.6c-50.3,0-54.9,0-55.7-0.8c-0.8-0.7-0.9-1.6-0.9-7.5c0-5.6,0.1-6.9,0.8-7.6c0.7-0.8,3.1-0.9,55.7-0.9C169.7,110.1,182.7,110.3,183.1,110.7z M92.6,144.6c3.7,1.5,6.3,6.2,5.6,9.9c-0.6,3.5-4.1,6.9-7.6,7.6c-5.6,1-11.4-4.8-10.4-10.5C81.1,145.9,87.4,142.4,92.6,144.6z M131.5,144.6c2.5,1,3.6,2.1,4.7,4.5c3.2,7-3.1,14.7-10.3,12.7c-6.7-1.8-9.1-9.5-4.5-14.8C124,143.9,127.7,143.1,131.5,144.6z M170.6,144.8c3.9,1.7,5.6,5.1,5.1,9.8c-0.4,4.4-4,7.3-8.8,7.3c-9.5,0.1-12.4-13.2-3.7-17.1C165.7,143.7,168,143.6,170.6,144.8z M94.7,178.3c4.8,3.7,4.8,10.8-0.1,14.5c-1.6,1.2-2.2,1.4-5.4,1.4c-3.1,0-3.8-0.1-5.4-1.4c-3.5-2.6-4.6-7.1-2.8-11c1.7-3.7,4.5-5.3,8.8-5.1C92.2,176.9,93.2,177.2,94.7,178.3z M132.1,177.5c0.9,0.4,2.4,1.7,3.2,2.7c1.4,1.7,1.5,2.3,1.5,5.3c0,3-0.2,3.6-1.5,5.3c-2,2.4-4.3,3.6-7.3,3.6c-2.7,0-6.1-1.6-7.4-3.6c-3-4.6-1.5-10.8,3-13.2C125.9,176.4,129.8,176.3,132.1,177.5z M171.5,177.8c5.8,3.4,5.7,12.3-0.1,15.6c-2.3,1.3-6.4,1.5-8.4,0.4c-8.5-4.5-5.7-17.2,3.8-17.2C168.7,176.6,170.1,176.9,171.5,177.8z M92.7,209.8c8.6,3.9,6.6,16.4-2.7,17.3c-6.3,0.6-11.4-5.7-9.4-11.5c1.2-3.7,5.2-6.7,8.7-6.7C90,208.9,91.6,209.3,92.7,209.8z M130.7,209.4c5.4,1.8,7.8,7.4,5.5,12.6c-3.9,8.6-17.2,5.5-17.1-4c0.1-4.1,2.2-7.1,6-8.4C127.4,208.7,128.5,208.7,130.7,209.4z M171.3,210.1c2.4,1.2,4.1,3.9,4.4,6.9c0.3,3.4,0,4.8-1.7,6.7c-2.7,3.2-7.1,4.2-10.9,2.5c-3-1.4-4.8-4-5.1-7.4c-0.3-4.5,2.1-8.2,6.3-9.5C166,208.8,169.5,209.1,171.3,210.1z"/></g></g></g>
</svg>