<?xml version="1.0" encoding="utf-8"?>
<!-- Svg Vector Icons : http://www.onlinewebfonts.com/icon -->
<!DOCTYPE svg PUBLIC "-//W3C//DTD SVG 1.1//EN" "http://www.w3.org/Graphics/SVG/1.1/DTD/svg11.dtd">
<svg version="1.1" xmlns="http://www.w3.org/2000/svg" xmlns:xlink="http://www.w3.org/1999/xlink" x="0px" y="0px" viewBox="0 0 256 256" enable-background="new 0 0 256 256" xml:space="preserve">
<metadata> Svg Vector Icons : http://www.onlinewebfonts.com/icon </metadata>
<g><g><g><path fill="#000000" d="M178.6,25.1c-10.6,0.8-21.1,4.5-30.5,10.8c-4.4,3-13.4,12-16.4,16.5c-4.6,7-7.8,14.5-9.5,22.7c-1.3,6.1-1.4,17-0.3,23.3c4.3,23.4,21.8,42.8,44.5,49.2c14.7,4.2,30.7,2.8,44.3-3.9c6.8-3.4,12.3-7.3,17.7-12.9c10.8-11.3,16.7-24.8,17.5-40.2c1.6-29.7-18.6-56.8-47.5-63.8c-2.6-0.6-6.4-1.2-8.5-1.4c-2-0.1-4.4-0.3-5.3-0.4C183.7,24.9,181,24.9,178.6,25.1z M191.6,40.1c30.6,5.4,48.2,37.7,36,66.4c-7.6,17.9-26.9,30-46.2,28.8c-17.8-1-33-10.9-40.6-26.4c-3.5-7-4.7-11.6-4.9-19.3c-0.3-7.1,0.2-11.5,2-17C145.2,49.9,168.3,36,191.6,40.1z"/><path fill="#000000" d="M180.8,55c-0.6,0.6-0.8,1.7-0.8,4c0,2.5-0.1,3.1-0.8,3.3c-0.5,0.1-2.1,0.9-3.7,1.6c-4.9,2.4-7.5,6.5-7.5,12.1c0,6.3,3.6,10.2,12.7,14c2.3,1,5,2.4,6.1,3.1c5.5,3.8,3.6,10.5-3.3,11.6c-2.3,0.4-6.2-0.4-9.8-1.8c-2.3-0.9-3.1-1-3.8-0.6c-1.1,0.6-2.8,4.9-2.4,6.2c0.3,1.1,2.4,2,7.7,3.3l4.2,1l0.1,3.2c0.1,3.7,1,4.8,3.8,4.8c2.9,0,3.6-1.1,3.8-5l0.1-3.4l2.4-0.8c6.4-2.2,10.1-7.2,10.1-13.7c0-7.4-3.7-11.4-14.6-15.9c-4.1-1.7-7.2-4.1-7.6-6c-0.4-1.9,0.8-4.4,2.6-5.5c2.3-1.2,7.2-1.1,11,0.3c1.7,0.6,3.4,1,3.8,0.8c1-0.4,2.5-3.8,2.6-5.5c0-1.6-0.7-1.9-5.9-3.3l-4-1l-0.1-3c-0.2-3.8-0.9-4.6-3.8-4.6C182.2,54.2,181.3,54.5,180.8,55z"/><path fill="#000000" d="M114.4,156.1c-8.9,0.9-15.7,1.8-24.2,3.1c-7.8,1.2-10.3,1.8-10.9,2.4c-0.7,0.8-1,4-2.8,31.7c-2.1,32.7-2.1,32.2,0.1,32.2c0.5,0,2.4-1.2,4.2-2.5c3.6-2.8,7.3-4.4,9.9-4.4c0.9,0,6.6,0.9,12.7,2.1c33,6.2,62.3,10.4,72.3,10.4c4.6,0,5.6-0.1,9.1-1.4c14.9-5.4,50.4-26.1,56.7-33.2c2-2.2,3.8-5.6,4.2-8c0.7-3.7-1.8-8.1-5.1-9.2c-2.6-0.8-5-0.2-11.5,3c-14,7.1-31.4,12.7-46,14.8c-16.1,2.4-42.9-3.2-46.1-9.5c-1-2-0.1-2.1,6.5-1c16.2,2.9,17.6,3,25.3,3c6.7,0,8-0.1,10.9-1c5.8-1.8,9-5.2,9-9.4c0-2.2-1.3-5-2.8-6c-0.6-0.3-3.9-1.5-7.3-2.6c-3.4-1.1-10.6-3.3-15.9-5C136.4,157.7,124,155.1,114.4,156.1z"/><path fill="#000000" d="M19.9,158.5c-3.5,1.6-3.2,0.3-7,34.6c-3.7,33.5-3.7,33.1-1.3,34.2c0.8,0.4,7.6,0.5,22.5,0.5c20,0,21.4,0,22.8-0.9c0.8-0.5,1.7-1.5,1.9-2.2c0.3-0.7,1.6-14.7,2.8-31.1c2.1-27.2,2.2-29.9,1.6-31.3c-1.2-2.6-2.1-2.7-20.7-3.6c-9.4-0.4-17.9-0.9-18.9-1C22.4,157.8,21.1,158,19.9,158.5z M40.7,200.2c2.7,0.7,6,4.3,6.7,7.3c0.9,3.6,0,6.6-2.8,9.3c-4.1,4.2-9.7,4.2-13.9,0c-4.2-4.1-4.3-9.5-0.3-13.8C33.4,200.1,36.7,199.1,40.7,200.2z"/></g></g></g>
</svg>