<?xml version="1.0" encoding="utf-8"?>
<!-- Svg Vector Icons : http://www.onlinewebfonts.com/icon -->
<!DOCTYPE svg PUBLIC "-//W3C//DTD SVG 1.1//EN" "http://www.w3.org/Graphics/SVG/1.1/DTD/svg11.dtd">
<svg version="1.1" xmlns="http://www.w3.org/2000/svg" xmlns:xlink="http://www.w3.org/1999/xlink" x="0px" y="0px" viewBox="0 0 256 256" enable-background="new 0 0 256 256" xml:space="preserve">
<metadata> Svg Vector Icons : http://www.onlinewebfonts.com/icon </metadata>
<g><g><path fill="#000000" d="M131.8,30.1c0-3.5,1.4-5.9,4.4-7.4c6-3,12-2.7,17.8,0.7c2.4,1.4,3.7,3.6,4,6.6c1.6,18.1,3.4,36.2,5.1,54.3c0.1,1.5,0.3,3,0.4,4.5c0.5,5.2-2,8.8-6.5,11c-6.2,3-12.4,2.7-18.3-0.7c-4.3-2.5-6.5-6.2-6.4-11.3c0.1-9.6,0-19.2,0-28.8C132.2,58.9,131.9,39.7,131.8,30.1z"/><path fill="#000000" d="M122.9,59.2c0,9.9,0,19.8,0,29.8c0,4-2,7.1-5.2,9.3c-5.9,4-12.3,4.6-18.9,1.8c-5.4-2.3-7.6-6.7-7-12.6c1-8.9,1.8-17.8,2.7-26.8c1-10.3,2.1-20.7,3.1-31c0.3-2.8,1.7-4.9,4-6.3c5.7-3.3,11.6-3.6,17.6-0.8c3.1,1.5,4.6,3.9,4.6,7.6C123.7,39.8,123.2,59.2,122.9,59.2z"/><path fill="#000000" d="M233.5,101.7c-5.1-0.1-9.5-1.6-13.4-4.6c-2.9-2.2-4.8-5.1-5.6-8.7c-4.5-19.6-9.1-39.2-13.7-58.7c-0.8-3.3,0.2-5.4,3.1-7.1c6-3.5,16.9-1.6,21.3,3.8c0.9,1.1,1.4,2.3,1.8,3.6c6.1,19.2,12.2,38.5,18.3,57.7c2.5,7.7-1.2,13.2-9.3,14C235.1,101.6,234.2,101.6,233.5,101.7z"/><path fill="#000000" d="M22.6,101.6c-1.7,0.1-3.3-0.1-4.9-0.5c-6.4-1.6-9.1-6.5-7.1-12.7c4.7-14.7,9.4-29.3,14.1-44c1.3-4.2,2.7-8.4,4-12.5c2.3-7,7.2-10.7,14.6-11.1c3.1-0.1,6.1,0.1,8.9,1.6c3,1.7,4.1,4,3.3,7.3C51,49.1,46.4,68.5,41.9,88c-1.8,7.6-7.3,11.1-14.3,13.1C25.9,101.5,24.3,101.7,22.6,101.6z"/><path fill="#000000" d="M191.4,101.6c-3.9,0.1-7.5-0.9-10.7-3c-3.8-2.4-6.3-5.7-6.8-10.5c-2.3-19.7-4.8-39.3-7.3-59c-0.3-2.7,0.9-4.6,2.9-6c5.7-4.1,17-2.7,21.5,2.6c0.9,1.1,1.5,2.2,1.7,3.6c4.1,19.8,8.2,39.5,12.3,59.3c1.4,6.7-3.5,12.3-11.3,12.9C192.9,101.6,192.1,101.6,191.4,101.6z"/><path fill="#000000" d="M64.6,101.6c-2.9,0.1-5.5-0.5-7.9-1.7c-4.6-2.2-6.6-6.4-5.6-11.3c4.1-19.5,8.2-39.1,12.3-58.6c0.6-2.9,2.1-5.1,4.6-6.5c5.4-3.1,11.1-3.8,17-1.4c4,1.6,5.2,4.2,4.6,8.5c-1.7,13.3-3.4,26.7-5,40c-0.8,6.3-1.3,12.7-2.5,19c-1.3,6.7-6.4,9.8-12.4,11.5C67.9,101.5,66.2,101.7,64.6,101.6z"/><path fill="#000000" d="M232,111.6c-34.7,0.1-69.3,0-104,0c-34.6,0-69.2,0-103.7,0c-1.9,0-2.5,0.4-2.5,2.4c0.1,37.4,0,74.8,0.1,112.2c0,5.7,3.4,9.1,9.1,9.1c64.4,0,128.9,0,193.3,0c6.7,0,9.9-3.2,9.9-10c0-37.2,0-74.3,0-111.5C234.3,112.1,233.9,111.6,232,111.6z M199.3,207.2c0,3.9-1.2,5-5.1,5c-22.1,0-44.1,0-66.2,0s-44.1,0-66.2,0c-4,0-5.1-1.2-5.1-5.2c0-22.3,0-44.6,0-66.9c0-4.2,1.2-5.3,5.3-5.3c44,0,88.1,0,132.1,0c3.8,0,5.1,1.3,5.1,5.1C199.3,162.3,199.3,184.7,199.3,207.2z"/><path fill="#000000" d="M141.8,154.3c0-5,3.9-6.8,7.5-8.8c2.9-1.6,5.8-2,8.7-0.1c1.2,0.7,2,1.7,2.7,2.9c3.3,6,6.6,11.9,10,17.8c0.9,1.5,0.5,2-0.9,2.8c-4.8,2.6-9.5,5.2-14.2,7.9c-1.2,0.7-1.9,0.8-2.6-0.6c-3.2-6-6.6-11.9-10-17.9C142.3,157.1,141.9,155.8,141.8,154.3z"/><path fill="#000000" d="M184.4,192.6c0,0.2,0,0.5,0,0.7c-0.1,4.8-4.7,7.3-10.2,9.2c-3.5,1.3-6.7-0.7-8.9-4.5c-3.2-5.8-6.4-11.5-9.7-17.2c-0.8-1.3-0.7-2,0.7-2.7c4.9-2.6,9.8-5.3,14.6-8.2c1.3-0.7,1.7-0.4,2.3,0.7c3.4,6.1,6.8,12.2,10.2,18.3C184.1,190.1,184.4,191.4,184.4,192.6z"/><path fill="#000000" d="M127.1,202.8c-5.5,0-10-2.2-13.6-6.4c-1.5-1.8-1.4-2.6,0.8-3.5c9.2-3.9,18.4-7.9,27.7-11.8c1.8-0.8,2.5-0.3,2.9,1.6C146.7,192.9,137.9,202.8,127.1,202.8z"/><path fill="#000000" d="M109.5,184.8c0.1-7.4,4.7-14,11.6-16.5c7-2.6,14.9-0.5,19.7,5.2c1.7,2,1.6,2.7-0.9,3.8c-8.8,3.8-17.6,7.5-26.4,11.3c-3.4,1.4-3.8,1.2-4-2.6C109.4,185.6,109.5,185.2,109.5,184.8z"/><path fill="#000000" d="M104.8,148.5c-4.5-2.2-8.9-1.1-11.3,3.2c-6.9,12.2-13.7,24.4-20.5,36.6c-0.8,1.5-1.3,3-1.3,4.7c0.2,4.6,6.2,9.7,11.7,9.8c3.5,0,5.9-1.7,7.5-4.7c6.2-11.1,12.2-22.3,18.7-33.3C114.2,157.1,113.3,152.6,104.8,148.5z M100.6,177c-0.6,1.1-1.1,1.2-2.2,0.6c-3.9-2.3-7.9-4.5-11.9-6.7c-1-0.5-1.1-1-0.6-2c3.2-5.6,6.3-11.2,9.5-16.8c1.1-2,3-3,6.1-2.8c2.6,0.7,5.8,2.1,8.1,4.9c1.5,1.9,1.4,4.1,0.3,6.2C106.8,165.9,103.6,171.4,100.6,177z"/></g></g>
</svg>