<?xml version="1.0" encoding="utf-8"?>
<!-- Svg Vector Icons : http://www.onlinewebfonts.com/icon -->
<!DOCTYPE svg PUBLIC "-//W3C//DTD SVG 1.1//EN" "http://www.w3.org/Graphics/SVG/1.1/DTD/svg11.dtd">
<svg version="1.1" xmlns="http://www.w3.org/2000/svg" xmlns:xlink="http://www.w3.org/1999/xlink" x="0px" y="0px" viewBox="0 0 256 256" enable-background="new 0 0 256 256" xml:space="preserve">
<metadata> Svg Vector Icons : http://www.onlinewebfonts.com/icon </metadata>
<g><g><path fill="#000000" d="M104.5,50.9h47c3.5,0,6.3-2.8,6.3-6.3V33.2c0-3.5-2.8-6.3-6.3-6.3h-15v-8.5c0-4.7-3.8-8.5-8.5-8.5c-4.7,0-8.5,3.8-8.5,8.5v8.5h-15c-3.5,0-6.3,2.8-6.3,6.3v11.4C98.2,48.1,101,50.9,104.5,50.9z"/><path fill="#000000" d="M209,38h-42.6v12.1c0,4.5-3.6,8.1-8.1,8.1H97.7c-4.5,0-8.1-3.6-8.1-8.1V38.1L47,38h0c-8.7,0-15.8,7.1-15.8,15.8v176.4c0,8.7,7.1,15.8,15.8,15.8h162c8.7,0,15.8-7.1,15.8-15.8V53.8C224.8,45.1,217.7,38,209,38z M87.3,155.5c2-17,14.2-30.5,30.1-34.7c-6.8-3.8-11.4-11-11.4-19.3c0-12.1,9.9-22,22-22c12.1,0,22,9.9,22,22c0,8.3-4.6,15.6-11.4,19.3c15.8,4.2,28.1,17.8,30.1,34.7c0.2,1.7-1,3.2-2.6,3.3c-0.1,0-0.2,0-0.4,0c-0.1,0-0.2,0-0.3,0H90.7c-0.2,0-0.5,0-0.7,0C88.3,158.6,87.1,157.1,87.3,155.5z M118.1,222.7H67.6c-4.7,0-8.5-3.8-8.5-8.5s3.8-8.5,8.5-8.5h50.5c4.7,0,8.5,3.8,8.5,8.5C126.5,218.9,122.8,222.7,118.1,222.7z M191.5,195.2H67.6c-4.7,0-8.5-3.8-8.5-8.5s3.8-8.5,8.5-8.5h123.9c4.7,0,8.5,3.8,8.5,8.5C200,191.4,196.2,195.2,191.5,195.2z"/></g></g>
</svg>