<?xml version="1.0" encoding="utf-8"?>
<!-- Svg Vector Icons : http://www.onlinewebfonts.com/icon -->
<!DOCTYPE svg PUBLIC "-//W3C//DTD SVG 1.1//EN" "http://www.w3.org/Graphics/SVG/1.1/DTD/svg11.dtd">
<svg version="1.1" xmlns="http://www.w3.org/2000/svg" xmlns:xlink="http://www.w3.org/1999/xlink" x="0px" y="0px" viewBox="0 0 256 256" enable-background="new 0 0 256 256" xml:space="preserve">
<metadata> Svg Vector Icons : http://www.onlinewebfonts.com/icon </metadata>
<g><g><path fill="#000000" d="M201.8,246H54.2c-8.1,0-14.8-6.6-14.8-14.8v-177c0-8.2,6.6-14.8,14.8-14.8h29.5V24.8c0-4.1,10.7-14.8,14.8-14.8h59c4.1,0,14.8,10.7,14.8,14.8v14.8h29.5c8.2,0,14.8,6.6,14.8,14.8v177C216.5,239.4,209.9,246,201.8,246z M157.5,24.8h-59v29.5h59V24.8z M201.8,54.3h-29.5V69c0,4.1-10.7,14.8-14.8,14.8h-59c-4.1,0-14.8-10.7-14.8-14.8V54.2H54.2v177h147.5L201.8,54.3L201.8,54.3z"/><path fill="#000000" d="M91.2,127c-7.7,5.6-10.6,10.8-3.4,15.8c7.2,5,25.4,14.7,25.4,14.7s4.5-1.1,2.3-8.9l-2.3-5.9h29.5c0,0,14.7,6.1,14.8,14.8c0.1,8.7-7.4,14.7-14.8,14.8c-7.3,0-44.3,0-44.3,0s0,5.1,0,14.8h44.3c0,0,29.9,0.5,29.5-29.5c0,0,1-29.5-29.5-29.5c-21.2,0-29.5,0-29.5,0s1.3-4.4,2.3-8.2c1-3.8,2.6-10-2.3-6.6C108.3,116.7,98.9,121.4,91.2,127z"/></g></g>
</svg>