<?xml version="1.0" encoding="utf-8"?>
<!-- Svg Vector Icons : http://www.onlinewebfonts.com/icon -->
<!DOCTYPE svg PUBLIC "-//W3C//DTD SVG 1.1//EN" "http://www.w3.org/Graphics/SVG/1.1/DTD/svg11.dtd">
<svg version="1.1" xmlns="http://www.w3.org/2000/svg" xmlns:xlink="http://www.w3.org/1999/xlink" x="0px" y="0px" viewBox="0 0 256 256" enable-background="new 0 0 256 256" xml:space="preserve">
<metadata> Svg Vector Icons : http://www.onlinewebfonts.com/icon </metadata>
<g><g><g><path fill="#000000" d="M214.6,52.2c-20.3-20.3-47.2-31.4-75.8-31.4c-2.8,0-5,2.3-5,5v27.1c0,2.8,2.3,5,5,5c38.7,0,70.1,31.4,70.1,70.1c0,38.7-31.4,70.1-70.1,70.1c-35.4,0-65-26.4-69.5-61h17.7l0,0c2.8,0,5-2.3,5-5c0-1.4-0.6-2.6-1.5-3.5L54.4,88.1c-1-1.1-2.3-1.7-3.8-1.7h0c-1.4,0-2.8,0.6-3.8,1.7l-35.6,40.7c-1.3,1.5-1.6,3.6-0.8,5.4c0.8,1.8,2.6,3,4.6,3h16.8c2.2,25.9,13.6,49.9,32.5,68.1c20.1,19.4,46.5,30,74.4,30c28.7,0,55.6-11.2,75.8-31.4c20.3-20.3,31.4-47.2,31.4-75.8C246,99.3,234.9,72.4,214.6,52.2z M138.7,225.2c-52.4,0-95-41-97.1-93.3c-0.1-2.7-2.3-4.8-5-4.8H26.1l24.5-28l25,28h-12c-1.4,0-2.7,0.6-3.7,1.6c-0.9,1-1.4,2.4-1.4,3.7c2.3,42.5,37.4,75.8,80,75.8c44.2,0,80.1-36,80.1-80.1c0-42.5-33.3-77.4-75.1-80V30.9c51.3,2.6,92.2,45.2,92.2,97.1C235.9,181.6,192.3,225.2,138.7,225.2z"/><path fill="#000000" d="M132.5,132.6v38.1h-12.1c-2.8,0-5,2.3-5,5s2.3,5,5,5h12.1v6.2c0,2.8,2.3,5,5,5c2.8,0,5-2.3,5-5v-6.7c13.5-2.4,23.8-14.2,23.8-28.4c0-14.2-10.3-26.1-23.8-28.4V85.3h10.6c2.8,0,5-2.3,5-5s-2.3-5-5-5h-10.6V69c0-2.8-2.3-5-5-5c-2.8,0-5,2.3-5,5v6.7c-13.5,2.4-23.8,14.2-23.8,28.4C108.6,118.4,118.9,130.2,132.5,132.6z M156.3,151.8c0,8.6-5.9,15.9-13.8,18.1v-36.2C150.5,135.9,156.3,143.2,156.3,151.8z M132.5,86v36.2c-7.9-2.2-13.8-9.5-13.8-18.1C118.7,95.5,124.5,88.2,132.5,86z"/></g><g></g><g></g><g></g><g></g><g></g><g></g><g></g><g></g><g></g><g></g><g></g><g></g><g></g><g></g><g></g></g></g>
</svg>