<?xml version="1.0" encoding="utf-8"?>
<!-- Svg Vector Icons : http://www.onlinewebfonts.com/icon -->
<!DOCTYPE svg PUBLIC "-//W3C//DTD SVG 1.1//EN" "http://www.w3.org/Graphics/SVG/1.1/DTD/svg11.dtd">
<svg version="1.1" xmlns="http://www.w3.org/2000/svg" xmlns:xlink="http://www.w3.org/1999/xlink" x="0px" y="0px" viewBox="0 0 256 256" enable-background="new 0 0 256 256" xml:space="preserve">
<metadata> Svg Vector Icons : http://www.onlinewebfonts.com/icon </metadata>
<g><g><path fill="#000000" d="M107.9,201.6h39.3c5.4,0,9.8-4.4,9.8-9.8V24.4c0-5.4-4.4-9.8-9.8-9.8h-39.3c-5.4,0-9.8,4.4-9.8,9.8v167.4C98.1,197.2,102.5,201.6,107.9,201.6z"/><path fill="#000000" d="M241.5,221.8H14.5c-2.5,0-4.5,2-4.5,4.5v10.7c0,2.5,2,4.5,4.5,4.5h227.1c2.5,0,4.5-2,4.5-4.5v-10.7C246,223.7,244,221.8,241.5,221.8z"/><path fill="#000000" d="M19.8,201.6h39.3c5.4,0,9.8-4.4,9.8-9.8V82.6c0-5.4-4.4-9.8-9.8-9.8H19.8c-5.4,0-9.8,4.4-9.8,9.8v109.2C10,197.2,14.4,201.6,19.8,201.6z"/><path fill="#000000" d="M236.2,112.1h-39.3c-5.4,0-9.8,4.4-9.8,9.8v69.8c0,5.4,4.4,9.8,9.8,9.8h39.3c5.4,0,9.8-4.4,9.8-9.8v-69.8C246,116.5,241.6,112.1,236.2,112.1z"/></g></g>
</svg>