<?xml version="1.0" encoding="utf-8"?>
<!-- Svg Vector Icons : http://www.onlinewebfonts.com/icon -->
<!DOCTYPE svg PUBLIC "-//W3C//DTD SVG 1.1//EN" "http://www.w3.org/Graphics/SVG/1.1/DTD/svg11.dtd">
<svg version="1.1" xmlns="http://www.w3.org/2000/svg" xmlns:xlink="http://www.w3.org/1999/xlink" x="0px" y="0px" viewBox="0 0 256 256" enable-background="new 0 0 256 256" xml:space="preserve">
<metadata> Svg Vector Icons : http://www.onlinewebfonts.com/icon </metadata>
<g><g><path fill="#000000" d="M128,45.8c51.1,0,92.7,41.7,92.7,93c0,51.3-41.6,93-92.7,93c-51.1,0-92.7-41.7-92.7-93C35.3,87.5,77.2,45.8,128,45.8 M128,32.1C68.9,32.1,21.1,80,21.1,139.1c0,59,47.9,106.9,106.9,106.9c59.1,0,106.9-47.9,106.9-106.9c0-59.1-50-106.6-108.3-106.6 M201.5,43.5L222,64.2c2.8,2.8,7.3,2.8,10.1,0c2.8-2.8,2.8-7.4,0-10.3l-20.5-20.7c-2.8-2.8-7.3-2.8-10.1,0C198.7,36.1,198.7,40.7,201.5,43.5L201.5,43.5L201.5,43.5z M211.1,44.7l-14.9,15.1c-2.8,2.8-2.8,7.4,0,10.3c2.8,2.8,7.3,2.8,10.1,0l14.9-15.1c2.8-2.8,2.8-7.4,0-10.3C218.4,41.9,213.9,41.9,211.1,44.7L211.1,44.7L211.1,44.7z M120.9,16.6V32c0,3.6,3.2,6.6,7.1,6.6s7.1-2.9,7.1-6.6V16.6c0-3.6-3.2-6.6-7.1-6.6S120.9,12.9,120.9,16.6L120.9,16.6L120.9,16.6z M120.9,74.5v49.8c0,4,3.2,7.3,7.1,7.3s7.1-3.3,7.1-7.3V74.5c0-4-3.2-7.3-7.1-7.3S120.9,70.5,120.9,74.5L120.9,74.5L120.9,74.5z M128,145.9c7.9,0,14.3-6.4,14.3-14.3c0-7.9-6.4-14.3-14.3-14.3s-14.3,6.4-14.3,14.3C113.7,139.5,120.1,145.9,128,145.9L128,145.9z"/></g></g>
</svg>