<?xml version="1.0" encoding="utf-8"?>
<!-- Svg Vector Icons : http://www.onlinewebfonts.com/icon -->
<!DOCTYPE svg PUBLIC "-//W3C//DTD SVG 1.1//EN" "http://www.w3.org/Graphics/SVG/1.1/DTD/svg11.dtd">
<svg version="1.1" xmlns="http://www.w3.org/2000/svg" xmlns:xlink="http://www.w3.org/1999/xlink" x="0px" y="0px" viewBox="0 0 256 256" enable-background="new 0 0 256 256" xml:space="preserve">
<metadata> Svg Vector Icons : http://www.onlinewebfonts.com/icon </metadata>
<g><g><g><path fill="#000000" d="M24.3,44.9c-7.4,2-12.7,8-13.8,15.8c-0.6,4.6-0.6,130.1,0,134.6c0.3,1.9,1.1,4.6,1.8,6.1c1.7,3.5,6.2,7.6,9.9,9.1l2.9,1.1h33.1c32.8,0,33.1,0,35.7-1.1c5-2.1,9-6.1,11.1-11.1c1.1-2.6,1.1-2.8,1.2-46l0.1-43.4l-6.1,0.1l-6.1,0.1l-0.3,8l-0.2,8l-6.1,8.4c-3.4,4.6-6.3,8.5-6.5,8.6c-0.2,0.1-0.9-1.1-1.7-2.7c-1.7-3.8-1.6-6.6,0.2-12.6c1.5-4.8,1.5-6.4,0.2-8.3c-1.8-2.7-5.9-3.6-9-1.9c-3.3,1.8-6,8.3-6,14.7c0,6.5,2.4,12.5,7,17.7l2.4,2.8l-2.9,4c-1.6,2.3-3.1,4.6-3.3,5.2c-0.4,1.3,0.7,3.4,2.2,3.8c1.6,0.5,2.8-0.5,6-4.8c1.7-2.2,3.2-4.1,3.3-4.2c0-0.1,1.6,0.5,3.5,1.3c3.6,1.7,6.9,2.5,9.4,2.6h1.6v11.1v11.1H58.1H22.3v-62.7V57.9h35.8h35.8v17v17h-6.2c-6.7,0-8.9,0.5-10.3,2.5c-1,1.5-1,4.8,0,6.3c1.8,2.5,1.5,2.5,38.5,2.5h34.3v6.7v6.7h-17.7c-19.4,0-19.1,0-20.6,3c-0.9,1.8-0.9,2.7,0.1,4.7c1.5,3.1,2.1,3.2,21.1,3.2h17.1v6.7v6.7h-11.4h-11.4l-1.7,1.7c-2.3,2.3-2.4,5-0.2,7.3l1.4,1.6l11.7,0.1l11.6,0.1l0.1,22.8l0.1,22.8l1.6,3.3c2.7,5.7,7.5,9.5,13.8,10.8c1.6,0.3,13.3,0.5,34.1,0.4c30.1-0.1,31.7-0.2,33.9-1.1c5.1-2.1,9.3-6.4,11.2-11.4l1-2.8l-0.1-69.5l-0.1-69.5l-1.4-2.6c-2.8-5.3-7.1-8.8-12.5-10.2c-4-1-63.3-1.1-67.1,0c-5.9,1.5-10.2,5.1-12.7,10.6l-1.6,3.3l-0.1,16.6L150.2,92h-21.9h-21.9l-0.1-16.4c-0.1-15.4-0.2-16.5-1.2-19c-2.1-5.1-6-9.1-11-11.2c-2.7-1.1-2.8-1.1-34.8-1.2C32,44.2,26.6,44.3,24.3,44.9z M234.1,120.7v62.7l-35.9-0.1l-35.9-0.1l-0.1-12l-0.1-12l1.1,0.3c6.2,1.9,10.8,2.2,15.5,1c4.1-1.1,7.5-3,10.9-6.4c5-4.9,7.7-10.9,7.7-17c0-5.5-1.6-9.4-6.5-16.1l-3-4.1l6.8-9.2c3.7-5.1,6.8-9.4,6.9-9.4c0-0.1,0.6,0.8,1.2,2c1.3,2.6,1.4,7,0.2,10.2c-1.3,3.5-1,5.7,0.8,7.8c1.4,1.5,2.1,1.8,4.1,2c3.1,0.3,5.3-1.1,7.1-4.5c1-2,1.3-3.4,1.4-7.5c0.3-7.6-1.2-11.6-6.3-16.9l-2-2.1l2.3-3.1c2.7-3.6,3.1-4.9,2.1-6.5c-2-3.1-4.4-1.7-9.5,5.5c-0.1,0.1-1.2-0.4-2.5-1c-7.2-3.6-13.8-3.9-20-0.9c-4,1.9-6.7,4.3-9.5,8.5c-6,9.1-5.4,17.2,2.1,27.9c1.2,1.8,2.2,3.4,2.1,3.6c-0.3,0.9-12,16.7-12.3,16.8c-0.2,0-0.4-18.5-0.4-41v-41h36h36L234.1,120.7L234.1,120.7z M195.1,93.6l1.1,0.4l-1.2,1.6c-0.6,0.8-3.5,4.7-6.3,8.6l-5.2,7.1L182,108c-2.3-4.7-2.1-7.1,0.7-11.2c1.4-2.1,3.2-3.4,5.3-3.9C189.6,92.6,193.3,92.9,195.1,93.6z M181.6,132.4c1.9,3.9,2.2,7.2,0.7,10.1c-2.2,4.3-5.4,6.7-9.9,7.2c-2.4,0.3-6.7-0.5-7.2-1.4c-0.1-0.2,2.9-4.8,6.8-10.1c4.9-6.8,7.2-9.5,7.6-9.1C179.9,129.3,180.8,130.8,181.6,132.4z M93.9,143.6v6.2l-1.8,0c-2-0.1-5.7-1-5.8-1.5c0-0.2,7.2-10.7,7.5-10.8C93.9,137.4,93.9,140.2,93.9,143.6z M61.2,191c2.7,1.4,3.7,3.1,3.9,6.1c0.1,2.2,0,3.2-0.8,4.4c-1,1.6-4.3,3.6-6.2,3.6s-5.1-1.9-6.2-3.6c-1.3-2.1-1.2-6.7,0.3-8.3C54.7,190.4,58.4,189.5,61.2,191z M202,191.3c5,3.1,4.7,10.1-0.5,12.7c-2.8,1.5-5.3,1.2-7.9-0.9c-2.2-1.8-3.1-4.5-2.3-7.3c0.5-2,2.5-4.3,4.2-5C197.2,190,200.3,190.2,202,191.3z"/></g></g></g>
</svg>