<svg xmlns="http://www.w3.org/2000/svg" viewBox="0 0 48 48" fill="currentColor">
  <path d="M20 4c-4.4 0-8 3.6-8 8 0 3.2 1.9 6 4.6 7.3C10.8 21 6 26 6 32v2h2v-2c0-6.6 5.4-12 12-12 1.4 0 2.7.2 4 .7v-2.3c-1.3-.3-2.6-.4-4-.4-3.3 0-6-2.7-6-6s2.7-6 6-6 6 2.7 6 6c0 1.5-.6 2.9-1.5 4l1.5 1.5c1.2-1.5 2-3.4 2-5.5 0-4.4-3.6-8-8-8z"/>
  <path d="M36 24v3h-3c-1.5 0-2.8.8-3.5 2h-1.5v2h1v2h-1v2h1.5c.7 1.2 2 2 3.5 2h3v3h2v-3h2v-2h-2v-2h2v-2h-2v-2h2v-2h-2v-3h-2zm0 5v6h-3c-.8 0-1.5-.7-1.5-1.5v-3c0-.8.7-1.5 1.5-1.5h3z"/>
</svg>
