<?xml version="1.0" encoding="utf-8"?>
<!-- Svg Vector Icons : http://www.onlinewebfonts.com/icon -->
<!DOCTYPE svg PUBLIC "-//W3C//DTD SVG 1.1//EN" "http://www.w3.org/Graphics/SVG/1.1/DTD/svg11.dtd">
<svg version="1.1" xmlns="http://www.w3.org/2000/svg" xmlns:xlink="http://www.w3.org/1999/xlink" x="0px" y="0px" viewBox="0 0 256 256" enable-background="new 0 0 256 256" xml:space="preserve">
<metadata> Svg Vector Icons : http://www.onlinewebfonts.com/icon </metadata>
<g><g><path fill="#000000" d="M106.3,243.4H37.7c-9.1,0-16.6-7.5-16.6-16.6V43.4c0-9.1,7.5-16.6,16.6-16.6H58c3.2,0,5.5-2.4,5.5-5.5c0-3-2.6-5.5-5.5-5.5H37.7C22.4,15.7,10,28.2,10,43.4v183.4c0,15.2,12.4,27.7,27.7,27.7h79.8C113.6,251.1,109.8,247.4,106.3,243.4L106.3,243.4z M228.4,43.4c0-15.2-12.4-27.7-27.7-27.7h-20.2c-3.2,0-5.5,2.4-5.5,5.5c0,3.1,2.6,5.5,5.5,5.5h20.2c9.1,0,16.6,7.5,16.6,16.6v61.5c3.9,1.8,7.5,3.9,11.1,6.3V43.4L228.4,43.4z M173.7,48.1H64.8c-6.9,0-12.4,5.5-12.4,12.4c0,6.9,5.5,12.4,12.4,12.4h108.9c6.9,0,12.4-5.5,12.4-12.4C186.1,53.7,180.6,48.1,173.7,48.1z M152.3,21.3c0-10.9-8.9-19.8-19.8-19.8h-26.7c-10.9,0-19.8,8.9-19.8,19.8v28.1h66.4L152.3,21.3L152.3,21.3z M119.1,38.8c-7.3,0-13-5.9-13-13c0-7.1,5.9-13,13-13c7.3,0,13,5.9,13,13C132.3,32.9,126.4,38.8,119.1,38.8z M157.5,98.1H64.8c-6.9,0-12.4,5.5-12.4,12.4S57.8,123,64.8,123H113C124.9,110.8,140.3,102.1,157.5,98.1z M178,118.7c-37.6,0-68,30.4-68,67.8c0,37.6,30.4,67.8,68,67.8c37.6,0,68-30.4,68-67.8C246,149.1,215.6,118.7,178,118.7L178,118.7z M225,170.5l-52.2,52.2c-1.8,1.6-3.9,2.6-6.1,2.6c-2.2,0-4.5-0.8-6.1-2.6L131,193c-3.4-3.4-3.4-8.9,0-12.3c3.4-3.4,8.9-3.4,12.3,0l23.7,23.5l46.1-46.1c3.4-3.4,8.9-3.4,12.3,0C228.4,161.6,228.4,167.1,225,170.5L225,170.5z"/></g></g>
</svg>