<?xml version="1.0" encoding="utf-8"?>
<!-- Svg Vector Icons : http://www.onlinewebfonts.com/icon -->
<!DOCTYPE svg PUBLIC "-//W3C//DTD SVG 1.1//EN" "http://www.w3.org/Graphics/SVG/1.1/DTD/svg11.dtd">
<svg version="1.1" xmlns="http://www.w3.org/2000/svg" xmlns:xlink="http://www.w3.org/1999/xlink" x="0px" y="0px" viewBox="0 0 256 256" enable-background="new 0 0 256 256" xml:space="preserve">
<metadata> Svg Vector Icons : http://www.onlinewebfonts.com/icon </metadata>
<g><g><g><path fill="#000000" d="M79.8,11.1c-5.1,2.1-8.6,5.4-10.9,10.3c-1.1,2.5-1.3,3.5-1.4,9.4l-0.2,6.5L60,37.5c-7.1,0.1-7.4,0.2-10.6,1.7c-5.6,2.7-9.7,8.2-10.9,14.4c-0.7,4.1-0.7,150.9,0,155.1c1.1,6.2,5.5,11.9,11.1,14.5l3,1.4l38,0.1l37.9,0.1l2.8,3.5c6.6,8.2,16.5,14.2,27.5,16.7c5.8,1.3,15.9,1.2,21.8-0.2c17.5-4.3,30.8-17.1,36.1-34.7c1.2-4.1,1.3-5.2,1.3-13c0.1-7.4-0.1-9-1.1-12.5c-0.6-2.2-1.3-4.3-1.6-4.7c-0.3-0.5-1.4,0.1-4.8,3.1l-4.4,3.8l0.7,3.8c2.4,13.5-3.2,27.7-14.4,36.2c-11.4,8.8-27.2,10.4-39.9,3.9c-9.2-4.6-15.9-12.2-19.2-21.6c-6.7-19.1,3.3-40.5,22.3-47.8c5.3-2,9.6-2.7,15.9-2.3c6.2,0.3,10.6,1.5,15.8,4.3l3.5,1.9l4.8-4.5l4.8-4.5V92c0-71.1,0.1-67.5-3.1-73c-1.9-3.2-4.6-5.6-8.3-7.4l-2.7-1.3l-51.8-0.1L82.6,10L79.8,11.1z M184.5,22.4c0.9,0.4,2.2,1.6,2.8,2.5l1.1,1.7v62.5c0,59.4,0,62.5-0.8,62.2c-2.7-1.2-9.2-2.8-12.5-3.1l-3.8-0.4L171,99.7l-0.3-48.1l-1.3-2.9c-1.7-3.7-6-8-9.7-9.7l-2.9-1.3l-39-0.1l-39.1-0.1l0.2-5.4c0.1-6,0.6-7.1,3.9-9.4l1.6-1.1h49.1C179.4,21.5,182.8,21.5,184.5,22.4z M155.4,49.9c1.1,0.5,2.6,1.7,3.2,2.6l1.1,1.6l0.2,47.2l0.1,47.2l-2.1,0.5c-9,2.2-16.8,6.6-22.8,12.7l-3.2,3.2H98.3H64.8l-1.4,1.4c-2,2-2,5,0,7.1l1.4,1.4h30.2H125l-1.6,4.4c-2.5,6.8-3.3,12.2-3,19.8c0.2,4.3,0.6,7.7,1.3,10.1c0.6,2,1,3.7,1,3.9c0,0.1-15.1,0.2-33.5,0.2H55.7l-2.1-1.2c-4-2.3-3.7,4.7-3.7-81c0-82.4-0.1-77.6,2.6-80.1c0.6-0.6,1.7-1.3,2.4-1.6c0.8-0.3,18.8-0.5,49.8-0.5C152.9,48.9,153.3,48.9,155.4,49.9z"/><path fill="#000000" d="M102.5,60.4c-0.4,0.6-0.8,2.1-0.8,3.5c0,2.2-0.1,2.4-1.1,2.4c-2.1,0-5.7,1.5-7.7,3.3c-3.2,2.7-4.3,5.6-4.3,10.9c0,3.9,0.2,4.8,1.3,7c1.7,3.3,4,5.2,8.3,7l3.5,1.4v8.4v8.4l-1.5-0.9c-1.9-1.1-3.2-3-4.2-6.3c-1.2-3.9-1.9-4.8-4.3-4.8c-5.8,0-6,7.6-0.3,13.8c2.6,2.9,5.1,4.4,8.2,5.1l1.9,0.4l0.2,3.4c0.2,2.7,0.4,3.5,1.3,4.3c1.4,1.1,3,0.7,3.4-0.7c0.2-0.5,0.3-2.4,0.3-4l0.1-3l2.5-0.5c5.4-1.2,9-4,11.2-8.7c1.1-2.3,1.3-3.5,1.3-7c0-3.6-0.2-4.6-1.3-6.8c-1.9-3.5-4.5-5.6-9.5-7.4L107,88l-0.1-7.4c-0.1-5.3,0.1-7.3,0.4-7.3c1,0,4.9,4.3,4.9,5.4c0,0.5,0.6,1.7,1.3,2.5c1.8,2.1,4.1,2.1,5.9,0c1.5-1.7,1.6-3.2,0.5-5.8c-2-4.8-4.7-7.2-9.9-8.6l-3-0.8l-0.1-2.7c-0.1-1.4-0.4-2.9-0.7-3.3C105.3,59,103.4,59.2,102.5,60.4z M101.7,80.1v6.8l-1.5-0.9c-2.6-1.5-3.6-3.3-3.6-6.4c0.1-1.5,0.3-3.1,0.7-3.5c0.7-0.9,3.4-2.7,4.1-2.7C101.6,73.3,101.7,76.3,101.7,80.1z M110.1,98.9c2.8,1.4,3.8,3.1,3.8,6.4c-0.1,3.4-2.4,6.4-5.8,7.2l-1.4,0.3v-7.5c0-4.8,0.2-7.5,0.5-7.5C107.5,97.7,108.8,98.3,110.1,98.9z"/><path fill="#000000" d="M64.5,144.3c-1.7,1.5-2.2,3.4-1.3,5.5c1.4,3.4-1.2,3.2,42.2,3.2c29.4,0,39.6-0.1,40.5-0.6c2.9-1.3,3.6-5.6,1.3-7.9l-1.4-1.4h-39.9H65.9L64.5,144.3z"/><path fill="#000000" d="M63.3,188.9c-1.1,1.1-1.4,1.9-1.4,3.5c0,1.6,0.3,2.4,1.4,3.5l1.4,1.4h19c20.6,0,21.1,0,22.3-2.7c0.7-1.6,0.7-2.8,0-4.5c-1.2-2.7-1.7-2.7-22.3-2.7h-19L63.3,188.9z"/><path fill="#000000" d="M186.2,179.8c-10.1,9.4-18.7,17.3-19.1,17.5c-0.4,0.1-2.3-1.3-4.9-3.9l-4.2-4.2l-4,4l-4,4l8.1,8.1c4.5,4.5,8.3,8.1,8.5,8c0.2-0.1,10.6-9.6,23-21c14.5-13.3,22.6-21.1,22.3-21.4c-2.2-2.9-6.7-8.3-7-8.2C204.8,162.6,196.4,170.3,186.2,179.8z"/></g></g></g>
</svg>