<?xml version="1.0" standalone="no"?>
<!DOCTYPE svg PUBLIC "-//W3C//DTD SVG 20010904//EN"
 "http://www.w3.org/TR/2001/REC-SVG-20010904/DTD/svg10.dtd">
<svg version="1.0" xmlns="http://www.w3.org/2000/svg"
 width="1380.000000pt" height="1130.000000pt" viewBox="0 0 1380.000000 1130.000000"
 preserveAspectRatio="xMidYMid meet">

<g transform="translate(0.000000,1130.000000) scale(0.100000,-0.100000)"
fill="currentColor" stroke="none">
<path d="M5124 10384 c1 -343 4 -624 8 -624 4 0 6 -541 5 -1202 -2 -908 -5
-1206 -14 -1216 -15 -15 -318 -17 -328 -2 -4 6 -80 10 -196 10 -161 0 -189 2
-189 15 0 13 27 15 178 16 97 1 181 1 186 0 5 -1 22 3 38 10 l28 11 -1 747
c-1 410 -4 771 -7 801 l-7 55 -142 3 c-93 2 -143 -1 -143 -8 0 -6 -30 -10 -75
-10 l-75 0 0 -30 c0 -21 -5 -30 -16 -30 -9 0 -12 5 -8 12 5 8 2 9 -9 5 -12 -5
-17 -1 -17 12 0 29 -11 52 -21 45 -5 -3 -9 9 -9 25 0 17 -5 31 -10 31 -7 0
-10 22 -8 58 l3 57 178 6 c97 4 185 10 195 14 23 10 71 12 65 3 -2 -5 5 -8 16
-8 11 0 23 5 26 10 3 6 19 10 35 10 24 0 31 5 37 28 9 35 8 116 -1 165 l-7 39
-374 -4 c-282 -2 -377 -6 -387 -15 -6 -7 -22 -13 -35 -13 -15 0 -27 -10 -39
-35 -9 -19 -23 -35 -30 -35 -8 0 -14 -10 -14 -23 0 -12 -11 -31 -25 -41 -14
-11 -25 -29 -25 -42 0 -15 -6 -24 -15 -24 -9 0 -15 -9 -15 -25 0 -14 -6 -25
-13 -25 -7 0 -19 -16 -27 -35 -8 -19 -20 -35 -27 -35 -7 0 -13 -11 -13 -25 0
-14 -4 -25 -10 -25 -5 0 -10 -11 -10 -25 0 -16 -6 -25 -15 -25 -8 0 -15 -8
-15 -18 0 -10 -9 -37 -20 -60 -11 -22 -20 -46 -20 -52 0 -5 -4 -10 -8 -10 -9
0 -42 -69 -42 -87 0 -6 -6 -13 -13 -16 -7 -3 -19 -23 -27 -46 -7 -23 -19 -41
-27 -41 -7 0 -13 -11 -13 -25 0 -16 -6 -25 -15 -25 -9 0 -15 -9 -15 -25 0 -16
-6 -25 -15 -25 -9 0 -15 -9 -15 -25 0 -14 -4 -25 -10 -25 -5 0 -10 -11 -10
-25 0 -14 -4 -25 -10 -25 -5 0 -12 -11 -16 -25 -3 -14 -10 -25 -15 -25 -5 0
-9 -11 -9 -25 0 -16 -6 -25 -15 -25 -10 0 -15 -10 -15 -30 0 -16 -3 -30 -7
-30 -9 0 -33 -48 -33 -66 0 -6 -7 -14 -15 -18 -8 -3 -15 -17 -15 -31 0 -14 -4
-25 -10 -25 -5 0 -10 -6 -10 -13 0 -7 -11 -24 -25 -39 -14 -15 -25 -39 -25
-53 0 -16 -6 -25 -15 -25 -9 0 -15 -9 -15 -25 0 -16 -6 -25 -15 -25 -9 0 -15
-9 -15 -25 0 -16 -6 -25 -15 -25 -9 0 -15 -9 -15 -25 0 -14 -4 -25 -10 -25 -5
0 -10 -11 -10 -25 0 -16 -6 -25 -15 -25 -8 0 -15 -9 -15 -20 0 -11 -4 -20 -10
-20 -5 0 -10 -13 -10 -30 0 -16 -4 -30 -10 -30 -5 0 -10 -11 -10 -25 0 -16 -6
-25 -15 -25 -9 0 -15 -9 -15 -25 0 -14 -4 -25 -10 -25 -5 0 -10 -8 -10 -17 0
-10 -12 -29 -25 -42 -14 -13 -25 -32 -25 -42 0 -10 -7 -19 -15 -19 -9 0 -15
-9 -15 -25 0 -14 -3 -25 -7 -25 -5 0 -17 -18 -27 -40 -11 -22 -23 -40 -28 -40
-4 0 -8 -11 -8 -25 0 -18 -5 -25 -20 -25 -15 0 -20 -7 -20 -25 0 -14 -4 -25
-10 -25 -5 0 -10 -11 -10 -25 0 -14 -4 -25 -10 -25 -14 0 -12 -91 3 -123 6
-15 15 -27 20 -27 4 0 7 -7 7 -15 0 -10 10 -15 30 -15 17 0 30 -5 30 -11 0 -9
613 -10 2483 -3 1365 5 2682 8 2927 8 245 0 873 -2 1395 -3 1033 -3 1345 3
1345 25 0 8 10 14 23 14 12 0 29 9 37 20 8 11 20 20 27 20 9 0 13 15 13 45 0
33 -4 45 -15 45 -9 0 -15 9 -15 25 0 14 -4 25 -9 25 -5 0 -15 16 -22 35 -7 19
-19 35 -26 35 -7 0 -13 11 -13 25 0 14 -4 25 -10 25 -5 0 -10 11 -10 24 0 13
-11 31 -25 42 -14 10 -25 29 -25 41 0 16 -6 23 -20 23 -15 0 -20 7 -20 25 0
14 -4 25 -9 25 -5 0 -13 10 -17 22 -3 12 -13 28 -21 36 -8 8 -17 28 -20 44 -3
16 -12 32 -19 35 -8 3 -14 18 -14 34 0 16 -4 29 -8 29 -4 0 -14 15 -20 34 -7
19 -19 37 -27 40 -8 3 -15 15 -15 26 0 11 -4 20 -10 20 -5 0 -10 11 -10 24 0
13 -7 26 -15 30 -8 3 -15 15 -15 26 0 11 -4 20 -10 20 -5 0 -10 11 -10 25 0
16 -6 25 -15 25 -9 0 -15 9 -15 23 0 31 -22 77 -37 77 -7 0 -13 11 -13 25 0
16 -6 25 -15 25 -9 0 -15 9 -15 25 0 16 -6 25 -15 25 -9 0 -15 9 -15 25 0 14
-4 25 -10 25 -5 0 -10 11 -10 25 0 16 -6 25 -15 25 -10 0 -15 10 -15 30 0 17
-4 30 -10 30 -5 0 -10 11 -10 25 0 14 -4 25 -10 25 -5 0 -10 9 -10 20 0 11 -7
20 -15 20 -9 0 -15 9 -15 25 0 14 -4 25 -10 25 -5 0 -10 11 -10 25 0 16 -6 25
-15 25 -9 0 -15 9 -15 25 0 14 -4 25 -10 25 -5 0 -10 14 -10 30 0 20 -5 30
-15 30 -9 0 -15 9 -15 25 0 14 -4 25 -10 25 -5 0 -10 11 -10 25 0 16 -6 25
-15 25 -8 0 -15 9 -15 20 0 11 -7 20 -15 20 -8 0 -15 7 -15 15 0 9 -7 18 -15
21 -8 4 -15 15 -15 25 0 10 -4 19 -10 19 -5 0 -10 9 -10 20 0 11 -4 20 -10 20
-5 0 -10 9 -10 20 0 11 -7 23 -15 26 -8 4 -15 15 -15 25 0 10 -4 19 -10 19 -5
0 -10 11 -10 24 0 13 -7 26 -15 30 -8 3 -15 12 -15 21 0 8 -4 15 -10 15 -5 0
-10 11 -10 25 0 16 -6 25 -15 25 -9 0 -15 9 -15 25 0 14 -4 25 -9 25 -5 0 -11
14 -15 31 -3 17 -10 28 -16 24 -5 -3 -10 1 -10 9 0 9 -4 16 -10 16 -5 0 -10
11 -10 25 0 16 -6 25 -15 25 -8 0 -15 7 -15 15 0 8 -7 15 -15 15 -8 0 -15 5
-15 10 0 6 -10 10 -23 10 -13 0 -29 6 -35 13 -9 8 -79 14 -240 19 -125 3 -252
9 -283 13 -93 12 -99 4 -99 -120 0 -79 4 -107 15 -119 8 -8 15 -19 15 -24 0
-5 8 -16 17 -23 11 -10 14 -10 9 -1 -11 19 390 17 410 -2 16 -16 19 -76 4 -76
-5 0 -10 -7 -10 -15 0 -8 -7 -15 -15 -15 -8 0 -15 -4 -15 -10 0 -6 -30 -10
-70 -10 -56 0 -70 -3 -70 -15 0 -13 -21 -15 -130 -15 l-130 0 0 -574 c0 -396
-3 -575 -11 -578 -7 -2 -11 -80 -12 -228 l-2 -225 123 -3 c70 -1 122 -7 122
-12 0 -6 45 -10 109 -10 82 0 110 -3 114 -13 4 -11 -56 -15 -333 -20 -186 -3
-354 -3 -374 0 l-36 6 0 131 c-4 2397 -6 2938 -13 3071 -4 88 -10 226 -13 306
l-5 146 -1923 1 -1922 0 0 -624z m3516 316 c0 -5 7 -10 15 -10 12 0 15 -19 15
-114 0 -77 -4 -116 -12 -118 -12 -4 -16 -26 -17 -100 l-1 -48 -40 0 c-29 0
-40 4 -40 15 0 9 -9 15 -23 15 -12 0 -31 11 -41 25 -10 14 -27 25 -37 25 -11
0 -19 5 -19 10 0 6 -7 10 -15 10 -8 0 -15 6 -15 13 0 7 -16 19 -35 26 -19 7
-35 17 -35 22 0 5 -7 9 -15 9 -8 0 -15 7 -15 16 0 20 -24 44 -44 44 -9 0 -16
7 -16 15 0 8 -4 15 -10 15 -5 0 -10 11 -10 25 0 14 -4 25 -10 25 -14 0 -12 58
3 75 10 11 52 14 215 15 128 0 202 -4 202 -10z m-2680 -39 c0 -17 -4 -33 -10
-36 -5 -3 -10 -17 -10 -31 0 -17 -5 -24 -20 -24 -11 0 -20 -6 -20 -13 0 -7
-11 -21 -25 -31 -14 -10 -25 -23 -25 -28 0 -11 -25 -38 -35 -38 -6 0 -19 -10
-50 -37 -7 -7 -18 -13 -24 -13 -6 0 -11 -4 -11 -10 0 -5 -7 -10 -15 -10 -8 0
-15 -7 -15 -15 0 -8 -9 -15 -20 -15 -11 0 -20 -4 -20 -10 0 -6 -29 -10 -66
-10 -68 0 -86 8 -98 48 -4 12 -12 22 -17 22 -5 0 -9 54 -9 125 0 104 2 125 15
125 8 0 15 7 15 15 0 13 32 15 230 15 l230 0 0 -29z m386 14 c14 -13 111 -15
772 -15 l756 1 13 -23 c7 -13 12 -51 13 -86 0 -43 5 -68 15 -78 8 -9 15 -26
15 -39 0 -12 7 -25 15 -29 8 -3 15 -14 15 -25 0 -11 5 -23 10 -26 6 -3 10 -15
10 -26 0 -10 6 -19 14 -19 8 0 20 -16 27 -35 7 -19 17 -35 22 -35 12 0 37 -26
37 -39 0 -6 7 -11 15 -11 8 0 15 -7 15 -15 0 -8 5 -15 10 -15 6 0 10 -7 10
-15 0 -8 7 -15 15 -15 8 0 15 -4 15 -10 0 -5 11 -10 25 -10 14 0 25 -4 25 -10
0 -5 9 -10 20 -10 11 0 20 -7 20 -15 0 -11 12 -15 45 -15 25 0 45 -4 45 -10 0
-5 15 -10 34 -10 19 0 36 -5 38 -11 3 -10 30 -15 185 -35 27 -4 42 -11 45 -22
1 -10 2 -603 0 -1319 l-2 -1303 -63 0 c-58 0 -63 2 -74 28 -6 15 -13 49 -16
77 -3 27 -10 51 -16 53 -6 2 -11 23 -11 47 0 24 -4 47 -10 50 -5 3 -10 20 -10
36 0 17 -6 32 -15 35 -9 4 -15 19 -15 39 0 19 -4 37 -10 40 -5 3 -10 17 -10
31 0 15 -6 24 -15 24 -9 0 -15 9 -15 21 0 22 -22 49 -39 49 -6 0 -11 9 -11 21
0 24 -22 49 -44 49 -9 0 -16 6 -16 13 0 18 -24 67 -32 67 -5 0 -8 7 -8 15 0 8
-7 15 -15 15 -8 0 -15 9 -15 20 0 11 -12 27 -27 37 -16 10 -32 23 -36 30 -4 7
-13 13 -18 13 -14 0 -39 26 -39 39 0 6 -6 11 -13 11 -7 0 -21 11 -31 25 -10
14 -27 25 -37 25 -11 0 -19 5 -19 10 0 6 -7 10 -15 10 -8 0 -15 5 -15 10 0 6
-11 10 -25 10 -16 0 -25 6 -25 15 0 8 -7 15 -15 15 -8 0 -15 7 -15 15 0 9 -9
15 -25 15 -16 0 -25 6 -25 15 0 9 -9 15 -24 15 -14 0 -28 5 -31 10 -3 6 -19
10 -36 10 -19 0 -29 5 -29 15 0 10 -10 15 -27 15 -16 1 -55 8 -88 16 -33 9
-76 18 -95 21 -19 2 -49 11 -67 19 -40 18 -556 21 -600 3 -26 -11 -49 -16
-178 -38 -81 -15 -129 -29 -133 -40 -2 -6 -15 -11 -28 -11 -13 0 -24 -4 -24
-9 0 -4 -16 -11 -35 -14 -19 -3 -42 -12 -50 -19 -33 -30 -45 -38 -55 -38 -5 0
-10 -7 -10 -15 0 -10 -10 -15 -30 -15 -16 0 -30 -4 -30 -8 0 -4 -16 -14 -35
-21 -19 -7 -35 -19 -35 -27 0 -8 -10 -14 -25 -14 -14 0 -25 -4 -25 -10 0 -5
-7 -10 -15 -10 -8 0 -15 -5 -15 -11 0 -13 -25 -39 -39 -39 -6 0 -15 -9 -21
-20 -6 -12 -22 -25 -35 -30 -14 -5 -29 -24 -36 -44 -8 -23 -19 -36 -31 -36
-10 0 -18 -6 -18 -13 0 -7 -11 -21 -25 -31 -14 -10 -25 -25 -25 -33 0 -17 -24
-43 -39 -43 -6 0 -11 -11 -11 -25 0 -14 -4 -25 -10 -25 -5 0 -10 -7 -10 -15 0
-8 -4 -15 -9 -15 -5 0 -17 -21 -27 -47 -10 -27 -24 -57 -31 -68 -7 -11 -13
-30 -13 -42 0 -13 -4 -23 -8 -23 -9 0 -32 -80 -32 -114 0 -13 -6 -26 -13 -29
-7 -3 -14 -24 -15 -48 -2 -24 -8 -59 -14 -76 -12 -33 -13 -33 -78 -33 -67 0
-67 0 -76 33 -6 19 -7 89 -2 172 4 77 3 647 -2 1267 -7 802 -7 1135 1 1157
l11 31 103 0 c82 0 104 3 109 15 3 8 13 15 23 15 39 0 123 25 123 37 0 7 11
13 25 13 14 0 25 5 25 10 0 6 14 10 30 10 17 0 30 5 30 10 0 6 8 10 18 10 18
0 52 33 52 50 0 6 5 10 10 10 6 0 10 7 10 15 0 8 5 15 11 15 14 0 39 25 39 39
0 6 5 11 11 11 11 0 39 25 39 35 0 6 10 19 38 50 6 7 12 18 12 24 0 6 4 11 8
11 12 0 42 73 42 103 0 16 6 27 14 27 19 0 26 22 26 86 0 30 5 54 10 54 6 0
10 7 10 15 0 19 37 19 56 0z m3484 -1660 c0 -14 5 -25 10 -25 6 0 10 -13 10
-30 0 -20 5 -30 15 -30 9 0 15 -9 15 -25 0 -14 5 -25 10 -25 6 0 10 -11 10
-25 0 -16 6 -25 15 -25 8 0 15 -9 15 -20 0 -11 5 -20 10 -20 6 0 10 -7 10 -15
0 -8 7 -15 15 -15 9 0 15 -9 15 -25 0 -16 6 -25 15 -25 9 0 15 -9 15 -25 0
-14 5 -25 10 -25 6 0 10 -11 10 -25 0 -16 6 -25 15 -25 9 0 15 -9 15 -25 0
-14 5 -25 10 -25 6 0 10 -11 10 -25 0 -16 6 -25 15 -25 9 0 15 -9 15 -25 0
-14 5 -25 10 -25 6 0 10 -11 10 -25 0 -16 6 -25 15 -25 9 0 15 -9 15 -25 0
-14 5 -25 10 -25 6 0 10 -13 10 -30 0 -20 5 -30 15 -30 10 0 15 -11 15 -35 0
-19 5 -35 10 -35 6 0 10 -11 10 -25 0 -14 5 -25 10 -25 6 0 10 -11 10 -25 0
-16 6 -25 15 -25 8 0 15 -9 15 -20 0 -11 7 -20 15 -20 10 0 15 -10 15 -30 0
-20 5 -30 15 -30 9 0 15 -9 15 -24 0 -13 4 -26 10 -28 5 -1 10 -18 12 -36 1
-22 7 -31 15 -28 9 4 13 -4 13 -24 0 -17 5 -30 10 -30 6 0 10 -11 10 -25 0
-14 5 -25 11 -25 19 0 39 -28 39 -54 0 -16 6 -26 15 -26 9 0 15 -9 15 -25 0
-14 5 -25 10 -25 6 0 10 -11 10 -25 0 -14 5 -25 10 -25 6 0 10 -9 10 -20 0
-11 7 -23 15 -26 8 -4 15 -18 15 -33 0 -20 2 -23 10 -11 8 12 10 11 10 -7 0
-14 6 -23 15 -23 9 0 15 -9 15 -25 0 -16 6 -25 15 -25 10 0 15 -10 15 -30 0
-20 5 -30 15 -30 9 0 15 -9 15 -25 l0 -25 -140 0 c-118 0 -140 2 -140 15 0 8
-7 15 -15 15 -10 0 -15 10 -15 30 0 17 -4 30 -10 30 -5 0 -10 9 -10 20 0 11
-7 20 -15 20 -9 0 -15 9 -15 25 0 16 -6 25 -15 25 -9 0 -15 9 -15 25 0 16 -6
25 -15 25 -9 0 -15 9 -15 25 0 14 -4 25 -10 25 -5 0 -10 11 -10 25 0 14 -4 25
-10 25 -5 0 -10 11 -10 25 0 16 -6 25 -15 25 -10 0 -15 10 -15 30 0 17 -4 30
-10 30 -5 0 -10 16 -10 35 0 24 -5 35 -15 35 -9 0 -15 9 -15 25 0 14 -4 25
-10 25 -5 0 -10 14 -10 30 0 20 -5 30 -15 30 -10 0 -15 10 -15 30 0 17 -4 30
-10 30 -5 0 -10 14 -10 30 0 20 -5 30 -15 30 -8 0 -15 9 -15 20 0 11 -4 20
-10 20 -5 0 -10 11 -10 25 0 16 -6 25 -15 25 -9 0 -15 9 -15 25 0 16 -6 25
-15 25 -9 0 -15 9 -15 25 0 14 -4 25 -10 25 -5 0 -10 11 -10 25 0 16 -6 25
-15 25 -10 0 -15 10 -15 30 0 17 -4 30 -10 30 -5 0 -10 16 -10 36 0 28 -3 35
-15 30 -12 -4 -15 3 -15 29 0 19 -4 35 -10 35 -5 0 -10 25 -10 55 0 42 -3 55
-15 55 -13 0 -15 29 -15 205 0 176 2 205 15 205 9 0 15 -9 15 -25z m-5720
-120 c0 -19 5 -35 10 -35 6 0 10 -73 10 -200 0 -127 -4 -200 -10 -200 -5 0
-10 -16 -10 -35 0 -24 -5 -35 -15 -35 -11 0 -15 -12 -15 -45 0 -25 -4 -45 -10
-45 -5 0 -10 -15 -10 -34 0 -19 -6 -36 -12 -39 -7 -2 -19 -26 -26 -53 -8 -27
-18 -58 -23 -69 -5 -11 -10 -32 -11 -47 -1 -16 -8 -28 -15 -28 -7 0 -13 -11
-13 -25 0 -14 -4 -25 -10 -25 -5 0 -10 -11 -10 -25 0 -14 -4 -25 -10 -25 -5 0
-12 -11 -16 -24 -3 -14 -12 -27 -20 -30 -8 -3 -14 -17 -14 -31 0 -14 -4 -25
-10 -25 -13 0 -40 -66 -40 -96 0 -15 -6 -24 -15 -24 -9 0 -15 -9 -15 -25 0
-14 -4 -25 -10 -25 -5 0 -10 -9 -10 -20 0 -11 -7 -20 -15 -20 -9 0 -15 -9 -15
-25 0 -14 -4 -25 -10 -25 -5 0 -10 -11 -10 -25 0 -14 -4 -25 -10 -25 -5 0 -10
-11 -10 -25 0 -16 -6 -25 -15 -25 -9 0 -15 -10 -15 -26 0 -26 -20 -54 -39 -54
-6 0 -11 -6 -11 -14 0 -17 -105 -25 -251 -18 l-109 5 6 41 c7 51 23 86 41 86
7 0 13 11 13 25 0 14 5 25 10 25 6 0 10 6 10 14 0 8 7 16 15 20 8 3 15 15 15
26 0 11 4 20 9 20 8 0 11 9 27 88 3 17 12 32 20 32 9 0 14 11 14 30 0 17 5 30
10 30 6 0 10 6 10 14 0 8 7 16 15 20 8 3 15 12 15 21 0 8 5 15 10 15 6 0 10
11 10 25 0 16 6 25 15 25 8 0 15 9 15 20 0 11 7 20 15 20 8 0 15 9 15 19 0 10
6 21 13 24 6 2 18 26 26 53 8 27 20 54 26 59 7 6 18 26 25 45 8 19 17 37 21
40 10 8 59 112 59 127 0 7 7 13 15 13 10 0 15 10 15 30 0 17 5 30 10 30 6 0
10 11 10 25 0 16 6 25 15 25 8 0 15 9 15 20 0 11 5 20 10 20 6 0 10 9 10 20 0
10 6 23 13 27 8 4 17 15 20 23 9 19 30 53 38 60 10 9 39 73 39 87 0 7 7 13 15
13 9 0 15 9 15 24 0 14 5 28 10 31 6 3 10 14 10 24 0 26 23 71 38 71 6 0 12 9
12 20 0 24 19 49 38 50 7 0 12 -13 12 -35z m3191 -697 c5 -8 72 -24 154 -35
22 -3 43 -10 46 -16 6 -9 39 -17 137 -34 18 -3 35 -9 38 -14 3 -5 16 -9 30 -9
13 0 24 -6 24 -13 0 -8 16 -22 35 -33 19 -10 35 -24 35 -31 0 -7 5 -13 11 -13
14 0 39 -25 39 -39 0 -6 6 -11 13 -11 7 0 19 -9 27 -20 8 -11 20 -20 27 -20 7
0 13 -7 13 -15 0 -8 5 -15 11 -15 14 0 39 -25 39 -39 0 -6 6 -11 13 -11 7 0
21 -11 31 -25 10 -13 21 -23 25 -21 4 3 8 -7 9 -22 1 -15 7 -28 12 -30 6 -2
10 -15 10 -28 0 -15 6 -24 15 -24 9 0 15 -9 15 -25 0 -14 5 -25 10 -25 6 0 10
-16 10 -35 0 -24 5 -35 14 -35 11 0 15 -20 18 -89 5 -133 14 -123 -110 -118
-126 6 -272 26 -272 38 0 5 -6 9 -13 9 -15 0 -38 71 -27 85 4 5 4 19 -1 30 -4
11 -8 57 -8 103 -1 66 -4 82 -16 82 -10 0 -15 10 -15 30 0 17 -4 30 -10 30 -5
0 -10 5 -10 11 0 21 -26 36 -87 48 -51 11 -70 11 -115 0 -77 -20 -80 -25 -74
-122 7 -117 16 -167 31 -167 13 0 22 -30 32 -106 l5 -41 -46 -7 c-25 -4 -46
-12 -46 -17 0 -6 -51 -9 -130 -8 -71 0 -130 5 -130 10 0 5 -21 9 -47 9 -49 0
-90 17 -65 27 17 7 17 222 -1 254 -28 54 -50 79 -69 79 -11 0 -26 7 -34 15 -9
8 -26 15 -39 15 -13 0 -30 -7 -39 -15 -8 -8 -29 -15 -46 -15 -18 0 -33 -6 -36
-15 -4 -8 -15 -15 -26 -15 -22 0 -48 -22 -48 -41 0 -6 -8 -18 -17 -25 -17 -12
-17 -15 0 -62 9 -27 17 -62 17 -77 0 -14 7 -33 15 -41 8 -9 15 -24 15 -35 0
-10 5 -19 10 -19 6 0 10 -7 10 -15 0 -8 -7 -15 -15 -15 -8 0 -15 -4 -15 -10 0
-6 -128 -10 -365 -10 -318 0 -365 2 -365 15 0 8 -5 15 -11 15 -7 0 -9 12 -5
35 3 19 9 52 12 73 4 20 13 46 20 57 8 11 14 30 14 42 0 13 5 23 10 23 6 0 10
9 10 20 0 11 5 20 10 20 6 0 10 5 10 12 0 6 6 19 13 27 7 9 19 35 27 59 7 23
18 42 25 42 6 0 17 16 25 35 8 19 18 35 23 35 12 0 37 26 37 39 0 6 6 11 13
11 7 0 19 9 27 20 8 11 24 20 36 20 12 0 30 11 40 25 10 14 24 25 31 25 7 0
13 7 13 15 0 9 9 15 25 15 16 0 25 6 25 15 0 9 9 15 25 15 16 0 25 6 25 15 0
9 9 15 25 15 14 0 25 5 25 10 0 6 11 10 24 10 14 0 28 5 31 10 3 6 22 10 41
10 24 0 34 5 34 15 0 10 11 15 35 15 19 0 35 5 35 10 0 6 18 10 39 10 22 0 46
7 54 15 10 9 42 15 93 18 120 6 418 -5 425 -15z"/>
<path d="M6633 9995 c-10 -11 -13 -86 -13 -305 0 -243 -2 -290 -14 -290 -11 0
-16 -23 -21 -95 -8 -101 -4 -135 20 -159 8 -8 15 -19 15 -25 0 -6 4 -11 9 -11
5 0 12 -9 16 -19 3 -11 25 -27 48 -36 36 -13 87 -15 367 -12 317 4 390 9 390
29 0 11 25 38 35 38 28 0 34 34 39 256 3 126 9 296 12 379 4 107 2 161 -7 190
-25 81 9 75 -463 75 -351 -1 -423 -3 -433 -15z"/>
<path d="M5978 9883 c-10 -2 -18 -9 -18 -14 0 -5 -13 -9 -30 -9 -20 0 -30 -5
-30 -15 0 -8 -4 -15 -10 -15 -5 0 -10 -9 -10 -20 0 -11 -7 -20 -15 -20 -13 0
-15 -58 -15 -457 0 -471 2 -498 41 -575 5 -10 9 -25 9 -33 0 -8 9 -15 20 -15
11 0 20 -4 20 -10 0 -5 5 -10 11 -10 6 0 17 -7 26 -15 18 -18 109 -17 106 0
-1 6 8 12 20 12 12 1 23 7 25 13 2 5 9 10 15 10 34 0 37 48 37 536 0 517 0
516 -52 575 -35 39 -113 71 -150 62z"/>
<path d="M8009 9832 c-15 -15 -30 -40 -35 -57 -13 -50 -17 -934 -3 -976 13
-43 49 -59 128 -59 51 0 81 15 81 39 0 6 5 11 11 11 15 0 37 25 49 55 6 16 10
192 10 454 0 415 -1 430 -21 480 -15 34 -28 51 -39 51 -10 0 -20 7 -24 15 -4
11 -21 15 -68 15 -55 -1 -66 -4 -89 -28z"/>
<path d="M4356 10003 c-4 -5 -278 -10 -608 -13 -469 -4 -602 -8 -606 -17 -2
-8 -23 -13 -57 -13 -30 0 -57 -4 -60 -10 -3 -5 -15 -10 -26 -10 -22 0 -49 -22
-49 -39 0 -6 -7 -11 -15 -11 -8 0 -15 -7 -15 -15 0 -8 -4 -15 -10 -15 -5 0
-10 -7 -10 -15 0 -8 -7 -15 -16 -15 -21 0 -43 -23 -55 -60 -6 -16 -17 -30 -25
-30 -8 0 -14 -10 -14 -25 0 -14 -4 -25 -10 -25 -5 0 -10 -7 -10 -15 0 -9 -11
-26 -25 -39 -14 -13 -25 -31 -25 -40 0 -9 -4 -16 -10 -16 -5 0 -12 -10 -15
-23 -4 -13 -17 -31 -31 -41 -13 -11 -24 -26 -24 -35 0 -9 -11 -25 -25 -35 -14
-10 -25 -27 -25 -37 0 -11 -4 -19 -10 -19 -5 0 -10 -6 -10 -14 0 -8 -7 -16
-15 -20 -8 -3 -15 -15 -15 -26 0 -11 -5 -20 -11 -20 -17 0 -38 -32 -39 -57 0
-14 -6 -23 -15 -23 -9 0 -15 -9 -15 -21 0 -21 -21 -49 -37 -49 -5 0 -15 -16
-22 -35 -7 -19 -19 -35 -27 -35 -8 0 -14 -7 -14 -15 0 -8 -4 -15 -10 -15 -5 0
-10 -5 -10 -11 0 -6 -6 -17 -12 -24 -29 -32 -38 -45 -38 -53 0 -19 -26 -62
-37 -62 -7 0 -13 -7 -13 -15 0 -8 -7 -15 -15 -15 -9 0 -15 -9 -15 -25 0 -14
-5 -25 -11 -25 -14 0 -57 -48 -65 -72 -3 -10 -10 -18 -15 -18 -5 0 -9 -9 -9
-19 0 -10 -7 -21 -15 -25 -8 -3 -15 -12 -15 -21 0 -8 -4 -15 -10 -15 -5 0 -10
-6 -10 -14 0 -8 -7 -16 -15 -20 -8 -3 -15 -14 -15 -23 0 -10 -9 -25 -20 -33
-11 -8 -20 -20 -20 -27 0 -7 -7 -13 -15 -13 -9 0 -15 -9 -15 -21 0 -22 -22
-49 -39 -49 -6 0 -11 -9 -11 -21 0 -23 -22 -49 -42 -49 -8 0 -20 -20 -27 -45
-7 -25 -18 -45 -23 -45 -13 0 -38 -26 -38 -39 0 -6 -5 -11 -12 -11 -6 0 -8 -3
-5 -6 4 -4 -2 -14 -12 -23 -10 -9 -24 -33 -32 -53 -7 -21 -17 -38 -22 -38 -14
0 -36 -32 -37 -52 0 -10 -6 -18 -12 -18 -13 0 -38 -44 -38 -67 0 -7 -6 -13
-13 -13 -7 0 -19 -16 -27 -35 -9 -22 -20 -35 -32 -35 -10 0 -18 -6 -18 -14 0
-8 -5 -16 -10 -18 -6 -2 -12 -13 -13 -25 0 -12 -4 -20 -7 -18 -10 6 -37 -30
-51 -69 -7 -20 -18 -36 -24 -36 -6 0 -17 -16 -25 -35 -8 -19 -24 -43 -37 -52
-13 -10 -23 -22 -23 -28 0 -6 -10 -22 -22 -36 -29 -32 -47 -59 -54 -81 -4 -10
-10 -18 -15 -18 -5 0 -9 -6 -9 -14 0 -7 -9 -16 -20 -19 -11 -3 -20 -13 -20
-22 0 -10 -8 -25 -19 -34 -10 -9 -21 -26 -25 -38 -4 -13 -12 -23 -17 -23 -5 0
-9 -7 -9 -15 0 -8 -4 -15 -10 -15 -5 0 -10 -9 -10 -20 0 -11 -7 -20 -15 -20
-8 0 -15 -7 -15 -15 0 -8 -4 -15 -10 -15 -5 0 -10 -8 -10 -19 0 -10 -11 -27
-25 -37 -14 -10 -25 -27 -25 -37 0 -10 -11 -28 -25 -41 -14 -13 -25 -28 -25
-35 0 -6 -7 -11 -15 -11 -8 0 -15 -9 -15 -21 0 -11 -12 -34 -27 -50 -16 -16
-38 -41 -50 -54 -13 -13 -23 -33 -23 -45 0 -11 -7 -20 -15 -20 -8 0 -15 -7
-15 -15 0 -8 -4 -15 -10 -15 -5 0 -10 -7 -10 -15 0 -8 -6 -15 -13 -15 -7 0
-19 -16 -26 -35 -7 -19 -19 -35 -27 -35 -8 0 -14 -7 -14 -15 0 -8 -4 -15 -10
-15 -5 0 -10 -5 -10 -11 0 -6 -6 -16 -12 -23 -7 -8 -20 -23 -28 -35 -8 -11
-20 -21 -27 -21 -7 0 -13 -7 -13 -15 0 -8 -9 -30 -20 -50 -11 -20 -20 -44 -20
-55 0 -13 -7 -20 -20 -20 -13 0 -20 -7 -20 -20 0 -11 -4 -20 -10 -20 -5 0 -10
-11 -10 -25 0 -14 -6 -25 -13 -25 -7 0 -18 -23 -25 -53 -15 -64 -16 -327 -2
-327 6 0 10 -16 10 -35 0 -24 5 -35 15 -35 9 0 15 -10 15 -26 0 -29 21 -54 44
-54 9 0 16 -5 16 -10 0 -13 46 -60 58 -60 42 0 46 -83 62 -1145 5 -368 12
-699 16 -735 4 -49 12 -70 29 -88 13 -13 25 -33 27 -45 2 -14 11 -23 25 -25
13 -2 23 -8 23 -13 0 -29 50 8 50 38 1 21 23 53 38 53 5 0 13 11 16 25 4 14
11 25 16 25 6 0 10 11 10 25 0 16 6 25 15 25 8 0 15 8 15 18 1 21 23 52 39 52
6 0 11 11 11 25 0 14 5 25 10 25 6 0 10 14 10 30 0 20 5 30 15 30 9 0 15 9 15
25 0 14 5 25 10 25 6 0 10 11 10 24 0 13 7 26 15 30 8 3 15 16 15 29 0 13 9
33 20 45 11 12 20 30 20 42 0 11 7 20 15 20 10 0 15 10 15 30 0 17 5 30 10 30
6 0 10 11 10 25 0 18 5 25 20 25 15 0 20 7 20 25 0 14 5 25 10 25 6 0 10 11
10 25 0 16 6 25 15 25 9 0 15 9 15 21 0 22 22 49 39 49 6 0 11 11 11 25 0 14
5 25 10 25 6 0 10 9 10 19 0 11 8 27 17 37 17 16 18 50 14 451 -2 308 0 433 8
433 6 0 11 7 11 15 0 8 3 15 8 15 4 0 21 14 39 30 18 17 37 30 42 30 6 0 11 7
11 15 0 9 9 15 24 15 14 0 28 5 31 10 3 6 15 10 25 10 10 0 23 6 27 14 10 17
336 32 598 27 99 -2 317 -3 485 -2 2150 8 9107 10 9155 2 33 -6 144 -11 248
-12 152 -1 187 -4 187 -15 0 -9 11 -14 30 -14 17 0 30 -4 30 -10 0 -5 6 -10
13 -10 7 0 24 -11 39 -25 15 -14 32 -25 38 -25 5 0 10 -7 10 -15 0 -8 5 -15
10 -15 6 0 10 -9 10 -20 0 -11 6 -20 14 -20 10 0 15 -20 20 -72 12 -150 17
-448 9 -583 -8 -134 0 -225 19 -225 4 0 8 -13 8 -30 0 -20 5 -30 15 -30 9 0
15 -9 15 -21 0 -12 11 -32 25 -45 14 -13 25 -30 25 -39 0 -8 5 -15 10 -15 6 0
10 -11 10 -25 0 -18 5 -25 20 -25 15 0 20 -7 20 -25 0 -14 4 -25 10 -25 5 0
12 -11 16 -25 3 -14 9 -25 13 -25 5 0 14 -18 21 -40 7 -22 19 -40 27 -40 7 0
13 -11 13 -25 0 -14 5 -25 10 -25 6 0 10 -8 10 -17 0 -25 31 -103 41 -103 5 0
9 -9 9 -19 0 -11 5 -23 10 -26 6 -3 10 -19 10 -36 0 -19 5 -29 15 -29 9 0 15
-9 15 -25 0 -14 5 -25 10 -25 6 0 10 -9 10 -20 0 -11 7 -20 15 -20 9 0 15 -9
15 -25 0 -14 5 -25 10 -25 6 0 10 -11 10 -24 0 -14 8 -31 18 -38 10 -7 21 -21
25 -31 4 -11 16 -21 27 -24 11 -3 20 -12 20 -19 0 -18 16 -18 23 -1 2 7 18 14
33 15 16 1 31 7 32 12 2 6 8 10 14 10 16 0 38 27 38 48 0 11 6 22 14 25 15 6
14 -46 35 1252 10 597 18 675 73 675 41 0 88 46 88 87 0 7 5 13 10 13 6 0 10
10 10 23 0 12 7 31 15 41 22 29 22 288 0 310 -8 8 -15 28 -15 45 0 17 -4 31
-10 31 -5 0 -10 13 -10 28 0 32 -27 92 -41 92 -5 0 -9 7 -9 15 0 8 -7 15 -15
15 -9 0 -15 9 -15 24 0 13 -11 31 -25 42 -14 10 -25 26 -25 35 0 9 -11 25 -25
35 -14 10 -25 24 -25 31 0 7 -7 13 -15 13 -9 0 -15 9 -15 21 0 22 -22 49 -39
49 -6 0 -11 7 -11 15 0 8 -4 15 -10 15 -5 0 -10 11 -10 25 0 14 -4 25 -10 25
-5 0 -10 7 -10 15 0 9 -7 18 -15 21 -8 4 -15 13 -15 21 0 17 -24 43 -39 43 -6
0 -11 9 -11 21 0 24 -22 49 -44 49 -10 0 -16 9 -16 25 0 14 -4 25 -10 25 -5 0
-10 7 -10 15 0 8 -6 15 -12 15 -13 0 -38 44 -38 67 0 7 -6 13 -14 13 -8 0 -20
16 -27 35 -7 19 -19 35 -26 35 -7 0 -13 7 -13 15 0 8 -4 15 -10 15 -5 0 -10 9
-10 20 0 11 -4 20 -10 20 -5 0 -10 7 -10 15 0 8 -7 15 -15 15 -9 0 -15 9 -15
21 0 22 -22 49 -39 49 -6 0 -11 9 -11 19 0 26 -32 81 -47 81 -7 0 -13 7 -13
15 0 8 -4 15 -10 15 -5 0 -10 7 -10 15 0 8 -7 15 -15 15 -9 0 -15 9 -15 21 0
22 -22 49 -39 49 -6 0 -11 10 -11 23 0 12 -9 29 -20 37 -11 8 -20 20 -20 26 0
7 -7 14 -15 18 -8 3 -15 15 -15 26 0 22 -21 50 -39 50 -5 0 -15 16 -21 35 -6
19 -18 35 -26 35 -8 0 -14 8 -14 18 -1 24 -24 52 -44 52 -9 0 -16 7 -16 15 0
8 -4 15 -10 15 -5 0 -10 11 -10 25 0 16 -6 25 -15 25 -8 0 -15 7 -15 15 0 8
-4 15 -10 15 -5 0 -10 9 -10 21 0 22 -22 49 -39 49 -6 0 -11 11 -11 25 0 14
-4 25 -10 25 -5 0 -10 7 -10 15 0 8 -5 15 -11 15 -11 0 -40 25 -39 35 1 25 -2
35 -11 35 -19 0 -39 28 -39 54 0 16 -6 26 -15 26 -8 0 -15 7 -15 15 0 8 -4 15
-9 15 -5 0 -13 9 -16 20 -3 11 -13 20 -21 20 -8 0 -14 6 -14 13 0 7 -9 19 -20
27 -11 8 -20 25 -20 37 0 14 -6 23 -15 23 -8 0 -15 7 -15 15 0 8 -4 15 -10 15
-5 0 -10 11 -10 25 0 14 -5 25 -11 25 -19 0 -39 28 -39 54 0 14 -5 26 -11 26
-17 0 -39 27 -39 49 0 12 -6 21 -15 21 -8 0 -15 5 -15 11 0 13 -25 39 -37 39
-5 0 -15 16 -22 35 -7 19 -17 35 -22 35 -5 0 -9 7 -9 15 0 8 -9 15 -20 15 -13
0 -20 7 -20 20 0 11 -4 20 -10 20 -5 0 -10 9 -10 20 0 11 -5 20 -11 20 -17 0
-39 27 -39 49 0 12 -6 21 -15 21 -8 0 -15 7 -15 15 0 8 -4 15 -10 15 -5 0 -10
9 -10 20 0 11 -7 20 -15 20 -8 0 -15 7 -15 15 0 8 -4 15 -9 15 -5 0 -12 11
-15 25 -4 14 -11 23 -16 20 -6 -3 -10 1 -10 9 0 9 -4 16 -10 16 -5 0 -10 9
-10 20 0 11 -4 20 -10 20 -5 0 -10 9 -10 20 0 11 -7 20 -15 20 -8 0 -15 7 -15
15 0 8 -4 15 -10 15 -5 0 -10 11 -10 25 0 16 -6 25 -16 25 -17 0 -44 23 -44
38 0 6 -7 12 -15 16 -8 3 -15 12 -15 21 0 8 -4 15 -10 15 -5 0 -10 7 -10 15 0
8 -7 15 -15 15 -9 0 -15 9 -15 25 0 14 -4 25 -10 25 -5 0 -10 7 -10 15 0 8 -7
15 -15 15 -9 0 -15 9 -15 25 0 14 -4 25 -9 25 -5 0 -15 16 -22 35 -7 19 -19
35 -26 35 -7 0 -13 11 -13 25 0 14 -4 25 -10 25 -5 0 -10 6 -10 13 0 7 -11 24
-25 39 -14 15 -25 32 -25 38 0 5 -8 10 -18 10 -9 0 -23 13 -30 30 -8 17 -20
30 -28 30 -8 0 -14 4 -14 8 0 4 -17 14 -37 22 -21 7 -42 19 -48 26 -8 10 -113
14 -465 18 -250 3 -654 9 -898 12 l-443 6 3 -144 3 -143 55 -7 c30 -3 228 -7
440 -7 212 -1 430 -6 485 -12 69 -6 187 -6 377 2 245 10 279 9 293 -4 8 -9 15
-20 15 -26 0 -6 5 -11 11 -11 17 0 53 -46 65 -82 4 -10 10 -18 15 -18 5 0 9
-9 9 -20 0 -11 7 -23 15 -26 8 -4 15 -12 15 -20 0 -8 4 -14 8 -14 5 0 14 -16
22 -35 8 -19 20 -35 27 -35 7 0 13 -8 13 -17 1 -22 23 -53 39 -53 6 0 11 -7
11 -15 0 -8 5 -15 10 -15 6 0 10 -9 10 -20 0 -13 7 -20 20 -20 13 0 20 -7 20
-20 0 -11 5 -20 10 -20 6 0 10 -11 10 -25 0 -14 5 -25 11 -25 17 0 39 -27 39
-49 0 -12 5 -21 11 -21 20 0 59 -56 59 -85 0 -8 5 -15 11 -15 19 0 39 -28 39
-54 0 -14 5 -26 11 -26 17 0 39 -27 39 -49 0 -12 6 -21 15 -21 8 0 15 -7 15
-15 0 -8 5 -15 10 -15 6 0 10 -9 10 -20 0 -13 7 -20 20 -20 11 0 20 -7 20 -15
0 -8 5 -15 10 -15 6 0 10 -11 10 -25 0 -14 5 -25 11 -25 16 0 39 -27 39 -47 1
-22 23 -53 39 -53 6 0 11 -6 11 -13 0 -23 25 -67 38 -67 6 0 12 -9 12 -21 0
-22 22 -49 39 -49 6 0 11 -9 11 -20 0 -11 5 -20 10 -20 6 0 10 -7 10 -15 0 -8
6 -15 14 -15 7 0 19 -20 26 -45 9 -32 18 -45 31 -45 11 0 22 -13 30 -35 7 -19
16 -35 20 -35 4 0 11 -9 14 -20 4 -11 11 -18 16 -15 5 4 9 -3 9 -14 0 -12 5
-21 10 -21 6 0 10 -7 10 -15 0 -8 7 -15 15 -15 8 0 15 -9 15 -20 0 -11 5 -20
10 -20 6 0 10 -7 10 -15 0 -8 7 -15 15 -15 8 0 15 -7 15 -15 0 -8 5 -15 10
-15 6 0 10 -9 10 -20 0 -11 7 -23 15 -26 8 -4 15 -10 15 -16 0 -13 26 -38 39
-38 6 0 11 -10 11 -21 0 -12 8 -29 19 -38 10 -9 20 -25 23 -36 2 -11 11 -19
21 -19 9 1 17 -4 17 -12 0 -8 5 -14 10 -14 6 0 10 -7 10 -15 0 -8 7 -15 15
-15 9 0 15 -10 15 -26 0 -14 6 -32 13 -39 27 -31 37 -44 37 -50 0 -10 28 -35
39 -35 6 0 11 -11 11 -25 0 -14 5 -25 10 -25 6 0 10 -7 10 -15 0 -8 6 -15 14
-15 8 0 16 -10 20 -23 7 -28 39 -67 55 -67 6 0 11 -13 11 -30 0 -16 5 -30 10
-30 6 0 10 -7 10 -15 0 -8 7 -15 16 -15 22 0 44 -25 44 -49 0 -12 5 -21 11
-21 17 0 39 -27 39 -49 0 -12 6 -21 15 -21 8 0 15 -7 15 -15 0 -8 5 -15 10
-15 6 0 10 -10 10 -21 0 -12 13 -35 30 -50 16 -16 32 -40 36 -54 3 -14 12 -25
20 -25 8 0 14 -7 14 -15 0 -8 5 -15 10 -15 6 0 10 -7 10 -16 0 -18 60 -81 73
-76 5 1 6 -2 2 -8 -3 -5 -1 -10 4 -10 6 0 11 -7 11 -15 0 -8 5 -15 10 -15 6 0
10 -7 10 -15 0 -8 7 -15 15 -15 8 0 15 -7 15 -15 0 -8 5 -15 10 -15 6 0 10 -8
10 -19 0 -10 11 -27 25 -37 20 -15 25 -28 25 -62 0 -51 -13 -67 -63 -76 -20
-4 -37 -11 -37 -16 0 -5 -80 -12 -177 -15 -341 -11 -10377 -15 -10833 -4 -430
10 -436 11 -485 35 -28 13 -56 24 -63 24 -16 0 -16 73 0 117 7 18 18 33 25 33
7 0 18 18 24 40 9 28 18 40 31 40 12 0 18 7 18 21 0 22 22 49 39 49 6 0 11 10
11 21 0 12 8 29 19 38 10 9 21 26 25 39 4 12 12 22 17 22 5 0 9 11 9 24 0 13
7 26 15 30 8 3 15 13 15 23 1 21 23 53 37 53 5 0 16 18 23 40 7 22 17 40 22
40 4 0 8 6 8 14 0 8 7 16 15 20 8 3 15 12 15 21 0 8 5 15 10 15 6 0 10 7 10
15 0 8 6 15 14 15 8 0 18 9 21 20 3 11 11 20 16 20 5 0 9 9 9 20 0 11 7 20 15
20 8 0 15 9 15 20 0 11 5 20 10 20 6 0 10 7 10 15 0 8 7 15 15 15 8 0 15 9 15
19 0 10 11 29 25 42 13 13 25 31 25 39 0 9 9 22 20 30 11 8 20 20 20 26 0 7 7
14 15 18 8 3 15 15 15 26 0 11 5 20 10 20 6 0 10 7 10 15 0 8 7 15 15 15 8 0
15 8 15 18 1 24 24 52 44 52 9 0 16 7 16 15 0 8 5 15 10 15 6 0 10 5 10 11 0
6 6 16 13 23 6 8 19 23 27 35 8 11 20 21 27 21 7 0 13 11 13 25 0 14 5 25 10
25 6 0 10 7 10 15 0 8 5 15 10 15 6 0 10 7 10 15 0 16 8 28 50 72 13 15 25 33
27 42 1 9 7 17 12 19 6 2 11 10 11 18 0 8 7 14 15 14 9 0 15 9 15 21 0 22 22
49 39 49 6 0 11 7 11 15 0 8 4 15 10 15 5 0 12 11 16 25 3 14 12 25 20 25 8 0
14 6 14 13 0 7 9 19 20 27 11 8 20 20 20 28 0 7 11 23 25 36 14 13 25 28 25
34 0 5 7 12 15 16 8 3 15 13 15 23 0 10 11 27 25 37 14 10 25 27 25 37 0 11 5
19 10 19 6 0 10 7 10 15 0 8 7 15 15 15 8 0 15 6 15 13 0 23 25 67 38 67 6 0
12 9 12 20 0 11 6 23 13 26 8 3 20 20 27 39 8 19 18 35 23 35 16 0 37 28 37
49 0 12 5 21 11 21 17 0 38 32 39 58 0 12 6 22 13 22 12 0 37 44 37 67 0 7 5
13 11 13 14 0 57 48 65 73 3 9 10 17 15 17 5 0 9 9 9 19 0 11 5 23 10 26 6 3
10 15 10 26 0 12 7 19 18 19 12 0 23 13 32 35 8 19 19 35 25 35 6 0 17 16 24
35 7 19 19 35 27 35 8 0 14 5 14 10 0 6 11 22 25 36 14 14 25 30 25 35 0 12
25 39 37 39 4 0 14 18 21 41 12 39 33 69 47 69 6 0 19 10 49 37 10 9 153 13
557 16 530 4 854 18 873 37 6 6 75 10 156 10 80 0 182 3 228 7 l83 6 -3 126
-3 126 -366 3 c-201 1 -369 -1 -373 -5z m-3386 -3563 c0 -7 746 -10 2219 -10
1963 0 2220 -2 2225 -15 4 -12 26 -15 98 -16 64 -1 84 -4 63 -9 -19 -5 8 -8
75 -7 73 0 93 2 65 7 -30 5 -16 8 58 9 59 0 97 -3 97 -9 0 -6 37 -10 93 -9 64
1 83 4 62 9 -19 5 25 8 115 9 98 2 138 5 123 11 -13 5 -23 12 -23 15 0 2 1512
5 3360 5 2986 0 3360 -2 3360 -15 0 -10 10 -15 30 -15 17 0 30 -4 30 -10 0 -5
7 -10 15 -10 8 0 15 -7 15 -15 0 -8 5 -15 10 -15 15 0 12 -39 -4 -56 -8 -8
-33 -14 -55 -14 -23 0 -41 -4 -41 -10 0 -13 -167 -13 -175 0 -8 13 -434 11
-451 -2 -10 -7 -822 -6 -2749 6 -405 3 -701 1 -690 -4 12 -5 -82 -9 -235 -9
-168 -1 -250 3 -240 9 10 6 -556 10 -1605 9 -913 0 -1611 -4 -1600 -9 11 -5
-502 -8 -1180 -8 -660 0 -1189 4 -1175 8 14 5 -157 6 -380 4 -1515 -15 -1560
-15 -1560 -2 0 9 -3 8 -10 -2 -6 -10 -10 -11 -10 -2 0 7 -13 12 -30 12 l-30 0
0 75 c0 73 1 75 25 75 14 0 25 5 25 10 0 6 18 10 40 10 22 0 40 -4 40 -10z"/>
<path d="M4258 6403 c12 -2 32 -2 45 0 12 2 2 4 -23 4 -25 0 -35 -2 -22 -4z"/>
<path d="M1673 5424 c4 -42 7 -117 7 -165 0 -64 4 -92 15 -103 8 -8 15 -19 15
-25 0 -15 11 -14 24 3 17 22 60 27 82 11 15 -12 16 -16 6 -23 -13 -9 -27 -51
-39 -117 -3 -16 -12 -34 -19 -38 -8 -4 -14 -16 -14 -26 0 -21 -22 -71 -32 -71
-5 0 -8 -11 -8 -25 0 -16 -6 -25 -15 -25 -8 0 -15 -9 -15 -20 0 -11 -4 -20
-10 -20 -5 0 -10 -7 -10 -15 0 -8 -7 -15 -15 -15 -9 0 -15 -9 -15 -25 0 -14
-4 -25 -10 -25 -5 0 -10 -13 -10 -29 0 -16 -6 -31 -15 -35 -8 -3 -15 -12 -15
-21 0 -8 -4 -15 -10 -15 -5 0 -10 -11 -10 -25 0 -18 -5 -25 -20 -25 -15 0 -20
-7 -20 -25 0 -14 -4 -25 -10 -25 -5 0 -10 -5 -10 -12 0 -6 -6 -19 -14 -27 -7
-9 -24 -45 -36 -81 -12 -36 -29 -72 -36 -81 -8 -8 -14 -23 -14 -32 0 -9 -4
-17 -10 -17 -5 0 -10 -11 -10 -25 0 -16 -6 -25 -15 -25 -9 0 -15 -9 -15 -25 0
-14 -4 -25 -10 -25 -5 0 -10 -11 -10 -25 0 -16 -6 -25 -15 -25 -10 0 -15 -10
-15 -30 0 -16 -4 -30 -10 -30 -5 0 -10 -11 -10 -25 0 -16 -6 -25 -15 -25 -8 0
-15 -9 -15 -20 0 -11 -4 -20 -10 -20 -5 0 -10 -11 -10 -25 0 -18 -5 -25 -20
-25 -15 0 -20 -7 -20 -25 0 -14 -4 -25 -10 -25 -5 0 -10 -11 -10 -25 0 -16 -6
-25 -15 -25 -10 0 -15 -10 -15 -30 0 -16 -4 -30 -10 -30 -5 0 -10 -11 -10 -24
0 -14 -4 -28 -10 -31 -5 -3 -10 -15 -10 -26 0 -10 -7 -19 -15 -19 -8 0 -15 -9
-15 -20 0 -11 -4 -20 -10 -20 -5 0 -10 -7 -10 -15 0 -12 -19 -15 -110 -15
-114 0 -179 -15 -210 -50 -8 -10 -25 -20 -37 -24 -13 -4 -23 -12 -23 -17 0 -5
-7 -9 -15 -9 -8 0 -15 -5 -15 -11 0 -14 -25 -39 -39 -39 -6 0 -11 -6 -11 -13
0 -7 -9 -19 -20 -27 -11 -8 -20 -25 -20 -37 0 -15 -6 -23 -17 -23 -19 0 -43
-41 -43 -71 0 -10 -6 -22 -14 -26 -7 -4 -17 -30 -21 -58 -20 -121 1 -575 25
-560 5 3 11 -34 14 -82 4 -73 9 -144 25 -350 1 -7 7 -13 15 -13 11 0 16 -22
20 -97 3 -54 10 -154 16 -223 5 -69 13 -192 17 -273 5 -92 12 -150 19 -155 7
-4 14 -54 18 -127 14 -283 22 -369 34 -373 8 -2 12 -27 12 -73 0 -39 4 -69 10
-69 6 0 10 -18 10 -40 0 -27 5 -43 15 -46 8 -3 20 -21 27 -40 6 -19 16 -34 21
-34 12 0 37 -26 37 -39 0 -6 5 -11 11 -11 14 0 39 -25 39 -39 0 -6 13 -11 28
-11 16 0 34 -8 42 -20 8 -12 31 -23 52 -27 21 -3 38 -9 38 -13 0 -5 21 -11 48
-15 26 -4 2650 -8 5832 -9 4487 -1 5800 2 5850 11 122 23 130 25 130 39 0 8
10 14 25 14 14 0 25 5 25 10 0 6 11 10 25 10 16 0 25 6 25 15 0 8 9 15 20 15
11 0 20 4 20 9 0 5 8 12 18 15 9 3 26 19 37 36 11 16 26 30 33 30 6 0 12 7 12
15 0 8 5 15 10 15 6 0 10 14 10 30 0 17 5 30 10 30 6 0 10 11 10 24 0 13 6 29
14 35 15 13 23 76 32 251 3 60 10 108 16 111 11 7 23 135 34 384 4 72 11 136
16 142 11 14 26 191 35 410 3 73 8 131 13 128 11 -7 20 59 20 152 0 55 4 83
12 85 8 3 14 34 16 89 3 46 8 86 12 89 9 5 28 158 40 315 8 112 1 285 -12 285
-4 0 -8 11 -8 25 0 14 -7 28 -15 31 -8 4 -15 15 -15 25 0 10 -7 19 -15 19 -8
0 -15 8 -15 19 0 10 -11 27 -25 37 -14 10 -25 24 -25 31 0 7 -6 13 -13 13 -8
0 -22 16 -33 35 -10 19 -27 38 -36 41 -10 3 -18 10 -18 15 0 5 -7 9 -15 9 -8
0 -15 6 -15 13 0 26 -54 37 -177 37 -103 0 -123 2 -123 15 0 8 -7 15 -15 15
-8 0 -15 5 -15 12 0 26 -46 128 -57 128 -8 0 -13 13 -13 30 0 17 -4 30 -10 30
-5 0 -10 11 -10 25 0 16 -6 25 -15 25 -9 0 -15 9 -15 25 0 14 -4 25 -10 25 -5
0 -10 11 -10 25 0 18 -5 25 -20 25 -13 0 -20 7 -20 20 0 11 -4 20 -10 20 -5 0
-10 11 -10 25 0 16 -6 25 -15 25 -10 0 -15 10 -15 30 0 17 -4 30 -9 30 -5 0
-13 10 -17 23 -4 12 -10 24 -13 27 -4 3 -18 32 -31 65 -12 33 -28 65 -34 70
-17 16 -36 53 -36 70 0 8 -7 15 -15 15 -10 0 -15 10 -15 30 0 17 -4 30 -10 30
-5 0 -10 9 -10 20 0 11 -7 20 -15 20 -9 0 -15 9 -15 25 0 14 -4 25 -10 25 -5
0 -10 11 -10 25 0 18 -5 25 -20 25 -15 0 -20 7 -20 25 0 14 -4 25 -10 25 -5 0
-10 11 -10 25 0 16 -6 25 -15 25 -8 0 -15 9 -15 20 0 11 -4 28 -9 38 -5 9 -17
34 -27 55 -10 20 -21 37 -24 37 -3 0 -14 23 -24 50 -10 28 -22 50 -27 50 -5 0
-9 11 -9 25 0 14 -4 25 -10 25 -5 0 -10 14 -10 30 0 20 -5 30 -15 30 -10 0
-15 11 -15 35 0 19 -4 35 -10 35 -5 0 -10 16 -10 35 0 24 -5 35 -15 35 -8 0
-15 7 -15 15 0 8 7 15 16 15 8 0 12 -4 9 -10 -3 -5 1 -10 9 -10 9 0 16 -7 16
-15 0 -8 7 -15 15 -15 8 0 15 -6 15 -13 0 -8 18 -20 41 -27 35 -12 42 -12 50
1 5 8 9 91 9 186 0 149 -2 174 -17 189 -15 15 -34 16 -158 11 -77 -3 -153 -10
-168 -16 -16 -6 -93 -11 -173 -11 l-144 0 0 -32 c0 -50 23 -138 36 -138 11 0
17 -19 31 -97 4 -24 11 -33 24 -33 11 0 19 -7 19 -17 0 -10 9 -29 20 -43 11
-14 20 -32 20 -41 0 -9 7 -19 15 -23 8 -3 15 -15 15 -26 0 -11 5 -20 10 -20 6
0 10 -11 10 -25 0 -16 6 -25 15 -25 9 0 15 -9 15 -25 0 -14 5 -25 10 -25 6 0
10 -11 10 -25 0 -16 6 -25 15 -25 8 0 15 -8 15 -17 0 -10 7 -27 15 -37 8 -10
12 -23 9 -28 -3 -4 1 -11 9 -14 9 -3 20 -20 27 -37 18 -49 64 -142 73 -145 4
-2 7 -15 7 -28 0 -17 6 -24 20 -24 15 0 20 -7 20 -25 0 -14 5 -25 10 -25 6 0
10 -9 10 -20 0 -11 7 -20 15 -20 10 0 15 -10 15 -30 0 -16 5 -30 10 -30 6 0
10 -11 10 -25 0 -14 4 -25 8 -25 9 0 42 -69 42 -87 0 -6 7 -13 15 -17 8 -3 15
-15 15 -26 0 -11 5 -20 10 -20 6 0 10 -11 10 -24 0 -13 7 -29 15 -36 8 -7 15
-20 15 -30 0 -9 6 -30 14 -46 8 -16 19 -41 25 -56 6 -16 15 -28 21 -28 5 0 10
-11 10 -25 0 -14 5 -25 10 -25 6 0 10 -11 10 -25 0 -18 5 -25 20 -25 15 0 20
-7 20 -25 0 -14 5 -25 10 -25 6 0 10 -13 10 -30 0 -16 5 -30 11 -30 17 0 39
-27 39 -49 0 -12 6 -21 15 -21 9 0 15 -9 15 -25 0 -16 -6 -25 -15 -25 -8 0
-15 -4 -15 -10 0 -6 -81 -10 -222 -10 -237 1 -258 5 -258 49 0 12 -6 21 -15
21 -9 0 -15 9 -15 25 0 14 -4 25 -10 25 -5 0 -10 9 -10 19 0 11 -6 26 -12 33
-22 23 -38 57 -38 78 0 11 -7 20 -15 20 -9 0 -15 9 -15 25 0 14 -4 25 -10 25
-5 0 -10 11 -10 25 0 16 -6 25 -15 25 -9 0 -15 9 -15 25 0 14 -4 25 -10 25 -5
0 -10 14 -10 30 0 20 -5 30 -15 30 -8 0 -15 9 -15 20 0 11 -4 20 -10 20 -5 0
-10 11 -10 25 0 14 -4 25 -10 25 -5 0 -10 11 -10 25 0 18 -5 25 -20 25 -15 0
-20 7 -20 25 0 14 -4 25 -10 25 -5 0 -10 11 -10 25 0 16 -6 25 -15 25 -9 0
-15 9 -15 25 0 14 -4 25 -10 25 -5 0 -10 10 -10 23 0 12 -9 30 -20 40 -11 9
-23 31 -27 48 -3 17 -12 33 -19 36 -8 3 -14 16 -14 29 0 13 -4 24 -10 24 -5 0
-10 8 -10 18 0 10 -8 25 -18 33 -11 9 -29 48 -42 88 -13 39 -27 71 -32 71 -4
0 -8 9 -8 20 0 11 -4 20 -10 20 -5 0 -10 11 -10 25 0 18 -5 25 -20 25 -15 0
-20 7 -20 25 0 14 -4 25 -9 25 -5 0 -11 18 -15 40 -3 22 -11 40 -16 40 -6 0
-10 32 -10 74 0 56 4 75 15 80 9 3 15 18 15 36 0 16 5 30 10 30 6 0 10 25 10
56 0 41 5 60 17 69 10 8 18 32 21 68 l4 55 -83 5 c-46 3 -129 10 -184 15 -158
16 -8000 11 -8016 -5 -10 -10 -61 -13 -186 -13 -94 0 -195 -5 -222 -11 -49
-10 -50 -11 -44 -42 3 -18 9 -34 14 -37 4 -3 9 -30 12 -60 6 -72 17 -113 33
-125 33 -26 31 -259 -2 -272 -8 -3 -14 -16 -14 -29 0 -13 -4 -24 -10 -24 -5 0
-10 -11 -10 -25 0 -14 -6 -25 -13 -25 -7 0 -19 -16 -27 -35 -7 -19 -19 -36
-27 -39 -7 -3 -13 -15 -13 -26 0 -11 -7 -20 -15 -20 -10 0 -15 -10 -15 -30 0
-16 -4 -30 -10 -30 -5 0 -10 -9 -10 -20 0 -11 -7 -20 -15 -20 -9 0 -15 -9 -15
-25 0 -27 -19 -75 -31 -75 -4 0 -10 -11 -13 -25 -4 -14 -11 -25 -16 -25 -6 0
-10 -11 -10 -25 0 -16 -6 -25 -15 -25 -10 0 -15 -10 -15 -30 0 -16 -4 -30 -10
-30 -5 0 -10 -9 -10 -20 0 -11 -7 -23 -15 -26 -8 -4 -15 -15 -15 -25 0 -10 -4
-19 -10 -19 -5 0 -10 -11 -10 -25 0 -14 -4 -25 -10 -25 -5 0 -10 -11 -10 -25
0 -16 -6 -25 -15 -25 -9 0 -15 -9 -15 -25 0 -16 -6 -25 -15 -25 -10 0 -15 -10
-15 -30 0 -20 -5 -30 -15 -30 -9 0 -15 -9 -15 -25 0 -14 -4 -25 -10 -25 -5 0
-10 -9 -10 -20 0 -11 -7 -20 -15 -20 -9 0 -15 -9 -15 -25 0 -14 -4 -25 -10
-25 -5 0 -10 -11 -10 -25 0 -16 -6 -25 -15 -25 -8 0 -15 -7 -15 -16 0 -9 -8
-28 -18 -42 -11 -15 -27 -52 -37 -82 -11 -30 -23 -59 -27 -64 -4 -6 -8 -18 -8
-28 0 -17 -17 -18 -280 -18 -299 0 -296 -1 -271 48 5 9 15 36 22 60 7 23 16
42 20 42 5 0 11 16 15 35 3 19 10 35 15 35 5 0 9 11 9 25 0 18 5 25 19 25 14
0 20 10 25 40 3 22 15 48 26 57 11 10 20 25 20 35 0 10 5 18 10 18 6 0 10 14
10 30 0 17 4 30 9 30 11 0 41 56 41 75 0 7 7 15 15 19 8 3 15 15 15 26 0 11 5
20 10 20 6 0 10 11 10 25 0 14 5 25 10 25 6 0 10 11 10 25 0 16 6 25 15 25 9
0 15 9 15 25 0 14 5 25 10 25 6 0 10 14 10 30 0 20 5 30 15 30 8 0 15 9 15 20
0 11 5 20 10 20 6 0 10 11 10 25 0 18 5 25 20 25 15 0 20 7 20 25 0 14 5 25
10 25 6 0 10 11 10 25 0 16 6 25 15 25 9 0 15 9 15 25 0 14 5 25 10 25 6 0 10
14 10 30 0 20 5 30 15 30 9 0 15 9 15 25 0 14 5 25 10 25 6 0 10 9 10 20 0 11
5 20 10 20 6 0 10 11 10 25 0 16 6 25 15 25 9 0 15 9 15 25 0 14 5 25 10 25 6
0 10 11 10 25 0 16 6 25 15 25 10 0 15 10 15 30 0 17 5 30 10 30 6 0 10 5 10
10 0 6 5 16 10 23 47 55 61 74 66 90 3 9 11 17 19 17 7 0 15 8 19 18 8 24 28
54 49 73 9 9 17 22 17 28 0 7 6 19 13 26 32 37 37 46 37 70 0 14 5 25 11 25 5
0 7 5 4 10 -3 6 -1 10 4 10 6 0 11 9 11 20 0 17 -7 20 -43 20 -24 0 -49 6 -55
13 -10 9 -91 13 -319 15 l-306 4 6 -78z m8229 -234 c2 -5 31 -13 66 -16 34 -4
62 -11 62 -15 0 -5 7 -9 15 -9 8 0 15 -7 15 -15 0 -8 5 -15 10 -15 6 0 10 -9
10 -20 0 -11 7 -20 15 -20 9 0 15 -9 15 -25 0 -14 5 -25 10 -25 6 0 10 -16 10
-35 0 -20 6 -38 13 -41 8 -3 20 -34 27 -70 8 -35 20 -70 27 -76 7 -6 13 -21
13 -34 0 -13 5 -24 10 -24 6 0 10 -11 10 -25 0 -14 5 -25 10 -25 6 0 10 -13
10 -30 0 -20 5 -30 15 -30 8 0 15 -9 15 -20 0 -11 4 -20 10 -20 5 0 15 -18 21
-40 7 -22 16 -40 21 -40 4 0 8 -11 8 -25 0 -14 5 -25 10 -25 6 0 10 -9 10 -20
0 -11 7 -20 15 -20 10 0 15 -10 15 -29 0 -17 5 -33 10 -36 6 -3 10 -22 10 -41
0 -24 5 -34 15 -34 10 0 15 -11 15 -35 0 -19 5 -35 10 -35 6 0 10 -11 10 -24
0 -14 7 -31 15 -40 8 -8 15 -24 15 -35 0 -12 4 -21 9 -21 5 0 11 -15 14 -32
14 -80 20 -98 33 -98 9 0 14 -12 14 -35 0 -19 5 -35 10 -35 6 0 10 -11 10 -24
0 -14 7 -31 15 -40 8 -8 15 -24 15 -35 0 -12 6 -21 14 -21 8 0 15 -16 19 -41
3 -23 10 -45 16 -49 11 -6 19 -76 10 -84 -2 -3 -90 -6 -196 -7 -209 -2 -213
-1 -227 56 -5 17 -10 51 -13 78 -3 26 -9 47 -14 47 -5 0 -9 15 -9 34 0 21 -6
36 -15 40 -9 3 -15 18 -15 36 0 16 -4 30 -10 30 -5 0 -10 15 -10 34 0 21 -6
36 -15 40 -10 3 -15 19 -15 46 0 22 -4 40 -9 40 -5 0 -12 16 -15 35 -4 19 -11
35 -15 35 -5 0 -11 12 -14 28 -12 64 -27 107 -36 110 -6 2 -11 19 -11 37 0 19
-4 37 -10 40 -5 3 -10 24 -10 46 0 28 -4 39 -15 39 -10 0 -15 10 -15 34 0 18
-7 39 -15 46 -9 7 -15 29 -15 51 0 22 -4 39 -10 39 -5 0 -10 23 -10 50 0 36
-4 52 -15 56 -9 4 -15 19 -15 39 0 19 -4 37 -10 40 -5 3 -10 26 -10 51 0 31
-4 44 -14 44 -8 0 -16 15 -19 38 -9 66 -27 136 -36 141 -5 4 -10 24 -11 46 -5
75 -5 75 49 75 27 0 51 -4 53 -10z m-5813 -20 c24 -12 28 -55 7 -67 -7 -4 -16
-24 -19 -43 -3 -19 -8 -55 -12 -80 -4 -25 -13 -50 -20 -55 -7 -6 -15 -28 -18
-50 -13 -88 -20 -115 -28 -121 -5 -3 -9 -23 -9 -45 0 -28 -4 -39 -15 -39 -10
0 -15 -11 -15 -35 0 -19 -4 -35 -9 -35 -5 0 -9 -6 -8 -12 2 -57 -4 -88 -18
-88 -10 0 -15 -11 -15 -35 0 -24 -5 -35 -15 -35 -11 0 -15 -12 -15 -45 0 -33
-4 -45 -15 -45 -10 0 -15 -11 -15 -35 0 -19 -4 -35 -10 -35 -5 0 -10 -15 -10
-34 0 -19 -5 -36 -11 -38 -6 -2 -13 -25 -16 -51 -3 -26 -10 -47 -14 -47 -5 0
-9 -18 -9 -40 0 -22 -4 -40 -10 -40 -5 0 -12 -17 -15 -37 -4 -21 -10 -47 -14
-58 -16 -41 -31 -92 -31 -107 0 -9 -5 -18 -11 -20 -6 -2 -15 -24 -20 -48 -14
-78 -22 -104 -35 -117 -7 -7 -14 -17 -16 -22 -2 -6 -77 -11 -178 -12 l-175 -2
3 69 c2 38 8 71 13 72 5 2 9 20 9 40 0 20 7 46 15 56 8 11 15 35 15 53 0 18 5
33 10 33 6 0 10 11 10 24 0 13 5 26 11 28 11 4 23 52 36 141 3 20 9 37 14 37
5 0 9 14 9 30 0 18 6 33 15 36 8 4 15 17 15 30 0 13 5 24 10 24 6 0 10 9 10
21 0 11 7 27 15 35 8 9 15 29 15 45 0 16 5 29 10 29 6 0 10 11 10 24 0 13 7
29 15 36 8 7 15 23 15 36 0 15 6 24 15 24 9 0 15 9 15 25 0 14 4 25 10 25 5 0
12 16 16 35 3 19 10 35 15 35 5 0 9 13 9 29 0 16 6 31 15 35 8 3 14 9 13 13
-5 18 27 103 39 103 8 0 13 14 13 40 0 22 5 40 10 40 6 0 10 16 10 35 0 19 5
35 10 35 6 0 10 18 10 39 0 25 5 41 15 45 10 3 15 19 15 43 1 69 16 77 143 83
128 6 138 6 166 -10z m4458 2 c11 -8 19 -36 34 -127 6 -33 16 -65 24 -70 7 -6
15 -33 18 -60 10 -89 23 -153 34 -167 10 -12 13 -28 29 -138 4 -25 13 -54 20
-65 8 -11 14 -36 14 -57 0 -21 5 -38 10 -38 6 0 10 -24 10 -54 0 -33 5 -60 14
-68 13 -14 18 -38 35 -172 4 -37 13 -71 19 -75 5 -3 12 -31 16 -61 3 -30 10
-86 15 -125 6 -38 15 -109 20 -157 6 -48 15 -96 21 -107 13 -26 13 -31 -5 -31
-8 0 -15 -7 -15 -15 0 -8 -3 -15 -6 -15 -3 0 -12 7 -20 15 -13 12 -47 15 -180
15 l-164 0 0 36 c0 20 -7 50 -14 67 -8 18 -17 64 -19 102 -8 133 -27 289 -36
295 -5 3 -11 32 -14 65 -3 33 -10 103 -14 155 -5 53 -13 102 -18 110 -10 15
-17 77 -34 299 -5 68 -14 127 -19 130 -6 3 -13 44 -16 91 -3 47 -8 114 -12
149 -4 46 -2 66 7 72 15 9 231 10 246 1z m-2977 -37 c0 -8 10 -23 22 -35 18
-17 19 -20 5 -20 -9 0 -17 -3 -18 -7 -4 -29 -21 -234 -25 -308 -3 -49 -10 -93
-16 -96 -9 -6 -17 -86 -35 -334 -3 -38 -10 -76 -16 -83 -6 -7 -14 -45 -18 -85
-19 -167 -25 -203 -33 -216 -10 -16 -24 -118 -32 -238 -3 -40 -10 -73 -15 -73
-5 0 -9 -11 -9 -25 0 -16 -6 -25 -15 -25 -8 0 -15 -5 -15 -11 0 -9 -23 -10
-82 -4 -135 13 -218 14 -218 4 0 -18 -48 -9 -52 9 -9 35 23 339 38 363 9 14
20 89 30 204 4 36 11 63 20 68 9 5 14 25 14 55 0 27 4 52 9 57 5 6 12 35 15
65 14 134 19 165 28 171 6 4 13 27 15 53 3 25 10 46 14 46 5 0 9 18 9 39 0 22
5 41 10 43 10 3 27 72 37 156 3 25 10 42 18 42 18 0 25 23 25 83 0 28 5 66 12
84 l12 33 133 0 c110 0 133 -3 133 -15z m-742 -47 c15 -15 16 -74 2 -83 -5 -3
-10 -28 -10 -56 0 -37 -4 -49 -15 -49 -12 0 -15 -13 -15 -60 0 -33 -4 -60 -10
-60 -5 0 -10 -24 -10 -54 0 -34 -5 -56 -12 -58 -7 -3 -14 -32 -16 -76 -2 -40
-8 -72 -13 -72 -5 0 -9 -27 -9 -59 0 -37 -5 -61 -12 -63 -6 -2 -13 -31 -16
-66 -2 -34 -8 -62 -13 -62 -5 0 -9 -22 -9 -50 0 -38 -4 -50 -15 -50 -11 0 -15
-12 -15 -45 0 -25 -4 -45 -10 -45 -5 0 -10 -22 -10 -49 0 -34 -4 -51 -15 -55
-9 -3 -15 -18 -15 -40 0 -19 -5 -36 -10 -38 -11 -3 -28 -78 -37 -160 -3 -26
-11 -52 -19 -59 -8 -6 -14 -26 -14 -44 0 -41 0 -41 -227 -37 l-173 3 0 59 c0
33 4 60 10 60 6 0 10 16 10 36 0 19 7 42 15 50 8 9 15 33 15 55 0 21 5 39 10
39 6 0 10 18 10 40 0 27 5 43 15 46 10 4 15 20 15 50 0 24 5 44 10 44 6 0 10
16 10 35 0 23 5 35 14 35 17 0 26 22 26 66 0 19 4 34 9 34 5 0 11 17 14 38 8
57 17 94 32 127 17 39 35 98 35 114 0 7 7 19 15 27 8 9 15 26 15 40 0 13 5 24
10 24 6 0 10 12 10 26 0 14 7 32 15 40 8 9 15 26 15 38 0 12 3 26 7 30 4 4 9
19 11 34 2 15 8 29 13 33 9 5 22 63 36 159 3 24 12 51 20 58 7 7 13 19 13 27
0 21 18 23 121 17 62 -3 103 -1 115 6 25 15 37 15 52 0z m4491 1 c17 -6 31
-17 31 -25 0 -8 7 -14 15 -14 11 0 15 -11 15 -40 0 -22 4 -40 9 -40 4 0 11
-19 15 -42 13 -93 24 -140 32 -147 10 -7 34 -91 34 -120 0 -10 7 -24 15 -31 8
-7 15 -21 15 -31 0 -11 4 -27 9 -37 6 -9 13 -34 16 -54 3 -21 9 -38 13 -38 10
0 32 -81 32 -115 0 -14 7 -28 15 -31 9 -4 15 -19 15 -40 0 -24 5 -34 15 -34
11 0 15 -11 15 -40 0 -28 4 -40 14 -40 13 0 16 -10 32 -122 3 -24 10 -47 15
-53 5 -5 9 -24 9 -41 0 -18 6 -39 14 -46 13 -13 18 -36 32 -145 4 -28 11 -43
20 -43 10 0 14 -14 14 -49 0 -30 5 -51 13 -54 24 -10 -17 -28 -53 -22 -19 2
-115 5 -212 5 l-178 0 0 31 c0 17 -4 38 -9 47 -5 10 -10 44 -12 77 -1 33 -8
69 -16 80 -7 11 -13 39 -13 63 0 25 -6 50 -15 58 -9 10 -15 34 -15 63 0 26 -7
56 -15 67 -8 10 -15 40 -15 67 0 26 -4 47 -9 47 -5 0 -11 25 -13 56 -3 31 -10
59 -15 62 -6 4 -13 27 -16 52 -14 113 -26 173 -35 179 -9 6 -19 63 -29 181 -3
36 -9 73 -14 82 -5 9 -9 32 -9 52 0 19 -6 41 -14 48 -7 8 -16 34 -20 59 -3 24
-8 63 -12 87 l-6 42 119 0 c66 0 134 -5 152 -11z m-2215 -29 c12 -34 26 -394
34 -872 5 -297 10 -400 20 -410 7 -7 12 -42 12 -94 l0 -83 -27 -3 c-16 -2
-124 -2 -240 0 l-213 3 0 34 c0 18 6 35 13 37 12 5 16 73 32 548 4 118 12 221
17 227 6 7 14 97 20 200 19 392 19 394 39 414 17 17 97 24 264 24 12 0 23 -10
29 -25z m530 13 c10 -11 33 -14 129 -20 81 -5 88 -7 93 -29 3 -13 10 -24 14
-24 4 0 11 -37 14 -82 14 -196 23 -269 34 -280 7 -7 12 -32 12 -57 0 -26 5
-64 11 -86 11 -40 17 -87 38 -285 6 -58 15 -106 21 -108 5 -2 10 -29 10 -60 0
-31 5 -75 10 -97 5 -22 10 -62 11 -90 2 -27 9 -66 16 -85 7 -19 12 -65 13
-102 0 -54 -3 -68 -15 -68 -8 0 -15 -7 -15 -15 0 -18 -31 -20 -48 -3 -8 8 -68
13 -184 14 -95 2 -177 3 -183 4 -6 0 -9 40 -7 106 4 121 -3 188 -23 207 -14
15 -18 98 -33 707 -5 222 -11 321 -19 337 -19 31 -17 93 2 93 8 0 15 7 15 15
0 11 11 15 38 15 21 0 42 -3 46 -7z m-1509 -40 c28 -3 54 -9 60 -14 5 -5 21
-9 36 -9 14 0 41 -3 59 -6 l32 -7 -6 -296 c-6 -318 -21 -754 -32 -968 l-7
-133 -219 0 -220 0 6 158 c8 198 18 323 30 341 8 12 14 81 32 374 4 53 10 97
14 97 15 0 33 103 46 265 4 39 10 75 14 80 5 6 11 32 15 59 10 64 22 78 60 70
17 -3 53 -8 80 -11z m-2907 -79 l82 -7 0 -38 c0 -22 -4 -39 -10 -39 -5 0 -10
-16 -10 -35 0 -24 -5 -35 -15 -35 -9 0 -15 -9 -15 -24 0 -13 -7 -29 -15 -36
-8 -7 -15 -25 -15 -41 0 -19 -5 -29 -15 -29 -10 0 -15 -11 -15 -35 0 -19 -4
-35 -10 -35 -5 0 -10 -11 -10 -25 0 -14 -4 -25 -10 -25 -5 0 -12 -17 -15 -37
-3 -21 -10 -46 -16 -55 -5 -10 -9 -27 -9 -38 0 -11 -4 -20 -10 -20 -5 0 -10
-18 -10 -39 0 -22 -5 -41 -11 -43 -6 -2 -13 -25 -16 -51 -3 -26 -10 -47 -14
-47 -5 0 -9 -9 -9 -21 0 -11 -7 -27 -15 -35 -8 -9 -15 -26 -15 -40 0 -13 -4
-24 -10 -24 -5 0 -10 -18 -10 -40 0 -27 -4 -40 -14 -40 -8 0 -17 -15 -20 -32
-4 -18 -9 -45 -13 -60 -3 -16 -11 -28 -17 -28 -7 0 -18 -27 -25 -60 -11 -47
-17 -60 -32 -60 -16 0 -19 -8 -19 -45 0 -25 -4 -45 -10 -45 -5 0 -10 -14 -10
-31 0 -57 -7 -59 -245 -59 -142 0 -214 3 -210 10 3 6 -1 10 -10 10 -12 0 -15
6 -9 23 3 12 11 24 15 25 5 2 9 17 9 32 0 16 5 32 10 35 6 3 10 17 10 31 0 14
7 32 15 40 8 9 15 26 15 40 0 13 5 24 10 24 6 0 10 11 10 25 0 16 6 25 15 25
9 0 15 9 15 25 0 14 5 25 10 25 6 0 10 9 10 21 0 11 7 27 15 35 8 9 15 24 15
35 0 10 4 19 9 19 4 0 16 21 26 48 10 26 23 54 29 62 7 8 21 33 31 54 34 66
39 76 47 76 5 0 8 11 8 25 0 16 6 25 15 25 9 0 15 9 15 25 0 14 11 37 25 51
14 14 25 31 25 39 0 8 5 15 10 15 6 0 10 11 10 25 0 16 6 25 15 25 8 0 15 5
15 12 0 24 46 107 63 111 11 4 17 15 17 35 0 17 5 34 10 37 6 3 10 17 10 31 0
14 6 24 14 24 9 0 16 15 19 43 10 78 19 107 33 107 8 0 14 5 14 11 0 8 21 9
68 6 37 -4 104 -9 150 -13z m7642 -14 c0 -5 7 -10 15 -10 8 0 15 -7 15 -15 0
-8 4 -15 9 -15 5 0 12 -11 15 -25 4 -14 11 -25 16 -25 6 0 10 -11 10 -25 0
-14 5 -25 10 -25 6 0 10 -11 10 -25 0 -18 5 -25 20 -25 15 0 20 -7 20 -25 0
-14 5 -25 10 -25 6 0 10 -13 10 -29 0 -16 6 -31 15 -35 8 -3 15 -12 15 -21 0
-8 5 -15 10 -15 6 0 10 -11 10 -25 0 -16 6 -25 15 -25 8 0 15 -6 15 -14 0 -17
40 -95 58 -114 6 -7 12 -22 12 -33 0 -10 5 -19 10 -19 6 0 10 -11 10 -25 0
-16 6 -25 15 -25 9 0 15 -9 15 -25 0 -14 5 -25 10 -25 6 0 10 -11 10 -25 0
-16 6 -25 15 -25 9 0 15 -9 15 -25 0 -14 5 -25 10 -25 6 0 10 -11 10 -24 0
-15 7 -27 19 -31 11 -3 23 -23 31 -50 7 -25 16 -45 21 -45 5 0 11 -11 15 -25
3 -14 10 -25 15 -25 5 0 9 -11 9 -25 0 -14 5 -25 10 -25 6 0 10 -11 10 -25 0
-16 6 -25 15 -25 9 0 15 -9 15 -25 0 -14 5 -25 10 -25 6 0 10 -9 10 -20 0 -11
6 -20 13 -20 7 0 19 -21 26 -46 8 -25 20 -48 27 -51 9 -3 14 -20 14 -44 l0
-39 -225 0 -225 0 0 34 c0 21 -6 36 -15 40 -9 3 -15 18 -15 36 0 16 -4 30 -10
30 -5 0 -10 13 -10 29 0 16 -6 31 -13 34 -7 3 -19 28 -27 57 -9 34 -21 55 -32
58 -11 2 -18 14 -18 28 0 13 -4 24 -10 24 -5 0 -10 14 -10 31 0 17 -7 37 -15
45 -8 9 -15 29 -15 45 0 16 -4 29 -10 29 -5 0 -10 18 -10 40 0 29 -4 40 -15
40 -9 0 -15 9 -15 24 0 14 -4 28 -10 31 -5 3 -10 17 -10 30 0 13 -4 27 -10 30
-5 3 -10 17 -10 30 0 12 -7 25 -15 29 -9 3 -15 18 -15 36 0 17 -4 38 -9 48 -6
9 -13 34 -16 55 -3 20 -10 37 -15 37 -6 0 -10 13 -10 29 0 17 -4 33 -10 36 -5
3 -10 17 -10 31 0 14 -7 27 -15 30 -9 4 -15 19 -15 40 0 19 -4 34 -10 34 -5 0
-10 11 -10 24 0 14 -6 31 -13 38 -8 7 -17 30 -21 51 -4 20 -11 37 -16 37 -6 0
-10 5 -10 10 0 6 7 10 15 10 8 0 15 7 15 15 0 12 19 15 110 15 67 0 110 -4
110 -10z m-7680 -1630 c0 -6 105 -10 296 -10 194 0 293 3 289 10 -4 6 22 10
70 10 48 0 74 -4 70 -10 -4 -7 84 -10 257 -10 173 0 258 4 248 10 -10 6 60 10
208 10 141 0 222 -4 222 -10 0 -6 60 -10 163 -9 96 1 152 4 137 9 -14 4 120 8
298 9 208 1 322 -3 322 -9 0 -5 9 -10 20 -10 11 0 20 5 20 10 0 14 6987 14
6992 0 2 -5 32 -12 68 -16 71 -6 160 -40 160 -61 0 -7 5 -13 10 -13 6 0 18
-18 27 -40 10 -22 23 -40 29 -40 7 0 14 -13 18 -30 3 -17 9 -43 12 -60 4 -19
2 -30 -5 -30 -6 0 -11 -7 -11 -15 0 -13 -685 -15 -6109 -15 -4753 0 -6121 -3
-6162 -12 -41 -10 -53 -10 -57 0 -2 7 -10 12 -18 12 -19 0 -19 74 1 94 8 8 15
24 15 35 0 12 5 21 10 21 6 0 10 14 10 30 0 20 5 30 15 30 8 0 15 3 15 8 0 19
49 59 85 70 22 6 138 14 258 18 119 3 217 10 217 15 0 5 381 9 900 9 593 0
900 -3 900 -10z m3935 -980 c3 -5 28 -10 55 -10 33 0 50 -5 54 -15 3 -8 13
-15 23 -15 35 0 133 -45 133 -61 0 -8 16 -21 35 -29 19 -8 35 -18 35 -23 0
-12 26 -37 39 -37 6 0 11 -5 11 -11 0 -11 25 -39 35 -39 10 0 35 -28 35 -39 0
-6 9 -16 20 -23 11 -7 20 -18 20 -25 0 -7 5 -13 10 -13 6 0 10 -9 10 -20 0
-11 4 -20 10 -20 5 0 12 -17 15 -37 4 -21 10 -47 15 -58 5 -11 11 -49 14 -85
4 -36 9 -87 12 -113 4 -30 2 -53 -5 -60 -6 -6 -11 -39 -11 -74 0 -35 -4 -63
-10 -63 -5 0 -10 -16 -10 -35 0 -24 -5 -35 -15 -35 -9 0 -15 -9 -15 -25 0 -14
-4 -25 -10 -25 -5 0 -10 -13 -10 -30 0 -22 -5 -30 -18 -30 -10 0 -24 -9 -32
-20 -8 -11 -20 -20 -27 -20 -7 0 -13 -7 -13 -16 0 -18 -59 -84 -74 -84 -5 0
-22 -13 -37 -30 -16 -16 -40 -32 -54 -36 -14 -3 -25 -12 -25 -20 0 -8 -10 -14
-25 -14 -16 0 -25 -6 -25 -15 0 -10 -10 -15 -30 -15 -19 0 -30 -5 -30 -14 0
-20 -69 -28 -245 -29 -173 0 -255 9 -255 29 0 8 -11 14 -25 14 -26 0 -42 9
-73 43 -9 9 -26 17 -37 17 -11 0 -27 9 -35 20 -8 11 -18 20 -22 20 -15 0 -118
97 -118 111 0 13 -25 39 -38 39 -10 0 -32 44 -32 65 0 8 -7 15 -15 15 -9 0
-15 9 -15 24 0 14 -4 28 -10 31 -5 3 -10 19 -10 36 0 16 -4 29 -10 29 -5 0
-10 18 -10 39 0 31 -4 41 -20 46 -18 6 -20 15 -20 101 0 77 3 94 15 94 8 0 14
3 13 8 0 4 1 14 5 22 3 8 8 30 11 48 13 73 19 92 27 92 5 0 9 14 9 30 0 20 5
30 15 30 9 0 15 9 15 25 0 14 5 25 10 25 6 0 10 11 10 25 0 14 6 25 13 25 7 0
19 9 27 20 8 11 20 20 27 20 7 0 13 5 13 11 0 14 25 39 39 39 6 0 11 6 11 14
0 8 16 20 35 27 22 8 35 20 35 31 0 13 8 18 30 18 17 0 30 5 30 10 0 6 11 10
25 10 14 0 25 5 25 10 0 6 11 10 24 10 13 0 29 7 36 15 7 9 29 15 51 15 21 0
41 5 44 10 4 6 63 10 145 10 82 0 141 -4 145 -10z m4175 -395 c0 -9 8 -19 18
-22 22 -9 42 -29 42 -42 0 -6 4 -11 9 -11 30 0 54 -174 32 -232 -13 -35 -63
-88 -82 -88 -9 0 -19 -7 -23 -15 -5 -13 -120 -15 -950 -15 l-945 0 -29 28
c-16 16 -32 45 -36 65 -4 20 -11 37 -16 37 -6 0 -10 30 -10 68 1 84 29 172 62
189 18 10 205 13 803 14 772 1 895 4 903 27 2 8 38 12 113 12 91 0 109 -2 109
-15z"/>
<path d="M6836 2005 c-3 -9 -18 -15 -36 -15 -16 0 -30 -3 -30 -7 0 -9 -49 -33
-67 -33 -7 0 -13 -7 -13 -16 0 -18 -23 -44 -39 -44 -6 0 -11 -7 -11 -15 0 -8
-4 -15 -10 -15 -5 0 -10 -9 -10 -21 0 -12 -8 -23 -20 -26 -11 -3 -20 -14 -20
-24 0 -11 -4 -19 -10 -19 -5 0 -10 -18 -10 -40 0 -22 -4 -40 -10 -40 -23 0 -8
-144 21 -202 5 -10 9 -25 9 -33 0 -8 7 -15 16 -15 18 0 44 -23 44 -39 0 -6 5
-11 11 -11 14 0 39 -25 39 -39 0 -6 7 -11 15 -11 8 0 15 -7 15 -15 0 -8 5 -15
10 -15 10 0 20 -7 53 -36 38 -34 337 -36 337 -3 0 5 11 9 25 9 16 0 25 6 25
15 0 8 5 15 10 15 6 0 10 7 10 15 0 8 7 15 15 15 8 0 15 5 15 11 0 16 26 39
44 39 9 0 16 5 16 11 0 12 25 39 36 39 11 0 33 34 34 53 0 9 6 17 14 17 24 0
36 138 21 233 -5 29 -13 47 -21 47 -8 0 -14 9 -14 21 0 22 -22 49 -39 49 -6 0
-11 5 -11 11 0 16 -26 39 -44 39 -9 0 -16 7 -16 16 0 22 -25 44 -49 44 -12 0
-21 4 -21 9 0 5 -11 12 -25 15 -14 4 -25 11 -25 16 0 6 -55 10 -139 10 -114 0
-140 -3 -145 -15z m164 -124 c0 -5 14 -14 31 -20 17 -6 33 -20 36 -31 3 -11
11 -20 18 -20 13 0 30 -36 40 -86 4 -23 0 -37 -17 -57 -21 -24 -30 -27 -91
-27 -38 0 -67 4 -67 10 0 6 -9 10 -19 10 -11 0 -26 7 -35 15 -8 8 -19 15 -25
15 -7 0 -11 28 -11 75 0 54 4 75 13 75 7 0 21 11 31 25 14 19 28 25 57 25 22
0 39 -4 39 -9z"/>
</g>
</svg>
