<svg xmlns="http://www.w3.org/2000/svg" viewBox="0 0 48 48" fill="currentColor">
  <path d="M12 14a5 5 0 1 0 0-10 5 5 0 0 0 0 10zm0-8a3 3 0 1 1 0 6 3 3 0 0 1 0-6z"/>
  <path d="M12 16c-4.4 0-8 2.7-8 6v2h16v-2c0-3.3-3.6-6-8-6zm-6 6c0-2.1 2.7-4 6-4s6 1.9 6 4H6z"/>
  <path d="M30 14h12c1.1 0 2 .9 2 2v8c0 1.1-.9 2-2 2H30c-1.1 0-2-.9-2-2v-8c0-1.1.9-2 2-2zm0 2v8h12v-8H30z"/>
  <path d="M30 30h12c1.1 0 2 .9 2 2v8c0 1.1-.9 2-2 2H30c-1.1 0-2-.9-2-2v-8c0-1.1.9-2 2-2zm0 2v8h12v-8H30z"/>
  <path d="M22 20h6v2h-6zm2 12h4v2h-4zM34 26v4h2v-4z"/>
</svg>
