<svg xmlns="http://www.w3.org/2000/svg" viewBox="0 0 48 48" fill="currentColor">
  <path d="M36 6h-4V4h-2v2H18V4h-2v2h-4c-1.66 0-3 1.34-3 3v28c0 1.66 1.34 3 3 3h14v-2H12c-.55 0-1-.45-1-1V16h26v6h2V9c0-1.66-1.34-3-3-3zm1 8H11V9c0-.55.45-1 1-1h4v2h2V8h12v2h2V8h4c.55 0 1 .45 1 1v5z"/>
  <path d="M38 28.8a3.5 3.5 0 0 0-1.8-1l-.7-.2v-1.6h-2v1.6l-.7.2a3.5 3.5 0 0 0-1.8 1l-1.4-.8-1 1.7 1.4.8a3.6 3.6 0 0 0 0 2.1l-1.4.8 1 1.7 1.4-.8c.5.5 1.1.8 1.8 1l.7.2v1.6h2v-1.6l.7-.2c.7-.2 1.3-.5 1.8-1l1.4.8 1-1.7-1.4-.8a3.6 3.6 0 0 0 0-2.1l1.4-.8-1-1.7-1.4.8zM35.5 34a2 2 0 1 1 0-4 2 2 0 0 1 0 4z"/>
</svg>
