<?xml version="1.0" encoding="utf-8"?>
<!-- Svg Vector Icons : http://www.onlinewebfonts.com/icon -->
<!DOCTYPE svg PUBLIC "-//W3C//DTD SVG 1.1//EN" "http://www.w3.org/Graphics/SVG/1.1/DTD/svg11.dtd">
<svg version="1.1" xmlns="http://www.w3.org/2000/svg" xmlns:xlink="http://www.w3.org/1999/xlink" x="0px" y="0px" viewBox="0 0 256 256" enable-background="new 0 0 256 256" xml:space="preserve">
<metadata> Svg Vector Icons : http://www.onlinewebfonts.com/icon </metadata>
<g><g><g><path fill="#000000" d="M82.6,10.4c-11,1.8-20.5,6.7-28.2,14.8c-18.2,19.2-17.9,48.9,0.7,67.7c6.1,6.1,13.5,10.4,22.1,12.8c3.9,1.1,5.2,1.2,12.2,1.2c8.6,0,11.6-0.5,18.2-3.1c19.9-7.8,32.7-28.9,30.4-50c-1.2-11.6-5.8-21.2-14-29.5c-9.2-9.3-19.8-13.9-32.8-14.2C88.1,10,84.1,10.1,82.6,10.4z"/><path fill="#000000" d="M62.1,114.6C39.5,116.7,20.3,132,13,153.8c-3,8.8-3,9.6-3,53v39.1h16.4h16.4v-39V168h5.1h5.1V207v39h39.6h39.6v-17.1v-17.1h-21.9H88.4v-32.3v-32.3h40.3c33.4,0,40.3-0.1,40.3-0.6c0-0.4-1-2.3-2.3-4.4c-8.4-14.1-21.3-23.2-37.7-26.9c-4.3-1-5.6-1-33.6-1.2C79.6,114.2,64.5,114.3,62.1,114.6z"/><path fill="#000000" d="M183.8,135.7v19.4h-43.6H96.7v24.4V204h43.6h43.6l0.1,19.2l0.1,19.2l31-31.7l31-31.7l-31-31.3c-17-17.2-31-31.3-31.1-31.3C183.8,116.4,183.8,125.1,183.8,135.7z"/><path fill="#000000" d="M143.2,228.8v17.1h16.4h16.4v-17.1v-17.1h-16.4h-16.4V228.8z"/></g></g></g>
</svg>