<?xml version="1.0" encoding="utf-8"?>
<!-- Svg Vector Icons : http://www.onlinewebfonts.com/icon -->
<!DOCTYPE svg PUBLIC "-//W3C//DTD SVG 1.1//EN" "http://www.w3.org/Graphics/SVG/1.1/DTD/svg11.dtd">
<svg version="1.1" xmlns="http://www.w3.org/2000/svg" xmlns:xlink="http://www.w3.org/1999/xlink" x="0px" y="0px" viewBox="0 0 256 256" enable-background="new 0 0 256 256" xml:space="preserve">
<metadata> Svg Vector Icons : http://www.onlinewebfonts.com/icon </metadata>
<g><g><path fill="#000000" d="M84.2,164.5H36.5v-13.3h39.8c-2-4-3.3-8.6-4.6-13.3H36.5v-13.3h33.1c0-1.3,0-2.6,0-4c0-3.3,0-6.6,0.7-9.3H36.5V98.2H73c1.3-4.6,3.3-9.3,6-13.3H36.5V71.7h52.4c13.3-14.6,32.5-23.9,53.7-23.9c9.3,0,18.6,2,26.5,5.3V38.5c0-11.3-8.6-19.9-19.9-19.9H29.9C18.6,18.6,10,27.3,10,38.5v198.9l39.8-19.9l39.8,19.9l39.8-19.9l39.8,19.9V189c-7.9,3.3-17.2,5.3-26.5,5.3C118.7,193.6,97.5,182.4,84.2,164.5z"/><path fill="#000000" d="M244,203.6l-37.8-37.8c-2.6-2.6-6.6-2.6-9.3,0l-7.9-7.9c7.9-9.9,13.3-23.2,13.3-37.1c0-33.1-26.5-59.7-59.7-59.7c-33.2,0-59.7,26.5-59.7,59.7c0,33.1,26.5,59.7,59.7,59.7c13.9,0,27.2-4.6,37.1-13.3l7.9,7.9c-2.6,2.6-2.6,6.6,0,9.3l37.8,37.8c2.6,2.6,6.6,2.6,9.3,0l9.3-9.3C246.7,210.2,246.7,206.2,244,203.6z M142.6,160.5c-21.9,0-39.8-17.9-39.8-39.8c0-21.9,17.9-39.8,39.8-39.8c21.9,0,39.8,17.9,39.8,39.8C182.3,142.6,164.5,160.5,142.6,160.5z"/><path fill="#000000" d="M149.9,118.7c3.3-2.6,6-6.6,6-11.3c0-7.3-6-13.3-13.3-13.3c-7.3,0-13.3,6-13.3,13.3c0,4.6,2.6,8.6,6,11.3c-11.3,3.3-19.2,13.3-19.2,25.2h53C169.1,132,161.1,122,149.9,118.7z"/></g></g>
</svg>