<?xml version="1.0" encoding="utf-8"?>
<!-- Svg Vector Icons : http://www.onlinewebfonts.com/icon -->
<!DOCTYPE svg PUBLIC "-//W3C//DTD SVG 1.1//EN" "http://www.w3.org/Graphics/SVG/1.1/DTD/svg11.dtd">
<svg version="1.1" xmlns="http://www.w3.org/2000/svg" xmlns:xlink="http://www.w3.org/1999/xlink" x="0px" y="0px" viewBox="0 0 256 256" enable-background="new 0 0 256 256" xml:space="preserve">
<metadata> Svg Vector Icons : http://www.onlinewebfonts.com/icon </metadata>
<g><g><path fill="#000000" d="M25.1,98.5c-5.1,0-9.2-5.9-9.2-11.8V39.5c0-15.2,8.4-23.6,23.6-23.6h47.2c5.9,0,11.8,4.1,11.8,9.2s-5.9,8.5-11.8,8.5H45.4c-5.9,0-11.8,5.9-11.8,11.8v41.3C33.6,92.6,30.1,98.5,25.1,98.5L25.1,98.5z"/><path fill="#000000" d="M229.1,94.3"/><path fill="#000000" d="M246,128c0,6.5-5.3,11.8-11.8,11.8H21.8c-6.5,0-11.8-5.3-11.8-11.8l0,0c0-6.5,5.3-11.8,11.8-11.8h212.4C240.7,116.2,246,121.5,246,128L246,128z"/><path fill="#000000" d="M157.5,25.1c0-5.1,5.9-9.2,11.8-9.2h47.2c15.2,0,23.6,8.4,23.6,23.6v47.2c0,5.9-4.1,11.8-9.2,11.8c-5.1,0-8.5-5.9-8.5-11.8V45.4c0-5.9-5.9-11.8-11.8-11.8h-41.3C163.4,33.6,157.5,30.1,157.5,25.1L157.5,25.1z"/><path fill="#000000" d="M25.1,157.5c5.1,0,8.5,5.9,8.5,11.8v41.3c0,5.9,5.9,11.8,11.8,11.8h41.3c5.9,0,11.8,3.5,11.8,8.5s-5.9,9.2-11.8,9.2H39.5c-15.2,0-23.6-8.4-23.6-23.6v-47.2C15.9,163.4,20,157.5,25.1,157.5L25.1,157.5z"/><path fill="#000000" d="M157.5,230.9c0-5.1,5.9-8.5,11.8-8.5h41.3c5.9,0,11.8-5.9,11.8-11.8v-41.3c0-5.9,3.5-11.8,8.5-11.8c5.1,0,9.2,5.9,9.2,11.8v47.2c0,15.2-8.4,23.6-23.6,23.6h-47.2C163.4,240.1,157.5,236,157.5,230.9L157.5,230.9z"/></g></g>
</svg>