<?xml version="1.0" encoding="utf-8"?>
<!-- Svg Vector Icons : http://www.onlinewebfonts.com/icon -->
<!DOCTYPE svg PUBLIC "-//W3C//DTD SVG 1.1//EN" "http://www.w3.org/Graphics/SVG/1.1/DTD/svg11.dtd">
<svg version="1.1" xmlns="http://www.w3.org/2000/svg" xmlns:xlink="http://www.w3.org/1999/xlink" x="0px" y="0px" viewBox="0 0 256 256" enable-background="new 0 0 256 256" xml:space="preserve">
<metadata> Svg Vector Icons : http://www.onlinewebfonts.com/icon </metadata>
<g><g><g><path fill="#000000" d="M74.6,27.3c-17.9,3.2-31.6,16.9-35.2,35c-0.7,3.9-0.6,12.3,0.3,16.6c2.7,12.7,11.4,24.1,23.1,30c3.5,1.8,3.8,1.6-4.2,2.7c-2.8,0.4-8.2,1.6-12,2.5c-18.4,4.7-30.2,12-34.8,21.7l-1.7,3.5L10,161.5c-0.1,12.2,0,22.8,0.1,23.7c0.3,1.8,2.7,4.7,4.7,5.4c1.2,0.5,8.8,0.6,40.6,0.6h39.1l20.8-20.8l20.8-20.7l-1.8-5.2c-2.5-7.4-3.3-12.4-3.1-20.7l0.1-6.9l-4.9-1.6c-5.4-1.8-16.7-4.1-21.8-4.6c-5.3-0.5-5.3-0.6-1.4-2.8c13-7.4,21.1-20.3,22.2-35.3c0.6-8.1-1.8-17.7-6.1-25c-3-5.1-9.4-11.4-14.4-14.6C96,27.7,84.7,25.5,74.6,27.3z"/><path fill="#000000" d="M180.1,71.4c-21.5,4.7-38,21.3-42.5,42.8c-1.3,6.2-1.3,15.2,0.1,21.7c0.9,4.6,3.5,12.1,4.9,14.1c0.6,0.8-1.2,2.7-25.8,27.4c-30,30.1-28.7,28.4-28.4,35.2c0.2,4.7,1.7,8.1,5.1,11.5c3.5,3.5,7.1,5.1,11.4,5.1c6.6,0.1,4.9,1.5,34.9-28.5l26.8-26.7l3.4,1.4c20.7,8.5,43.8,4,59.5-11.4c21.5-21.2,22.1-55.1,1.3-76.8c-7.6-7.8-15.7-12.6-26.7-15.5C198.7,70.3,185.9,70.1,180.1,71.4z M201.4,84.5c12.5,3.1,22.3,11.3,27.9,23c2.8,5.9,3.5,9.8,3.6,17.4c0,7.4-0.8,11.6-3.4,17.4c-2.9,6.3-8.3,12.9-14.1,17c-3.2,2.3-9,5-13.1,6.2c-4.5,1.3-12.6,1.7-17.4,0.9c-13.3-2.1-25.1-10.8-31.2-22.8c-4.3-8.6-5.3-19.6-2.9-29.3c2.9-11,11.3-21.4,21.7-26.6c6.3-3.1,10.8-4.1,18.7-4.2C196,83.4,197.8,83.6,201.4,84.5z"/><path fill="#000000" d="M184.2,90.5c-4.6,1-8.1,2.5-11.8,4.9c-10.7,6.9-16.1,17.6-15.8,30.7l0.1,5.4l1.5-4.1c3.1-8.6,9-16.7,15.4-21.1c10.7-7.3,25.3-9.4,41.1-5.9c2.3,0.5,4.3,0.9,4.4,0.9c0.4,0-2.3-2.1-5.1-4.1c-3.6-2.5-8.6-4.9-12.5-6.1C197.2,89.9,188.5,89.5,184.2,90.5z"/></g></g></g>
</svg>