<?xml version="1.0" encoding="utf-8"?>
<!-- Svg Vector Icons : http://www.onlinewebfonts.com/icon -->
<!DOCTYPE svg PUBLIC "-//W3C//DTD SVG 1.1//EN" "http://www.w3.org/Graphics/SVG/1.1/DTD/svg11.dtd">
<svg version="1.1" xmlns="http://www.w3.org/2000/svg" xmlns:xlink="http://www.w3.org/1999/xlink" x="0px" y="0px" viewBox="0 0 256 256" enable-background="new 0 0 256 256" xml:space="preserve">
<metadata> Svg Vector Icons : http://www.onlinewebfonts.com/icon </metadata>
<g><g><path fill="#000000" d="M181.6,20.7c0-5.9-4.8-10.7-10.7-10.7H20.7C14.8,10,10,14.8,10,20.7v150.2c0,5.9,4.8,10.7,10.7,10.7h37.5V69c0-5.9,4.8-10.7,10.7-10.7h112.6L181.6,20.7L181.6,20.7z"/><path fill="#000000" d="M235.3,74.4H85.1c-5.9,0-10.7,4.8-10.7,10.7v150.2c0,5.9,4.8,10.7,10.7,10.7h150.2c5.9,0,10.7-4.8,10.7-10.7V85.1C246,79.2,241.2,74.4,235.3,74.4z M203.1,128h-30.6v84.2h-21.5V128h-30.6v-18.2h82.6L203.1,128L203.1,128z"/></g></g>
</svg>