<?xml version="1.0" encoding="utf-8"?>
<!-- Generator: Adobe Illustrator 27.5.0, SVG Export Plug-In . SVG Version: 6.00 Build 0)  -->
<svg version="1.1" xmlns="http://www.w3.org/2000/svg" xmlns:xlink="http://www.w3.org/1999/xlink" x="0px" y="0px"
	 viewBox="0 0 750 500" style="enable-background:new 0 0 750 500;" xml:space="preserve">
<g id="BACKGROUND">
	<rect y="0.001" style="fill:#FFFFFF;" width="750" height="500"/>
</g>
<g id="OBJECTS">
	<g>
		<path style="fill:#F0E2B4;" d="M355.316,420.667c50.936-6.987,226.24,33.459,297.688-20.652
			c71.448-54.11,67.451-175.521-11.601-219.697C564.307,137.234,541.65,58.005,434.302,79.254
			c-117.9,23.339-164.768,7.881-234.224-0.363c-81.139-9.632-155.315,58.331-140.757,182.33
			C69.603,348.805-59.061,477.517,355.316,420.667z"/>
		<g>
			<path style="fill:#FFFFFF;" d="M327.555,300.628h71.04c0.568,0,1.028-0.46,1.028-1.028c0-0.568-0.46-1.028-1.028-1.028h-71.04
				c-0.568,0-1.028,0.46-1.028,1.028C326.526,300.168,326.986,300.628,327.555,300.628z"/>
			<path style="fill:#FFFFFF;" d="M326.525,308.016h71.04c0.568,0,1.028-0.46,1.028-1.028c0-0.568-0.46-1.028-1.028-1.028h-71.04
				c-0.568,0-1.028,0.46-1.028,1.028C325.497,307.556,325.957,308.016,326.525,308.016z"/>
			<path style="fill:#FFFFFF;" d="M325.496,315.405h71.04c0.568,0,1.028-0.46,1.028-1.028c0-0.568-0.46-1.028-1.028-1.028h-71.04
				c-0.568,0-1.028,0.46-1.028,1.028C324.468,314.945,324.928,315.405,325.496,315.405z"/>
		</g>
		<g>
			<g>
				<g>
					<polygon style="fill:#3D5D61;" points="472.35,136.607 501.029,358.272 426.051,358.272 					"/>
					<path style="fill:#699FA8;" d="M301.279,354.59c0,2.84,2.301,5.142,5.141,5.142h141.748c2.84,0,5.142-2.302,5.142-5.142
						l19.04-217.983c0-2.839-2.301-5.141-5.141-5.141H325.461c-3.045,0-4.952,2.33-5.142,5.141L301.279,354.59z"/>
				</g>
				<polygon style="fill:#CEEBF0;" points="443.437,349.45 462.664,131.466 331.276,131.466 312.05,349.45 				"/>
			</g>
			<g>
				<g>
					<g>
						<path style="fill:#FFFFFF;" d="M433.484,189.95c-6.663,0-12.083-5.42-12.083-12.082c0-6.662,5.42-12.082,12.083-12.082
							c6.661,0,12.082,5.42,12.082,12.082C445.566,184.53,440.146,189.95,433.484,189.95z M433.484,167.842
							c-5.529,0-10.026,4.498-10.026,10.025c0,5.527,4.497,10.025,10.026,10.025c5.527,0,10.025-4.498,10.025-10.025
							C443.51,172.34,439.012,167.842,433.484,167.842z"/>
						<path style="fill:#FFFFFF;" d="M432.597,184.597c-0.242,0-0.478-0.086-0.665-0.244l-5.524-4.686
							c-0.433-0.368-0.486-1.017-0.119-1.45c0.367-0.433,1.016-0.486,1.45-0.119l4.658,3.953l6.16-8.895
							c0.323-0.467,0.964-0.584,1.432-0.26c0.467,0.323,0.583,0.964,0.26,1.431l-6.806,9.828c-0.166,0.238-0.424,0.395-0.711,0.434
							C432.686,184.594,432.641,184.597,432.597,184.597z"/>
					</g>
					<g>
						<path style="fill:#FFFFFF;" d="M339.915,171.507h71.04c0.568,0,1.027-0.46,1.027-1.028c0-0.567-0.459-1.028-1.027-1.028
							h-71.04c-0.568,0-1.028,0.461-1.028,1.028C338.886,171.047,339.346,171.507,339.915,171.507z"/>
						<path style="fill:#FFFFFF;" d="M338.885,178.896h71.04c0.568,0,1.027-0.461,1.027-1.028c0-0.567-0.459-1.028-1.027-1.028
							h-71.04c-0.568,0-1.028,0.461-1.028,1.028C337.857,178.435,338.317,178.896,338.885,178.896z"/>
						<path style="fill:#FFFFFF;" d="M337.856,186.285h71.04c0.568,0,1.028-0.461,1.028-1.028c0-0.568-0.46-1.028-1.028-1.028
							h-71.04c-0.568,0-1.028,0.46-1.028,1.028C336.828,185.824,337.288,186.285,337.856,186.285z"/>
					</g>
				</g>
				<g>
					<g>
						<path style="fill:#FFFFFF;" d="M429.121,231.649c-6.663,0-12.083-5.419-12.083-12.082c0-6.662,5.42-12.082,12.083-12.082
							c6.661,0,12.082,5.42,12.082,12.082C441.203,226.23,435.782,231.649,429.121,231.649z M429.121,209.542
							c-5.529,0-10.026,4.498-10.026,10.025c0,5.528,4.497,10.025,10.026,10.025c5.527,0,10.025-4.497,10.025-10.025
							C439.146,214.04,434.648,209.542,429.121,209.542z"/>
						<path style="fill:#FFFFFF;" d="M428.233,226.296c-0.242,0-0.479-0.086-0.665-0.244l-5.524-4.685
							c-0.433-0.368-0.486-1.017-0.119-1.45c0.367-0.433,1.016-0.486,1.45-0.119l4.658,3.953l6.16-8.896
							c0.323-0.467,0.964-0.584,1.432-0.26c0.467,0.323,0.583,0.964,0.26,1.431l-6.806,9.829c-0.166,0.238-0.424,0.395-0.711,0.434
							C428.322,226.294,428.277,226.296,428.233,226.296z"/>
					</g>
					<g>
						<path style="fill:#FFFFFF;" d="M335.512,212.178h71.039c0.568,0,1.028-0.46,1.028-1.028c0-0.567-0.46-1.027-1.028-1.027
							h-71.039c-0.568,0-1.028,0.46-1.028,1.027C334.484,211.718,334.944,212.178,335.512,212.178z"/>
						<path style="fill:#FFFFFF;" d="M334.483,219.567h71.039c0.568,0,1.028-0.46,1.028-1.028c0-0.567-0.46-1.028-1.028-1.028
							h-71.039c-0.568,0-1.028,0.461-1.028,1.028C333.455,219.107,333.915,219.567,334.483,219.567z"/>
						<path style="fill:#FFFFFF;" d="M333.454,226.956h71.039c0.568,0,1.028-0.46,1.028-1.028c0-0.568-0.46-1.028-1.028-1.028
							h-71.039c-0.568,0-1.028,0.46-1.028,1.028C332.425,226.496,332.885,226.956,333.454,226.956z"/>
					</g>
				</g>
				<g>
					<g>
						<path style="fill:#FFFFFF;" d="M425.621,277.204c-6.661,0-12.081-5.42-12.081-12.082c0-6.661,5.42-12.081,12.081-12.081
							c6.661,0,12.082,5.42,12.082,12.081C437.703,271.784,432.282,277.204,425.621,277.204z M425.621,255.097
							c-5.528,0-10.025,4.497-10.025,10.024c0,5.527,4.497,10.025,10.025,10.025c5.527,0,10.025-4.498,10.025-10.025
							C435.646,259.594,431.148,255.097,425.621,255.097z"/>
						<path style="fill:#FFFFFF;" d="M424.733,271.852c-0.242,0-0.478-0.086-0.666-0.244l-5.522-4.688
							c-0.433-0.367-0.485-1.016-0.118-1.449c0.367-0.432,1.016-0.485,1.449-0.119l4.657,3.953l6.161-8.896
							c0.322-0.467,0.963-0.583,1.431-0.26c0.467,0.323,0.583,0.964,0.26,1.431l-6.806,9.828c-0.166,0.238-0.424,0.397-0.712,0.434
							C424.823,271.848,424.777,271.852,424.733,271.852z"/>
					</g>
					<g>
						<path style="fill:#FFFFFF;" d="M331.87,258.761h71.039c0.568,0,1.028-0.46,1.028-1.028c0-0.568-0.46-1.028-1.028-1.028H331.87
							c-0.568,0-1.028,0.46-1.028,1.028C330.841,258.301,331.301,258.761,331.87,258.761z"/>
						<path style="fill:#FFFFFF;" d="M330.84,266.149h71.039c0.568,0,1.028-0.459,1.028-1.027c0-0.568-0.46-1.028-1.028-1.028
							H330.84c-0.568,0-1.028,0.46-1.028,1.028C329.812,265.69,330.272,266.149,330.84,266.149z"/>
						<path style="fill:#FFFFFF;" d="M329.811,273.538h71.039c0.568,0,1.028-0.461,1.028-1.029c0-0.568-0.46-1.027-1.028-1.027
							h-71.039c-0.568,0-1.028,0.459-1.028,1.027C328.783,273.077,329.243,273.538,329.811,273.538z"/>
					</g>
				</g>
			</g>
			<g>
				<path style="fill:#9FC4CC;" d="M411.487,131.466v5.702c0,0.824-0.667,1.492-1.492,1.492h-26.294
					c-0.824,0-1.492-0.668-1.492-1.492v-5.702H411.487z"/>
				<path style="fill:#699FA8;" d="M381.181,128.32v7.885c0,0.824,0.667,1.492,1.491,1.492h26.295c0.824,0,1.492-0.668,1.492-1.492
					v-7.885c0-0.682-0.46-1.25-1.084-1.429c0.002-0.001,0.003-0.002,0.004-0.004c-1.522-0.458-9.169-2.27-9.169-6.968
					c1.482-1.25,2.425-3.118,2.425-5.209c0-3.764-3.051-6.814-6.815-6.814c-3.764,0-6.815,3.051-6.815,6.814
					c0,2.12,0.968,4.015,2.486,5.265c-0.07,4.65-7.803,6.483-9.317,6.938c0.001,0.001,0.003,0.003,0.003,0.004
					C381.599,127.123,381.181,127.67,381.181,128.32z M392.554,114.711c0-1.804,1.462-3.267,3.266-3.267
					c1.805,0,3.268,1.463,3.268,3.267c0,1.804-1.463,3.267-3.268,3.267C394.016,117.977,392.554,116.514,392.554,114.711z"/>
				<path style="fill:#59878F;" d="M407.986,130.044c0,0-0.38-0.045-1.043-0.099c-0.665-0.045-1.614-0.137-2.753-0.195
					c-2.277-0.13-5.314-0.216-8.351-0.22c-3.036,0.003-6.072,0.088-8.35,0.219c-1.139,0.058-2.088,0.15-2.753,0.195
					c-0.663,0.055-1.043,0.1-1.043,0.1s0.38,0.046,1.043,0.101c0.665,0.044,1.614,0.138,2.753,0.195
					c2.277,0.13,5.314,0.216,8.35,0.219c3.037-0.004,6.073-0.091,8.351-0.22c1.139-0.059,2.088-0.151,2.753-0.195
					C407.607,130.089,407.986,130.044,407.986,130.044z"/>
				<path style="fill:#59878F;" d="M407.986,134.286c0,0-0.38-0.046-1.043-0.1c-0.665-0.044-1.614-0.137-2.753-0.195
					c-2.277-0.129-5.314-0.216-8.351-0.22c-3.036,0.003-6.072,0.089-8.35,0.219c-1.139,0.058-2.088,0.151-2.753,0.195
					c-0.663,0.055-1.043,0.101-1.043,0.101s0.38,0.045,1.043,0.1c0.665,0.045,1.614,0.138,2.753,0.195
					c2.277,0.131,5.314,0.216,8.35,0.219c3.037-0.004,6.073-0.09,8.351-0.22c1.139-0.059,2.088-0.15,2.753-0.195
					C407.607,134.331,407.986,134.286,407.986,134.286z"/>
			</g>
		</g>
		<g>
			<g>
				<g>
					<polygon style="fill:#495D80;" points="397.291,358.272 272.253,358.272 282.298,231.09 382.741,231.09 					"/>
					<path style="fill:#36455E;" d="M303.879,245.343c-0.738,0-1.341-0.595-1.349-1.334c-0.014-1.277-0.174-31.428,13.59-45.339
						c4.486-4.534,9.977-6.833,16.321-6.833c30.095,0,30.977,50.015,30.999,52.143c0.009,0.745-0.588,1.355-1.333,1.363
						c-0.006,0-0.011,0-0.015,0c-0.739,0-1.341-0.595-1.349-1.334c-0.005-0.495-0.865-49.475-28.301-49.475
						c-5.597,0-10.443,2.03-14.403,6.032c-12.981,13.119-12.814,43.112-12.81,43.413c0.008,0.745-0.59,1.355-1.335,1.363
						C303.889,245.343,303.884,245.343,303.879,245.343z"/>
					<polygon style="fill:#566D96;" points="387.406,358.272 262.368,358.272 272.413,231.09 377.357,231.09 					"/>
					<path style="fill:#36455E;" d="M295.782,245.343c-0.738,0-1.34-0.595-1.349-1.334c-0.014-1.277-0.173-31.428,13.591-45.339
						c4.485-4.534,9.976-6.833,16.32-6.833c30.092,0,30.974,50.015,30.996,52.143c0.008,0.745-0.589,1.355-1.334,1.363
						c-0.005,0-0.01,0-0.016,0c-0.738,0-1.34-0.595-1.348-1.334c-0.006-0.495-0.865-49.475-28.299-49.475
						c-5.597,0-10.442,2.03-14.403,6.032c-12.98,13.119-12.814,43.112-12.811,43.413c0.008,0.745-0.589,1.355-1.334,1.363
						C295.792,245.343,295.787,245.343,295.782,245.343z"/>
					<polygon style="fill:#FFFFFF;" points="330.351,256.915 325.056,254.667 319.721,256.915 319.721,231.09 330.351,231.09 					
						"/>
				</g>
				<g>
					<polygon style="fill:#4A5E82;" points="298.305,282.71 277.519,360.32 291.143,360.32 					"/>
					<polygon style="fill:#808EA8;" points="362.511,358.272 288.221,358.272 297.275,282.71 356.541,282.71 					"/>
					<path style="fill:#36455E;" d="M309.396,291.405c-0.563,0-1.022-0.453-1.028-1.018c-0.008-0.762-0.103-18.768,8.141-27.1
						c2.71-2.738,6.025-4.127,9.857-4.127c18.098,0,18.626,29.931,18.64,31.205c0.007,0.567-0.448,1.033-1.017,1.039
						c-0.587-0.013-1.033-0.449-1.039-1.018c-0.003-0.291-0.513-29.17-16.584-29.17c-3.262,0-6.087,1.183-8.396,3.517
						c-7.646,7.729-7.548,25.454-7.546,25.632c0.006,0.568-0.449,1.033-1.018,1.039C309.402,291.405,309.4,291.405,309.396,291.405z
						"/>
					<polygon style="fill:#CEDAF0;" points="370.005,358.272 295.716,358.272 301.685,282.71 364.035,282.71 					"/>
					<path style="fill:#36455E;" d="M315.568,291.405c-0.564,0-1.022-0.453-1.028-1.018c-0.009-0.762-0.104-18.768,8.141-27.1
						c2.709-2.738,6.025-4.127,9.857-4.127c18.101,0,18.629,29.931,18.643,31.205c0.006,0.567-0.449,1.033-1.018,1.039
						c-0.602-0.013-1.033-0.449-1.039-1.018c-0.003-0.291-0.512-29.17-16.587-29.17c-3.263,0-6.087,1.183-8.396,3.517
						c-7.646,7.729-7.548,25.454-7.546,25.632c0.007,0.568-0.449,1.033-1.017,1.039
						C315.575,291.405,315.571,291.405,315.568,291.405z"/>
				</g>
			</g>
			<g>
				<g>
					<path style="fill:#C47450;" d="M271.272,235.376c-7.118,2.063-12.076,25.266-15.067,31.748
						c-2.992,6.48-62.492,26.353-80.044,35.04c-8.382,8.382-15.449,27.297-15.449,45.619c9.054,2.898,107.627-65.101,107.627-65.101
						s3.105-25.97,3.105-39.316c7.237,0,18.321,5.388,20.409,0.38C293.224,240.458,278.39,233.314,271.272,235.376z"/>
					<g>
						<path style="fill:#D46F40;" d="M240.98,288.47c11.663,3.555,84.9,4.395,91.038,5.111c6.139,0.715,26.043-11.693,38.646-3.638
							c10.663,6.814,35.659,25.64,24.08,36.985c-0.875,2.281-2.779,3.511-4.675,3.908c-1.758,3.569-4.545,3.931-6.257,3.32
							c-1.411,2.099-3.775,3.505-5.786,0.965c-7.2-4.17-36.858-15.04-42.983-17.444c-6.124-2.405-81.619,20.364-110.505,16.999
							C223.276,326.739,223.89,293.799,240.98,288.47z"/>
						<path style="fill:#AB5832;" d="M390.069,330.837c0.777-1.938,0.177-4.379-0.565-6.226c-0.46-1.089-0.975-2.151-1.624-3.138
							c-0.709-1.071-1.466-2.081-2.235-3.107c-1.65-1.941-3.403-3.782-5.281-5.503c-1.551-1.424-3.137-2.805-4.697-4.221
							c1.84,1.182,3.63,2.398,5.331,3.778c1.986,1.597,3.761,3.384,5.43,5.307c0.787,1.074,1.564,2.123,2.258,3.264
							c0.607,1.015,1.083,2.094,1.472,3.211C390.849,326.198,391.244,328.932,390.069,330.837z"/>
						<path style="fill:#AB5832;" d="M394.744,326.929c0.529-2.045,0.041-4.565-0.679-6.51c-0.407-1.1-0.845-2.224-1.434-3.244
							c-0.646-1.117-1.337-2.181-2.045-3.26c-1.34-2.049-3.089-3.96-4.819-5.688c-1.492-1.493-3.017-2.95-4.526-4.427
							c1.753,1.223,3.439,2.478,5.043,3.893c0.966,0.851,1.867,1.77,2.752,2.705c0.887,0.942,1.78,2.002,2.478,3.095
							c1.42,2.113,2.571,4.282,3.291,6.731C395.404,322.265,395.644,324.937,394.744,326.929z"/>
						<path style="fill:#AB5832;" d="M383.813,334.158c0.4-0.772,0.298-1.821,0.09-2.633c-0.265-1.031-0.632-2.048-1.156-2.978
							c-1.088-1.923-2.341-3.673-3.698-5.41c-2.297-2.938-4.971-5.542-7.386-8.375c3.234,2.431,6.058,5.228,8.64,8.333
							c1.247,1.488,2.262,3.211,3.086,4.96c0.497,1.059,0.843,2.2,0.965,3.363C384.445,332.313,384.407,333.423,383.813,334.158z"/>
					</g>
					<g>
						<path style="fill:#325288;" d="M136.473,166.807c-34.568,11.302-39.623,14.323-58.237,61.522
							c-18.613,47.197-16.73,101.564-30.027,137.462c0.644,27.567,12.427,39.83,27.254,48.883
							c19.646,11.993,44.119,16.067,62.019,17.582c0-23.267,24.552-90.457,40.341-123.695c22.437,15.29,31.148,35.423,46.717,26.116
							c5.655-9.88,6.588-36.354,16.442-46.207c-2.287-7.165-5.488-8.938-13.244-11.155c-7.757-2.217-12.633-11.966-18.837-18.17
							c-6.204-16.395-19.438-49.962-29.619-60.143C167.149,181.717,146.445,169.688,136.473,166.807z"/>
						<path style="fill:#2A4370;" d="M169.983,326.654c2.819-6.305,5.215-12.569,7.839-18.093
							c-12.505-10.048-52.24-42.769-69.969-56.503C125.752,271.238,157.147,305.163,169.983,326.654z"/>
						<path style="fill:#21375C;" d="M207.128,258.143c-0.228,0-0.452-0.101-0.605-0.293c-0.306-0.384-30.884-38.779-61.485-63.696
							c-0.33-0.27-0.38-0.755-0.11-1.085c0.268-0.331,0.754-0.38,1.085-0.111c30.732,25.024,61.412,63.549,61.719,63.935
							c0.265,0.334,0.209,0.818-0.125,1.084C207.464,258.088,207.296,258.143,207.128,258.143z"/>
						<path style="fill:#21375C;" d="M177.822,309.332c-0.169,0-0.34-0.056-0.482-0.17c-0.39-0.313-39.302-31.533-69.974-56.507
							c-0.33-0.269-0.38-0.756-0.11-1.086c0.268-0.33,0.754-0.382,1.085-0.111c30.667,24.972,69.575,56.189,69.964,56.501
							c0.333,0.267,0.386,0.752,0.119,1.085C178.272,309.234,178.047,309.332,177.822,309.332z"/>
						<path style="fill:#263D66;" d="M225.785,281.305c-5.093,5.705-9.42,12.518-12.493,19.51
							c-1.751,3.986-3.121,8.005-4.259,12.207c-0.894,3.575-1.381,7.188-1.906,10.829c-0.251-3.585-0.284-7.205,0.338-10.754
							c0.781-4.458,2.03-8.624,3.803-12.788c1.847-3.928,3.985-7.673,6.676-11.092C220.208,286.327,222.774,283.444,225.785,281.305
							z"/>
					</g>
					<g>
						<path style="fill:#2E2222;" d="M160.501,152.749c-2.164-13.711-5.267-23.513-8.874-35.058
							c-3.608-11.547-0.616-39.12,26.939-46.697c22.793-6.268,54.48,7.062,71.077,7.062c16.596,0,16.355,17.473-3.849,26.854
							C220.177,121.144,185.035,159.964,160.501,152.749z"/>
						<path style="fill:#E6885D;" d="M243.385,136.607c0.445-2.4,4.841-25.32,3.988-32.475c-7.575,0-30.265-5.374-33.151,2.201
							c-2.887,7.577-11.552,3.883-15.909,12.642c-4.358,8.757-6.335,11.023-11.33,12.993c2.888-16.236-8.838-20.386-15.514-16.056
							c-8.988,5.832-4.148,20.126,0,24.275c-14.431,18.399-22.009,20.486-34.996,26.619c11.545,17.68,34.095,36.419,44.379,46.7
							c0-11.906,0.72-21.647,9.74-30.667c10.824,2.886,25.707,9.398,33.555,2.526c5.674-4.972,9.84-13.184,13.237-23.77
							c4.043,1.354,8.807,2.653,9.634-0.943C248.24,155.346,242.941,139.008,243.385,136.607z"/>
						<g>
							<path style="fill:#2E2222;" d="M237.983,138.253c-0.349,2.221-1.825,3.833-3.3,3.602c-1.473-0.23-2.387-2.218-2.038-4.438
								c0.348-2.221,1.826-3.834,3.3-3.604C237.417,134.046,238.332,136.033,237.983,138.253z"/>
							<path style="fill:#BD653C;" d="M240.009,131.52c-1.292-0.341-2.589-0.729-3.916-0.904c-1.362-0.152-2.584-0.047-3.932,0.094
								C234.312,128.723,238.2,129.296,240.009,131.52z"/>
							<path style="fill:#2E2222;" d="M242.728,126.34c2.241-0.923,1.713-5.772-4.69-7.126c-4.695-0.99-10.825,1.263-10.825,3.563
								c0,2.3,5.233,0.87,9.247,1.983C238.894,125.439,241.194,126.971,242.728,126.34z"/>
							<path style="fill:#BD653C;" d="M171.469,140.188c1.071,0.505,2.166,0.836,3.326,1.049c1.174,0.216,2.354,0.086,3.53,0.232
								C176.292,142.822,172.603,142.749,171.469,140.188z"/>
							<path style="fill:#BD653C;" d="M181.392,131.789c0-5.052-0.901-12.087-5.411-10.104c-4.512,1.984-3.249,10.464,1.25,14.252
								C177.231,132.51,177.964,130.885,181.392,131.789z"/>
							<path style="fill:#BD653C;" d="M178.326,157.105c-2.569,8.353-0.923,20.702,8.463,30.271
								c1.071-1.535,2.315-3.047,3.804-4.536C185.517,180.753,178.326,173.703,178.326,157.105z"/>
							<path style="fill:#BD653C;" d="M232.172,169.853c-4.778,1.011-9.061-3.677-7.846-8.257c0.702,1.758,1.217,3.551,2.615,4.921
								c0.792,0.776,1.673,1.503,2.659,2.024C229.854,168.683,232.172,169.679,232.172,169.853z"/>
						</g>
					</g>
				</g>
				<g>
					<g>
						<g>
							<path style="fill:#2E2222;" d="M616.847,119.6c9.396,0.433,28.803,8.548,27.316,40.814
								c-1.487,32.269,32.165,71.807-9.16,96.587c-11.78-16.869-13.093-25.875-17.127-30.3c2.515-13.698,0.64-20.691,4.426-41.551
								c3.785-20.859,5.876-38.971-4.375-41.327C616.638,130.892,613.863,129.822,616.847,119.6z"/>
							<path style="fill:#AD3E39;" d="M603.664,112.717c8.033-1.727,18.428-0.201,17.639,16.924
								c-0.789,17.126,0.411,22.832-15.383,20.431C606.545,136.496,607.345,119.169,603.664,112.717z"/>
							<path style="fill:#2E2222;" d="M522.548,153.163c-12.398-3.502-29.571-16.852,2.107-45.738
								c8.957-8.169,28.069-18.696,57.155-14.006c29.084,4.688,36.709,33.353,28.609,53.61c-7.806,19.524-9.608,33.652-21.44,36.038
								C576.966,194.024,532.807,159.325,522.548,153.163z"/>
						</g>
						<g>
							<path style="fill:#E6885D;" d="M585.122,171.429c3.77-3.436,9.285-14.901,4.388-20.271
								c-4.898-5.372-14.241-4.355-18.563,7.689c-8.314-3.523-13.955-3.743-16.29-14.387c-2.335-10.645-7.063-10.234-15.763-12.205
								c-8.699-1.97-10.318-7.696-13.905-11.629c-2.986,8.26-6.802,30.605-7.217,39.605c-0.122,2.655-8.683,15.814-8.34,18.7
								c0.21,1.777,5.355,2.014,9.075,1.185c1.261,12.483,4.539,22.416,12.566,26.498c3.168,1.61,14.547-0.062,23.769-4.87
								c9.862,10.815,15.428,12.641,21.339,34.262c7.055-10.036,26.602-24.204,37.698-27.146
								C602.957,196.88,592.874,187.169,585.122,171.429z"/>
							<g>
								<path style="fill:#2E2222;" d="M523.298,160.892c-0.211,2.01,0.698,3.753,2.034,3.893c1.334,0.14,2.586-1.374,2.797-3.386
									c0.21-2.009-0.699-3.752-2.034-3.892C524.761,157.367,523.509,158.882,523.298,160.892z"/>
								<path style="fill:#BD653C;" d="M523.095,154.574c1.04-0.784,2.463-0.985,3.727-0.873c0.822,0.125,1.589,0.374,2.273,0.854
									c0.104,0.074,1.13,0.96,1.007,1.127c-1.019-0.366-1.983-0.799-3.078-0.923C525.716,154.61,524.409,154.593,523.095,154.574z
									"/>
								<path style="fill:#2E2222;" d="M521.259,149.306c-1.734-1.319-0.229-3.841,5.65-3.536c4.31,0.225,9.287,2.062,8.654,4.031
									c-0.442,1.371-2.671-0.772-8.463-1.039C523.703,148.605,522.444,150.21,521.259,149.306z"/>
								<path style="fill:#BD653C;" d="M521.521,190.064c0.005-0.104,1.614-0.671,1.753-0.736c0.824-0.382,1.671-0.822,2.367-1.412
									c1.317-0.841,2.1-2.305,3.071-3.475C528.954,187.997,525.089,191.557,521.521,190.064z"/>
								<path style="fill:#BD653C;" d="M585.122,171.429c-2.391,3.222-7.459,3.846-10.938,2.321
									C578.065,173.689,581.63,173.291,585.122,171.429z"/>
								<path style="fill:#BD653C;" d="M576.284,162.231c1.783-4.627,4.768-8.099,7.524-6.56c2.753,1.541,0.249,11.628-6.389,12.578
									C578.332,165.465,577.854,163.952,576.284,162.231z"/>
								<path style="fill:#BD653C;" d="M554.843,201.742c1.551,1.7,2.994,3.178,4.352,4.547c4.889-4.336,9.328-10.768,11.805-17.93
									C566.907,195.391,560.015,198.526,554.843,201.742z"/>
							</g>
						</g>
					</g>
					<g>
						<g>
							<g>
								<path style="fill:#E6885D;" d="M378.026,335.123c-2.33-3.764-5.899-24.353-11.399-17.206
									c-1.893-5.538-5.921-6.9-7.113-0.828c-1.385-5.672-6.568-6.619-7.24-0.843c-2.996-3.786-8.779-4.44-7.099,0.853
									c1.681,5.295,2.362,15.007,7.761,13.538c3.347,4.227,7.66,3.759,8.727,2.15c2.021,2.551,6.248,2.96,7.517-0.259
									C371.71,335.726,373.729,336.481,378.026,335.123z"/>
								<path style="fill:#E6885D;" d="M377.312,294.538c-5.664,4.482-15.269,8.536-18.02,5.06
									c-2.751-3.476,15.175-17.171,20.863-16.509c5.686,0.662,18.605,14.762,23.991,17.891c2.712,1.576,6.788,0.16,11.348-0.181
									c1.966,7.347,0.183,19.931-4.56,23.593c-1.712,0-5.084,0.068-6.19,0.068c-3.384,0-7.294-0.438-8.313,0.369
									C397.669,321.28,402.584,314.48,377.312,294.538z"/>
								<g>
									<path style="fill:#CC6F45;" d="M366.628,317.917c0.552,2.482,0.936,4.995,1.36,7.499c0.399,2.362,0.913,4.733,1.192,7.112
										c-1.114-2.207-1.708-4.547-2.185-6.957C366.51,323.12,366.317,320.401,366.628,317.917z"/>
									<path style="fill:#CC6F45;" d="M359.515,317.088c0.358,2.683,0.652,5.376,1.021,8.057c0.216,1.564,0.426,3.128,0.676,4.688
										c0.158,0.985,0.353,1.96,0.452,2.954c-1.04-2.28-1.679-4.679-2.068-7.146C359.16,322.878,358.956,319.852,359.515,317.088z
										"/>
									<path style="fill:#CC6F45;" d="M352.275,316.246c0.227,2.52,0.305,5.053,0.409,7.58c0.053,1.341,0.129,2.678,0.16,4.019
										c0.004,0.167,0.089,2.791,0.094,2.792c-0.065-0.008-0.231-0.707-0.25-0.77c-0.194-0.638-0.389-1.286-0.513-1.941
										c-0.28-1.473-0.417-2.948-0.516-4.443C351.52,321.114,351.654,318.543,352.275,316.246z"/>
									<path style="fill:#BF6339;" d="M364.521,300.737c1.364-0.29,2.684-0.853,3.947-1.431c1.569-0.725,3.149-1.545,4.583-2.515
										c2.7-1.668,5.144-3.672,7.747-5.478c-2.053,2.493-4.498,4.597-7.214,6.336c-1.393,0.9-2.932,1.668-4.498,2.216
										C367.634,300.372,366.073,300.807,364.521,300.737z"/>
								</g>
							</g>
						</g>
						<g>
							<path style="fill:#E6885D;" d="M424.4,340.303c-8.827-1.378-22.95-8.724-31.996-4.138
								c-20.136,10.206-49.652,15.853-50.66,17.93c-1.61,3.309,1.838,6.344,10.389,6.344c8.55,0,61.886,1.655,75.213-1.379
								C433.457,352.949,430.416,341.693,424.4,340.303z"/>
							<g>
								<path style="fill:#BD653C;" d="M352.272,359.376c8.54-7.24,22.732-9.775,36.018-9.927
									C375.58,350.918,361.49,353.512,352.272,359.376z"/>
								<path style="fill:#BD653C;" d="M345.594,359.376c8.6-9.684,26.382-13.067,41.256-15.165
									C372.522,347.524,354.951,350.77,345.594,359.376z"/>
							</g>
						</g>
					</g>
					<g>
						<path style="fill:#CC4944;" d="M605.147,196.295c18.473,5.018,21.431,11.93,40.247,65.399
							c18.817,53.472,21.237,68.906,37.965,104.866c-22.027,34.877-48.633,49.401-88.58,56.662
							c-7.526-24.064-13.677-57.032-34.089-77.441c-9.096,10.14-14.218,16.099-24.253,16.099c-10.036,0-94.501-2.091-109.555,0
							c0.135-7.241-0.653-16.427-2.483-21.576c8.781-2.51,39.449-10.446,52.412-12.954c-19.117,0.667-1.349,0.09-65.877-2.958
							c3.764-6.767,4.56-15.853,4.56-23.593c50.585-5.523,74.765-13.701,94.36-12.931c8.863-12.633,32.36-29.176,46.371-45.489
							c5.885-12.073,8.69-21.64,13.063-26.013C582.969,202.685,589.81,196.295,605.147,196.295z"/>
						<g>
							<path style="fill:#8A312D;" d="M516.694,304.527c-0.426,0-0.771-0.346-0.771-0.771c0-7.958-6.012-14.757-6.079-14.83
								c-0.285-0.315-0.262-0.803,0.054-1.089c0.316-0.287,0.804-0.261,1.088,0.052c0.288,0.316,6.479,7.305,6.479,15.867
								C517.465,304.181,517.12,304.527,516.694,304.527z"/>
							<path style="fill:#8A312D;" d="M477.196,327.543c-0.356,0-0.677-0.248-0.753-0.612c-0.088-0.415,0.178-0.826,0.595-0.913
								c17.137-3.568,43.962-9.393,51.377-9.642c4.254-9.18,9.972-25.094,16.018-41.924c7.665-21.335,15.592-43.396,21.508-54.476
								c0.2-0.376,0.669-0.52,1.044-0.317c0.375,0.201,0.517,0.668,0.315,1.044c-5.861,10.98-13.769,32.987-21.416,54.271
								c-6.156,17.136-11.972,33.32-16.276,42.492l-0.208,0.443h-0.49c-6.533,0-33.84,5.778-34.115,5.837
								C494.741,323.757,477.25,327.543,477.196,327.543z"/>
							<path style="fill:#8A312D;" d="M538.108,328.362c-0.313,0-0.606-0.191-0.723-0.501c-2.374-6.338-8.79-10.016-8.854-10.052
								c-0.37-0.209-0.502-0.679-0.293-1.05c0.208-0.371,0.677-0.503,1.05-0.294c0.283,0.159,6.966,3.979,9.542,10.855
								c0.149,0.398-0.052,0.842-0.452,0.991C538.29,328.345,538.198,328.362,538.108,328.362z"/>
							<path style="fill:#AD3E39;" d="M605.147,279.086c-10.737,20.909-34.84,52.688-44.457,66.695
								c4.598,4.598,8.477,9.864,11.822,15.533C580.914,341.593,595.092,306.425,605.147,279.086z"/>
							<path style="fill:#8A312D;" d="M560.69,346.551c-0.161,0-0.324-0.05-0.463-0.154c-0.341-0.256-0.409-0.74-0.153-1.08
								c0.407-0.541,40.729-54.239,47.521-73.903c0.14-0.403,0.58-0.617,0.981-0.478c0.402,0.14,0.615,0.579,0.477,0.981
								c-6.87,19.893-46.079,72.113-47.745,74.327C561.155,346.445,560.923,346.551,560.69,346.551z"/>
						</g>
					</g>
				</g>
			</g>
		</g>
		<g>
			<defs>
				<path id="SVGID_1_" d="M355.316,420.667c50.946-6.92,226.24,33.459,297.688-20.652c71.448-54.11-304.333-98.893-447.027-61.337
					c-67.898,17.87-108.059,104.047,25.106,94.637C266.774,430.792,298.284,428.413,355.316,420.667z"/>
			</defs>
			<clipPath id="SVGID_00000118365827950367667750000012518721545036771229_">
				<use xlink:href="#SVGID_1_"  style="overflow:visible;"/>
			</clipPath>
			<g style="clip-path:url(#SVGID_00000118365827950367667750000012518721545036771229_);">
				<path style="fill:#5C4B44;" d="M182.539,374.43c28.488,15.307,49.75,47.372,49.75,68.137c17.574,0,281.521,0,299.095,0
					c0-20.765,21.26-52.83,49.749-68.137C568.604,367.987,195.066,367.987,182.539,374.43z"/>
				<path style="fill:#5C4B44;" d="M587.219,368.052c0,3.523-2.856,6.378-6.379,6.378H182.539c-3.522,0-6.378-2.854-6.378-6.378
					v-3.402c0-3.523,2.855-6.378,6.378-6.378H580.84c3.523,0,6.379,2.854,6.379,6.378V368.052z"/>
				<path style="fill:#52423D;" d="M392.374,442.567c66.719,0,130.661,0,139.01,0c0-20.765,21.26-52.83,49.749-68.137
					c-55.187,0-226.862,0-280.559,0C363.719,395.35,386.758,431.794,392.374,442.567z"/>
				<path style="fill:#9E8176;" d="M581.133,375.458H182.539c-0.567,0-1.028-0.46-1.028-1.028c0-0.568,0.461-1.028,1.028-1.028
					h398.594c0.568,0,1.028,0.46,1.028,1.028C582.161,374.999,581.701,375.458,581.133,375.458z"/>
			</g>
		</g>
		<g>
			<g>
				
					<ellipse transform="matrix(0.2338 -0.9723 0.9723 0.2338 110.4041 379.2963)" style="fill:#566D96;" cx="295.856" cy="119.6" rx="19.048" ry="19.048"/>
				<g>
					<path style="fill:#FFFFFF;" d="M303.688,130.36h-15.67c-1.102,0-1.926-0.799-2.204-2.137l-1.85-10.892
						c-0.005-1.281,0.987-2.273,2.208-2.273h19.362c1.22,0,2.212,0.993,2.212,2.213l-1.852,10.938
						C305.557,129.605,304.773,130.36,303.688,130.36z M286.172,115.795c-0.813,0-1.475,0.661-1.475,1.476l1.841,10.815
						c0.094,0.453,0.434,1.537,1.48,1.537h15.67c0.732,0,1.232-0.526,1.485-1.563l1.841-10.852c-0.005-0.752-0.667-1.413-1.48-1.413
						H286.172z"/>
					<path style="fill:#FFFFFF;" d="M287.939,117.123c-0.149,0-0.3-0.036-0.44-0.112c-0.447-0.243-0.613-0.803-0.368-1.251
						l4.507-8.283c0.243-0.447,0.804-0.613,1.25-0.369c0.447,0.243,0.614,0.802,0.369,1.25l-4.508,8.284
						C288.582,116.948,288.266,117.123,287.939,117.123z"/>
					<path style="fill:#FFFFFF;" d="M303.906,117.123c-0.326,0-0.644-0.174-0.81-0.481l-4.508-8.284
						c-0.245-0.448-0.079-1.007,0.369-1.25c0.446-0.245,1.007-0.079,1.249,0.369l4.508,8.283c0.243,0.448,0.078,1.008-0.369,1.251
						C304.206,117.087,304.056,117.123,303.906,117.123z"/>
					<path style="fill:#FFFFFF;" d="M295.853,130.36c-0.204,0-0.369-0.165-0.369-0.369v-14.565c0-0.204,0.165-0.369,0.369-0.369
						s0.369,0.165,0.369,0.369v14.565C296.222,130.195,296.057,130.36,295.853,130.36z"/>
					<path style="fill:#FFFFFF;" d="M306.219,123.078h-20.892c-0.203,0-0.369-0.166-0.369-0.369c0-0.204,0.166-0.368,0.369-0.368
						h20.892c0.203,0,0.369,0.164,0.369,0.368C306.588,122.912,306.422,123.078,306.219,123.078z"/>
					<path style="fill:#FFFFFF;" d="M305.807,126.893h-19.908c-0.204,0-0.369-0.164-0.369-0.368c0-0.203,0.165-0.369,0.369-0.369
						h19.908c0.204,0,0.369,0.166,0.369,0.369C306.176,126.728,306.011,126.893,305.807,126.893z"/>
					<path style="fill:#FFFFFF;" d="M307.059,119.512h-22.412c-0.204,0-0.369-0.165-0.369-0.368c0-0.204,0.165-0.37,0.369-0.37
						h22.412c0.204,0,0.371,0.166,0.371,0.37C307.43,119.347,307.263,119.512,307.059,119.512z"/>
					<path style="fill:#FFFFFF;" d="M298.937,130.36c-0.007,0-0.015,0-0.022,0c-0.204-0.013-0.358-0.188-0.346-0.392l0.924-14.565
						c0.013-0.202,0.157-0.355,0.392-0.345c0.202,0.013,0.357,0.188,0.343,0.392l-0.921,14.565
						C299.292,130.21,299.13,130.36,298.937,130.36z"/>
					<path style="fill:#FFFFFF;" d="M301.938,130.36c-0.017,0-0.032-0.001-0.047-0.003c-0.202-0.025-0.347-0.209-0.319-0.412
						l1.846-14.565c0.025-0.203,0.223-0.345,0.412-0.32c0.202,0.026,0.345,0.21,0.318,0.412l-1.845,14.565
						C302.278,130.224,302.12,130.36,301.938,130.36z"/>
					<path style="fill:#FFFFFF;" d="M292.785,130.36c-0.193,0-0.355-0.149-0.368-0.345l-0.923-14.565
						c-0.014-0.203,0.142-0.379,0.345-0.392c0.218-0.01,0.379,0.143,0.392,0.345l0.924,14.565c0.012,0.203-0.142,0.378-0.346,0.392
						C292.801,130.36,292.793,130.36,292.785,130.36z"/>
					<path style="fill:#FFFFFF;" d="M289.784,130.36c-0.183,0-0.341-0.136-0.365-0.322l-1.845-14.565
						c-0.026-0.202,0.117-0.386,0.319-0.412c0.187-0.025,0.385,0.117,0.412,0.32l1.845,14.565c0.026,0.203-0.116,0.387-0.32,0.412
						C289.815,130.359,289.8,130.36,289.784,130.36z"/>
				</g>
			</g>
			<g>
				<path style="fill:#566D96;" d="M381.56,156.814c0,10.52-8.53,19.048-19.049,19.048c-10.519,0-19.048-8.528-19.048-19.048
					s8.529-19.048,19.048-19.048C373.029,137.766,381.56,146.294,381.56,156.814z"/>
				<g>
					<path style="fill:#FFFFFF;" d="M373.647,164.378c0.139-0.191,0.094-0.458-0.094-0.597l-4.134-2.972
						c-0.189-0.138-0.457-0.094-0.596,0.097c-0.123,0.174-0.096,0.404,0.055,0.549c-0.77,0.949-3.507,3.865-9.178-0.215
						c-5.67-4.081-3.774-7.602-3.119-8.631c0.184,0.093,0.413,0.049,0.538-0.124c0.139-0.191,0.093-0.459-0.099-0.597l-4.131-2.972
						c-0.191-0.138-0.459-0.094-0.597,0.097c-0.124,0.172-0.095,0.399,0.05,0.545c-3.954,6.164,4.403,12.766,5.838,13.798
						c1.435,1.032,10.348,6.857,14.936,1.15C373.302,164.595,373.525,164.55,373.647,164.378z"/>
					<g>
						<path style="fill:#FFFFFF;" d="M365.9,155.837c-0.037,0-0.077-0.009-0.11-0.028c-0.116-0.061-0.158-0.205-0.097-0.32
							c0.039-0.076,0.968-1.861-0.442-2.97c-1.405-1.107-2.795,0.296-2.854,0.357c-0.092,0.093-0.241,0.096-0.336,0.005
							c-0.093-0.091-0.095-0.241-0.005-0.336c0.598-0.616,2.097-1.493,3.487-0.399c1.725,1.357,0.578,3.545,0.567,3.566
							C366.067,155.792,365.986,155.837,365.9,155.837z"/>
						<path style="fill:#FFFFFF;" d="M367.784,156.335c-0.049,0-0.102-0.013-0.149-0.038c-0.151-0.083-0.212-0.274-0.129-0.428
							c0.073-0.136,1.756-3.363-0.809-5.379c-2.555-2.009-5.075,0.532-5.181,0.642c-0.121,0.125-0.32,0.128-0.445,0.006
							c-0.126-0.122-0.128-0.321-0.009-0.447c0.031-0.031,3.026-3.054,6.026-0.699c2.983,2.347,0.995,6.138,0.974,6.175
							C368.007,156.274,367.896,156.335,367.784,156.335z"/>
						<path style="fill:#FFFFFF;" d="M369.593,158.13c-0.064,0-0.125-0.015-0.185-0.046c-0.193-0.104-0.266-0.342-0.163-0.535
							c0.122-0.224,2.887-5.524-1.338-8.847c-4.207-3.308-8.363,0.869-8.536,1.048c-0.154,0.156-0.402,0.159-0.56,0.008
							c-0.155-0.152-0.159-0.401-0.008-0.558c0.047-0.049,4.819-4.871,9.591-1.119c4.751,3.737,1.579,9.782,1.546,9.843
							C369.87,158.055,369.734,158.13,369.593,158.13z"/>
					</g>
				</g>
			</g>
			<g>
				
					<ellipse transform="matrix(0.2225 -0.9749 0.9749 0.2225 225.5417 521.7762)" style="fill:#566D96;" cx="439.895" cy="119.486" rx="19.048" ry="19.048"/>
				<g>
					<path style="fill:#FFFFFF;" d="M452.249,126.49c0,0.795-0.645,1.44-1.439,1.44H428.98c-0.795,0-1.439-0.645-1.439-1.44v-14.008
						c0-0.796,0.645-1.44,1.439-1.44h21.829c0.795,0,1.439,0.645,1.439,1.44V126.49z"/>
					<g>
						<path style="fill:#566D96;" d="M439.895,122.362c-0.079,0-0.159-0.026-0.228-0.08l-11.484-9.017
							c-0.16-0.126-0.188-0.357-0.062-0.518c0.125-0.16,0.358-0.188,0.517-0.062l11.257,8.839l11.121-8.762
							c0.161-0.127,0.393-0.098,0.518,0.062c0.125,0.16,0.1,0.392-0.061,0.517l-11.349,8.942
							C440.056,122.337,439.976,122.362,439.895,122.362z"/>
						<path style="fill:#566D96;" d="M451.245,126.829c-0.103,0-0.204-0.042-0.276-0.125l-6.981-7.909
							c-0.135-0.153-0.119-0.386,0.032-0.521c0.153-0.136,0.386-0.121,0.521,0.032l6.981,7.909c0.136,0.153,0.12,0.386-0.032,0.52
							C451.419,126.799,451.331,126.829,451.245,126.829z"/>
						<path style="fill:#566D96;" d="M428.411,126.829c-0.086,0-0.172-0.03-0.242-0.09c-0.153-0.134-0.17-0.367-0.037-0.521
							l6.967-8.014c0.134-0.154,0.367-0.17,0.521-0.037c0.153,0.134,0.171,0.367,0.036,0.521l-6.967,8.014
							C428.616,126.787,428.515,126.829,428.411,126.829z"/>
					</g>
				</g>
			</g>
		</g>
	</g>
</g>
</svg>
