<?xml version="1.0" encoding="utf-8"?>
<!-- Generator: Adobe Illustrator 19.0.0, SVG Export Plug-In . SVG Version: 6.00 Build 0)  -->
<svg version="1.1" id="Layer_1" xmlns="http://www.w3.org/2000/svg" xmlns:xlink="http://www.w3.org/1999/xlink" x="0px" y="0px"
	 viewBox="0 0 500 500" style="enable-background:new 0 0 500 500;" xml:space="preserve">
<style type="text/css">
	.st0{fill:#FFFFFF;}
	.st1{fill:url(#SVGID_1_);}
	.st2{fill:#62B3C5;}
	.st3{fill:#A8DCE3;}
</style>
<g id="XMLID_1_">
	<path id="XMLID_2_" class="st0" d="M375.4,301.3c-23,5-117.6,7.8-117.9,18.2c0.3,12.1,57,12.5,56.1,25.8
		c-1.8,24.1-90.8,38.4-177,47.7c31.1,24.8,70.6,39.5,113.4,39.5c94.7,0,172.5-72.1,181.6-164.3C416,283.6,401.4,295.5,375.4,301.3z"
		/>
	
		<linearGradient id="SVGID_1_" gradientUnits="userSpaceOnUse" x1="-0.4203" y1="-3.906252e-007" x2="1.0055" y2="-3.906252e-007" gradientTransform="matrix(0 129.636 -256 0 249.9999 121.9874)">
		<stop  offset="0" style="stop-color:#E7507E"/>
		<stop  offset="1" style="stop-color:#FBB583"/>
	</linearGradient>
	<path class="st1" d="M67.5,250l0,0.2l2.8,1.9h110.5l3.3-1.9c0.3-37.1,30.5-67.1,67.6-67.1s67.3,30,67.6,67.1l4.3,2.1h106.5l2.4-2.1
		l0-0.2c0-100.8-81.7-182.5-182.5-182.5S67.5,149.2,67.5,250z"/>
	<path id="XMLID_3_" class="st2" d="M67.5,250.2c0.1,100.7,81.8,182.3,182.5,182.3s182.4-81.6,182.5-182.3H67.5z"/>
	<path id="XMLID_4_" class="st3" d="M375.4,301.3c-23,5-117.6,7.8-117.9,18.2c0.3,12.1,57,12.5,56.1,25.8
		c-1.8,24.1-90.8,38.4-177,47.7c31.1,24.8,70.6,39.5,113.4,39.5c94.7,0,172.5-72.1,181.6-164.3C416,283.6,401.4,295.5,375.4,301.3z"
		/>
</g>
</svg>
