<svg xmlns="http://www.w3.org/2000/svg" viewBox="0 0 200 200" width="200" height="200">
  <defs>
    <linearGradient id="grad15a" x1="0%" y1="0%" x2="100%" y2="100%">
      <stop offset="0%" style="stop-color:#0E7490;stop-opacity:1"/>
      <stop offset="100%" style="stop-color:#155E75;stop-opacity:1"/>
    </linearGradient>
    <filter id="shad15" x="-20%" y="-20%" width="140%" height="140%">
      <feGaussianBlur in="SourceAlpha" stdDeviation="2"/>
      <feOffset dx="1" dy="1" result="offsetblur"/>
      <feComponentTransfer><feFuncA type="linear" slope="0.25"/></feComponentTransfer>
      <feMerge><feMergeNode/><feMergeNode in="SourceGraphic"/></feMerge>
    </filter>
  </defs>
  <circle cx="100" cy="100" r="95" fill="#F0FDFA"/>
  <g filter="url(#shad15)">
    <!-- Person -->
    <circle cx="62" cy="75" r="19" fill="url(#grad15a)"/>
    <path d="M44 100 Q62 92 80 100 L83 138 Q83 144 78 144 L46 144 Q41 144 41 138 Z" fill="url(#grad15a)"/>
    <!-- Large arrow pointing right -->
    <rect x="85" y="93" width="65" height="14" rx="7" fill="#22D3EE"/>
    <polygon points="140,78 168,100 140,122" fill="#22D3EE"/>
    <!-- Destination marker -->
    <rect x="162" y="55" width="18" height="25" rx="4" fill="url(#grad15a)"/>
    <rect x="158" y="78" width="26" height="32" rx="3" fill="url(#grad15a)"/>
    <rect x="166" y="82" width="10" height="24" rx="2" fill="#F0FDFA"/>
    <!-- White highlight on person head -->
    <circle cx="55" cy="68" r="6" fill="white" opacity="0.2"/>
  </g>
</svg>
