<svg xmlns="http://www.w3.org/2000/svg" viewBox="0 0 200 200" width="200" height="200">
  <defs>
    <linearGradient id="grad2a" x1="0%" y1="0%" x2="100%" y2="100%">
      <stop offset="0%" style="stop-color:#0E7490;stop-opacity:1"/>
      <stop offset="100%" style="stop-color:#155E75;stop-opacity:1"/>
    </linearGradient>
    <filter id="shad2" x="-20%" y="-20%" width="140%" height="140%">
      <feGaussianBlur in="SourceAlpha" stdDeviation="2"/>
      <feOffset dx="1" dy="1" result="offsetblur"/>
      <feComponentTransfer><feFuncA type="linear" slope="0.25"/></feComponentTransfer>
      <feMerge><feMergeNode/><feMergeNode in="SourceGraphic"/></feMerge>
    </filter>
  </defs>
  <circle cx="100" cy="100" r="95" fill="#F0FDFA"/>
  <g filter="url(#shad2)">
    <!-- Calendar body -->
    <rect x="40" y="60" width="110" height="90" rx="8" fill="url(#grad2a)"/>
    <rect x="40" y="60" width="110" height="28" rx="8" fill="#155E75"/>
    <rect x="40" y="76" width="110" height="12" fill="#155E75"/>
    <!-- Calendar binding tabs -->
    <rect x="62" y="50" width="10" height="20" rx="5" fill="white" opacity="0.9"/>
    <rect x="118" y="50" width="10" height="20" rx="5" fill="white" opacity="0.9"/>
    <!-- Calendar grid lines -->
    <line x1="40" y1="102" x2="150" y2="102" stroke="white" stroke-width="0.8" opacity="0.3"/>
    <line x1="40" y1="120" x2="150" y2="120" stroke="white" stroke-width="0.8" opacity="0.3"/>
    <line x1="40" y1="138" x2="150" y2="138" stroke="white" stroke-width="0.8" opacity="0.3"/>
    <!-- Calendar day dots -->
    <circle cx="60" cy="111" r="4" fill="white" opacity="0.8"/>
    <circle cx="80" cy="111" r="4" fill="white" opacity="0.8"/>
    <circle cx="100" cy="111" r="4" fill="#22D3EE"/>
    <circle cx="120" cy="111" r="4" fill="white" opacity="0.8"/>
    <circle cx="60" cy="129" r="4" fill="white" opacity="0.8"/>
    <circle cx="80" cy="129" r="4" fill="white" opacity="0.8"/>
    <!-- Clock overlay -->
    <circle cx="138" cy="140" r="20" fill="white"/>
    <circle cx="138" cy="140" r="17" fill="url(#grad2a)"/>
    <line x1="138" y1="140" x2="138" y2="128" stroke="white" stroke-width="2.5" stroke-linecap="round"/>
    <line x1="138" y1="140" x2="147" y2="145" stroke="#22D3EE" stroke-width="2.5" stroke-linecap="round"/>
    <circle cx="138" cy="140" r="2" fill="white"/>
  </g>
</svg>
