<svg xmlns="http://www.w3.org/2000/svg" viewBox="0 0 200 200" width="200" height="200">
  <defs>
    <linearGradient id="gprip" x1="0%" y1="0%" x2="100%" y2="100%">
      <stop offset="0%" style="stop-color:#9333EA;stop-opacity:1"/>
      <stop offset="100%" style="stop-color:#7E22CE;stop-opacity:1"/>
    </linearGradient>
    <filter id="shprip" x="-20%" y="-20%" width="140%" height="140%">
      <feGaussianBlur in="SourceAlpha" stdDeviation="2"/>
      <feOffset dx="1" dy="1" result="offsetblur"/>
      <feComponentTransfer><feFuncA type="linear" slope="0.25"/></feComponentTransfer>
      <feMerge><feMergeNode/><feMergeNode in="SourceGraphic"/></feMerge>
    </filter>
  </defs>
  <circle cx="100" cy="100" r="95" fill="#FAF5FF"/>
  <g filter="url(#shprip)">

    <rect x="60" y="70" width="80" height="26" rx="13" fill="url(#gprip)"/>
    <line x1="100" y1="70" x2="100" y2="96" stroke="white" stroke-width="5"/>
    <path d="M64 60 Q40 60 40 80 Q40 100 64 100" fill="none" stroke="#C084FC" stroke-width="7" stroke-linecap="round"/>
    <polyline points="52,48 64,60 51,70" fill="none" stroke="#C084FC" stroke-width="6" stroke-linecap="round" stroke-linejoin="round"/>
    <ellipse cx="100" cy="142" rx="32" ry="10" fill="url(#gprip)"/>
    <rect x="68" y="132" width="64" height="10" fill="url(#gprip)"/>
    <ellipse cx="100" cy="132" rx="32" ry="10" fill="url(#gprip)" opacity="0.85"/>
    <ellipse cx="140" cy="150" rx="24" ry="8" fill="url(#gprip)" opacity="0.7"/>
    <rect x="116" y="142" width="48" height="8" fill="url(#gprip)" opacity="0.7"/>
    <ellipse cx="140" cy="142" rx="24" ry="8" fill="url(#gprip)" opacity="0.6"/>

  </g>
</svg>