<svg xmlns="http://www.w3.org/2000/svg" viewBox="0 0 200 200" width="200" height="200">
  <defs>
    <linearGradient id="grad1a" x1="0%" y1="0%" x2="100%" y2="100%">
      <stop offset="0%" style="stop-color:#4F46E5;stop-opacity:1"/>
      <stop offset="100%" style="stop-color:#4338CA;stop-opacity:1"/>
    </linearGradient>
    <filter id="shad1" x="-20%" y="-20%" width="140%" height="140%">
      <feGaussianBlur in="SourceAlpha" stdDeviation="2"/>
      <feOffset dx="1" dy="1" result="offsetblur"/>
      <feComponentTransfer><feFuncA type="linear" slope="0.25"/></feComponentTransfer>
      <feMerge><feMergeNode/><feMergeNode in="SourceGraphic"/></feMerge>
    </filter>
  </defs>
  <circle cx="100" cy="100" r="95" fill="#EEF2FF"/>
  <g filter="url(#shad1)">
    <!-- Document page -->
    <rect x="38" y="38" width="118" height="140" rx="7" fill="url(#grad1a)"/>
    <!-- Page fold top-right -->
    <path d="M128 38 L156 38 L156 66 Z" fill="#4338CA"/>
    <path d="M128 38 L128 66 L156 66" fill="#EEF2FF" opacity="0.2"/>
    <!-- Text lines -->
    <rect x="52" y="70" width="88" height="8" rx="3" fill="#EEF2FF" opacity="0.9"/>
    <rect x="52" y="86" width="72" height="8" rx="3" fill="#EEF2FF" opacity="0.9"/>
    <rect x="52" y="102" width="82" height="8" rx="3" fill="#EEF2FF" opacity="0.9"/>
    <rect x="52" y="118" width="60" height="8" rx="3" fill="#EEF2FF" opacity="0.7"/>
    <!-- Clock icon at top-right corner -->
    <circle cx="148" cy="55" r="18" fill="#818CF8"/>
    <circle cx="148" cy="55" r="12" fill="#EEF2FF"/>
    <line x1="148" y1="55" x2="148" y2="46" stroke="#4F46E5" stroke-width="2" stroke-linecap="round"/>
    <line x1="148" y1="55" x2="154" y2="59" stroke="#4F46E5" stroke-width="2" stroke-linecap="round"/>
    <circle cx="148" cy="55" r="2" fill="#4338CA"/>
  </g>
</svg>
